<svg width="24" height="24" viewBox="0 0 24 24" fill="none" xmlns="http://www.w3.org/2000/svg">
<path d="M17.2648 0.410889H6.82233C5.12118 0.412637 3.49029 1.08964 2.28801 2.29316C1.08573 3.49668 0.410399 5.12826 0.4104 6.82942V17.2719C0.4104 18.1139 0.576255 18.9477 0.898485 19.7256C1.22071 20.5036 1.69301 21.2104 2.28841 21.8058C2.88382 22.4012 3.59065 22.8735 4.36859 23.1958C5.14652 23.518 5.98031 23.6838 6.82233 23.6838H17.2648C18.966 23.6838 20.5975 23.0085 21.8011 21.8062C23.0046 20.6039 23.6816 18.9731 23.6833 17.2719V6.80303C23.6764 5.10531 22.997 3.4795 21.7941 2.28149C20.5911 1.08349 18.9625 0.410874 17.2648 0.410889ZM21.8033 17.2455C21.8033 17.8447 21.6852 18.438 21.4557 18.9914C21.2262 19.5449 20.8898 20.0477 20.4659 20.471C20.0419 20.8944 19.5386 21.23 18.9848 21.4587C18.431 21.6874 17.8376 21.8047 17.2384 21.8038H6.84873C6.25012 21.8038 5.65738 21.6859 5.10435 21.4568C4.55131 21.2277 4.04881 20.892 3.62554 20.4687C3.20226 20.0454 2.86649 19.5429 2.63741 18.9899C2.40834 18.4368 2.29045 17.8441 2.29045 17.2455V6.82942C2.28958 6.23026 2.40683 5.63681 2.63552 5.08301C2.8642 4.52921 3.19984 4.02594 3.6232 3.60197C4.04656 3.17799 4.54935 2.84164 5.10282 2.61215C5.65628 2.38266 6.24957 2.26454 6.84873 2.26454H17.2384C17.8379 2.26454 18.4315 2.38261 18.9853 2.61202C19.5392 2.84143 20.0424 3.17768 20.4663 3.60157C20.8902 4.02545 21.2264 4.52868 21.4558 5.08252C21.6852 5.63635 21.8033 6.22995 21.8033 6.82942V17.2455Z" fill="#B735B7"/>
<path d="M12.0467 5.89258C10.8331 5.89258 9.64672 6.25256 8.6377 6.92696C7.62869 7.60136 6.84236 8.55988 6.37822 9.68127C5.91408 10.8027 5.79298 12.0365 6.03023 13.2267C6.26748 14.417 6.85242 15.5101 7.71106 16.3678C8.5697 17.2255 9.66344 17.8093 10.8539 18.0453C12.0444 18.2812 13.2781 18.1588 14.399 17.6934C15.5199 17.2281 16.4776 16.4408 17.1509 15.431C17.8242 14.4213 18.1829 13.2345 18.1816 12.0209C18.1816 11.2155 18.0229 10.4181 17.7145 9.67414C17.4061 8.9302 16.9541 8.25433 16.3843 7.68518C15.8146 7.11603 15.1382 6.66476 14.394 6.35717C13.6497 6.04959 12.8521 5.89171 12.0467 5.89258ZM12.0467 16.025C11.2545 16.0263 10.4797 15.7926 9.82034 15.3534C9.16099 14.9142 8.64676 14.2893 8.34268 13.5578C8.0386 12.8262 7.95836 12.0209 8.11212 11.2437C8.26587 10.4666 8.64671 9.75249 9.20643 9.19184C9.76616 8.63119 10.4796 8.24916 11.2565 8.09413C12.0334 7.93909 12.8389 8.018 13.5709 8.32087C14.303 8.62375 14.9287 9.13696 15.369 9.79559C15.8093 10.4542 16.0443 11.2286 16.0443 12.0209C16.0443 13.0817 15.6233 14.0992 14.8738 14.8499C14.1243 15.6006 13.1076 16.0233 12.0467 16.025Z" fill="#B735B7"/>
<path d="M19.765 5.68802C19.765 5.9607 19.6841 6.22726 19.5326 6.45399C19.3811 6.68071 19.1658 6.85742 18.9139 6.96177C18.6619 7.06612 18.3847 7.09342 18.1173 7.04022C17.8498 6.98703 17.6042 6.85573 17.4114 6.66291C17.2186 6.4701 17.0873 6.22444 17.0341 5.957C16.9809 5.68956 17.0082 5.41234 17.1125 5.16042C17.2169 4.9085 17.3936 4.69317 17.6203 4.54167C17.847 4.39018 18.1136 4.30933 18.3863 4.30933C18.5673 4.30933 18.7466 4.34498 18.9139 4.41427C19.0811 4.48356 19.2331 4.58511 19.3611 4.71313C19.4892 4.84115 19.5907 4.99315 19.66 5.16042C19.7293 5.32769 19.765 5.50697 19.765 5.68802Z" fill="#B735B7"/>
</svg>
