<svg width="29" height="29" viewBox="0 0 29 29" fill="none" xmlns="http://www.w3.org/2000/svg">
<g clip-path="url(#clip0)">
<path d="M27.055 16.5034C27.8816 9.5458 26.6579 5.15327 24.4507 3.16652L24.4518 3.16537C20.8893 -0.227448 8.85803 -0.729618 4.59594 3.31775C2.68193 5.29757 2.00775 8.20322 1.93387 11.8004C1.85999 15.3987 1.77225 22.1393 8.05341 23.9679H8.05918L8.05341 26.7604C8.05341 26.7604 8.01069 27.8917 8.73335 28.1191C9.55991 28.387 9.93394 27.8617 12.5048 24.791C16.8038 25.1638 20.1055 24.3096 20.4806 24.1849C21.3488 23.894 26.2608 23.2441 27.055 16.5034ZM12.9285 22.8262C12.9285 22.8262 10.2075 26.219 9.36135 27.0998C9.0843 27.3861 8.78069 27.3595 8.7853 26.7916C8.7853 26.4187 8.80608 22.1554 8.80608 22.1554C3.48078 20.6293 3.79478 14.8896 3.8525 11.887C3.91022 8.88317 4.45972 6.42312 6.08052 4.76654C9.81966 1.26059 20.3675 2.04443 23.055 4.57029C26.3404 7.48287 25.171 15.7115 25.1779 15.992C24.5026 21.6186 20.5222 21.9754 19.7903 22.2189C19.4775 22.3228 16.5741 23.0697 12.9285 22.8262Z" fill="#8E24AA"/>
<path d="M14.4339 5.42578C13.9895 5.42578 13.9895 6.11843 14.4339 6.1242C17.8822 6.15075 20.722 8.55424 20.7532 12.9629C20.7532 13.4282 21.4343 13.4224 21.4285 12.9572H21.4274C21.3904 8.20676 18.2897 5.45233 14.4339 5.42578Z" fill="#8E24AA"/>
<path d="M18.9694 12.2322C18.959 12.6917 19.639 12.7136 19.6448 12.2484C19.7013 9.62902 18.0863 7.47143 15.0513 7.24401C14.6069 7.21168 14.5607 7.9101 15.004 7.94243C17.6361 8.14214 19.0225 9.93841 18.9694 12.2322Z" fill="#8E24AA"/>
<path d="M18.2421 15.2116C17.6718 14.8815 17.0911 15.0869 16.851 15.4113L16.3489 16.0613C16.0937 16.3914 15.617 16.3476 15.617 16.3476C12.1376 15.4275 11.2071 11.7865 11.2071 11.7865C11.2071 11.7865 11.1644 11.2935 11.483 11.0292L12.111 10.5097C12.425 10.2603 12.6236 9.66005 12.3038 9.07015C11.4495 7.5267 10.8758 6.99452 10.5837 6.58586C10.2767 6.20144 9.81489 6.11486 9.33466 6.3746H9.32427C8.3257 6.95873 7.23247 8.05196 7.58226 9.17751C8.17909 10.3642 9.27578 14.1473 12.7713 17.0056C14.4141 18.3574 17.0138 19.7427 18.1174 20.0625L18.1278 20.0786C19.2153 20.4411 20.2727 19.3052 20.8372 18.2766V18.2685C21.0877 17.771 21.0046 17.3 20.6386 16.9917C19.9899 16.3591 19.0109 15.6607 18.2421 15.2116Z" fill="#8E24AA"/>
<path d="M15.527 9.8205C16.6364 9.88514 17.1743 10.4647 17.232 11.6549C17.2528 12.1201 17.9281 12.0878 17.9074 11.6225C17.8335 10.0687 17.0231 9.20288 15.5639 9.12208C15.1195 9.09552 15.0779 9.79394 15.527 9.8205Z" fill="#8E24AA"/>
</g>
<defs>
<clipPath id="clip0">
<rect width="27.7059" height="27.7059" fill="white" transform="translate(0.324707 0.465332)"/>
</clipPath>
</defs>
</svg>
