<svg width="27" height="16" viewBox="0 0 27 16" fill="none" xmlns="http://www.w3.org/2000/svg">
<path d="M13.306 15.0756H14.8827C14.8827 15.0756 15.3593 15.0228 15.6018 14.7606C15.8261 14.5198 15.8178 14.0679 15.8178 14.0679C15.8178 14.0679 15.7865 11.9519 16.7695 11.6402C17.7376 11.3334 18.9811 13.6853 20.2989 14.5907C21.2951 15.2752 22.0521 15.1251 22.0521 15.1251L25.5766 15.0756C25.5766 15.0756 27.4205 14.9618 26.5464 13.5121C26.4755 13.3933 26.0368 12.4401 23.9257 10.4807C21.7156 8.429 22.0125 8.76216 24.6745 5.21455C26.2957 3.05399 26.9439 1.73457 26.741 1.17051C26.548 0.632847 25.3556 0.774685 25.3556 0.774685L21.3907 0.797775C21.3907 0.797775 21.0972 0.758192 20.8778 0.888485C20.6651 1.01713 20.5282 1.314 20.5282 1.314C20.5282 1.314 19.8998 2.98637 19.062 4.40805C17.2956 7.4081 16.588 7.56643 16.2994 7.38006C15.6281 6.9463 15.7964 5.63512 15.7964 4.70492C15.7964 1.79724 16.2367 0.585017 14.9371 0.271654C14.505 0.167749 14.1883 0.0984793 13.085 0.0869344C11.6699 0.0720908 10.4708 0.0918822 9.79299 0.423388C9.34109 0.644392 8.99309 1.13753 9.20585 1.16557C9.46808 1.2002 10.0618 1.32555 10.3768 1.75436C10.7842 2.30687 10.7694 3.55043 10.7694 3.55043C10.7694 3.55043 11.0036 6.97269 10.2235 7.3982C9.68744 7.69012 8.95351 7.09473 7.37844 4.37177C6.57195 2.97813 5.96171 1.43605 5.96171 1.43605C5.96171 1.43605 5.84461 1.14907 5.63515 0.995689C5.38117 0.80932 5.02492 0.749946 5.02492 0.749946L1.25466 0.773036C1.25466 0.773036 0.68896 0.789529 0.48115 1.03527C0.296431 1.25463 0.466307 1.70653 0.466307 1.70653C0.466307 1.70653 3.41852 8.61207 6.75996 12.0937C9.82598 15.2851 13.306 15.0756 13.306 15.0756Z" fill="#1E88E5"/>
</svg>
