<svg width="28" height="28" viewBox="0 0 28 28" fill="none" xmlns="http://www.w3.org/2000/svg">
<path fill-rule="evenodd" clip-rule="evenodd" d="M20.1723 16.7211C19.8425 16.5364 18.1933 15.6591 17.9163 15.5403C17.6392 15.4216 17.3885 15.349 17.1511 15.6788C16.9136 16.0087 16.2341 16.7409 16.0296 16.9586C15.8251 17.1763 15.6272 17.1961 15.2974 17.018C14.3226 16.5822 13.43 15.982 12.6587 15.2435C11.9456 14.535 11.343 13.7233 10.8711 12.8357C10.6863 12.4927 10.8711 12.3146 11.0426 12.176C11.2141 12.0375 11.3988 11.7934 11.5703 11.6021C11.7153 11.4381 11.8353 11.2536 11.9265 11.0546C11.9774 10.9639 12.0041 10.8617 12.0041 10.7578C12.0041 10.6538 11.9774 10.5516 11.9265 10.4609C11.854 10.2894 11.2669 8.60727 10.9832 7.92122C10.6995 7.23517 10.4423 7.3407 10.2444 7.33411C10.0465 7.32751 9.8288 7.28794 9.58472 7.28134C9.41365 7.27765 9.2437 7.30979 9.08579 7.37568C8.92787 7.44157 8.78549 7.53975 8.66778 7.66394C8.27334 8.01161 7.95535 8.43737 7.73393 8.91428C7.51251 9.39118 7.39247 9.90885 7.38143 10.4345C7.44629 11.7089 7.87938 12.9371 8.6282 13.9703C8.78652 14.2012 10.8183 17.7964 14.1958 19.2476C17.5732 20.6989 17.5864 20.2767 18.2065 20.2437C18.8266 20.2107 20.2317 19.5049 20.5417 18.7265C20.7809 18.2307 20.8703 17.6759 20.799 17.1301C20.7198 16.985 20.4956 16.8926 20.1393 16.7145L20.1723 16.7211ZM13.9847 24.7097C11.8338 24.7129 9.72969 24.0819 7.93556 22.8956L3.7137 24.2479L5.08581 20.1646C3.63854 18.1656 2.90623 15.7376 3.0068 13.2718C3.10738 10.8059 4.03497 8.4457 5.64023 6.57121C7.24548 4.69672 9.43495 3.41708 11.856 2.93839C14.277 2.45969 16.7887 2.80981 18.9865 3.93235C21.1844 5.05489 22.9404 6.88451 23.9718 9.12654C25.0033 11.3686 25.25 13.8925 24.6724 16.2919C24.0948 18.6912 22.7264 20.8263 20.7877 22.3533C18.8489 23.8803 16.4526 24.7103 13.9847 24.7097ZM13.9847 0.519787C11.6446 0.516704 9.34573 1.13609 7.32393 2.31444C5.30214 3.49278 3.63013 5.18768 2.47938 7.22532C1.32864 9.26295 0.740579 11.57 0.775486 13.9098C0.810394 16.2497 1.46703 18.5382 2.67804 20.5406L0.290039 27.6254L7.59913 25.2836C9.36125 26.249 11.3206 26.7992 13.3277 26.8921C15.3348 26.9851 17.3366 26.6184 19.1804 25.8201C21.0243 25.0217 22.6614 23.8128 23.9669 22.2855C25.2725 20.7581 26.2119 18.9528 26.7136 17.0072C27.2153 15.0616 27.266 13.0271 26.8618 11.0589C26.4576 9.09077 25.6092 7.2409 24.3813 5.65048C23.1535 4.06006 21.5786 2.77111 19.7768 1.88193C17.975 0.992759 15.9939 0.526861 13.9847 0.519787Z" fill="#2EAF6B"/>
</svg>
