<svg width="23" height="16" viewBox="0 0 23 16" fill="none" xmlns="http://www.w3.org/2000/svg">
<path fill-rule="evenodd" clip-rule="evenodd" d="M22.3172 3.42991C22.3172 2.55514 21.9697 1.71621 21.3512 1.09765C20.7326 0.4791 19.8937 0.131592 19.0189 0.131592H3.56956C2.69479 0.131592 1.85586 0.4791 1.2373 1.09765C0.618748 1.71621 0.27124 2.55514 0.27124 3.42991V12.2628C0.27124 13.1376 0.618748 13.9765 1.2373 14.5951C1.85586 15.2136 2.69479 15.5611 3.56956 15.5611H19.0189C19.8937 15.5611 20.7326 15.2136 21.3512 14.5951C21.9697 13.9765 22.3172 13.1376 22.3172 12.2628V3.42991ZM9.09095 11.5768V3.2782L15.3841 7.42747L9.09095 11.5768Z" fill="#E52D27"/>
</svg>
