<svg width="581" height="163" viewBox="0 0 581 163" fill="none" xmlns="http://www.w3.org/2000/svg">
<path d="M349.868 140.808C346.066 142.709 341.686 143.539 337.661 144.496C331.37 145.987 325.155 147.628 318.799 148.839C315.931 149.385 313.046 149.843 310.209 150.543C307.806 151.136 305.411 151.815 302.951 152.128C300.674 152.428 298.264 152.461 296.247 151.152C294.363 149.928 292.78 148.311 291.021 146.919C291.598 144.405 292.269 142.811 294.454 140.665C296.996 138.167 293.688 135.842 295.234 132.519C295.821 131.262 298.143 130.876 299.078 129.876C302.26 126.481 299.87 125.024 300.785 122.522C302.206 118.645 305.934 116.945 310.028 116.23C311.794 115.907 314.429 117.334 315.809 116.387C317.639 115.126 318.181 113.866 320.596 113.686C323.47 113.469 325.668 114.263 327.041 116.428C330.826 113.576 335.486 112.679 338.577 116.385C339.844 117.906 340.197 119.882 341.188 121.552C342.319 123.455 344.5 123.577 346.436 124.027C350.03 124.863 356.158 129.962 356.407 134.086C356.628 137.969 351.145 137.549 349.868 140.808Z" fill="#50B848"/>
<path d="M305.833 134.496C311.748 133.62 309.139 125.279 312.409 123.64C316.047 121.797 323.871 123.674 325.877 126.594C326.065 126.865 324.987 127.981 324.793 127.734C323.451 126.222 321.03 124.912 319.115 124.177C315.956 122.955 311.002 124.773 311.136 128.914C311.194 130.74 310.241 132.903 308.951 134.356C307.492 136.004 304.906 135.007 303.033 135.621C301.903 135.969 300.911 136.681 300.199 137.653C299.487 138.625 299.093 139.807 299.072 141.031C299.057 143.513 300.595 145.067 302.416 146.401C302.46 146.436 302.436 146.518 302.374 146.506C299.439 145.867 297.232 142.129 297.973 139.239C298.944 135.429 302.593 134.976 305.833 134.496Z" fill="#A6CE39"/>
<path d="M303.725 141.531C303.172 141.652 302.634 141.775 302.079 141.908C302.412 140.902 302.953 139.985 303.665 139.22C304.954 137.807 308.001 137.735 309.73 137.159C312.173 136.347 313.486 135.129 313.785 132.43C313.827 131.641 313.91 130.854 314.034 130.074C314.662 127.213 317.766 125.726 319.879 128.097C320.105 128.35 319.787 128.796 319.499 128.578C318.383 127.739 315.238 129.12 314.802 130.271C314.543 130.946 314.621 131.748 314.542 132.46C314.502 133.277 314.345 134.082 314.076 134.849C313.164 137.009 311.088 137.526 309.099 138.169C306.817 138.909 304.666 139.837 303.725 141.531Z" fill="#A6CE39"/>
<path d="M316.704 121.409C318.059 118.266 320.24 115.14 323.292 117.554C324.608 118.58 325.01 120.044 326.769 120.302C328.741 120.588 329.086 119.329 330.705 118.687C331.213 118.497 331.754 118.418 332.294 118.454C332.835 118.489 333.363 118.64 333.847 118.895C333.761 119.115 333.679 119.338 333.586 119.563C333.169 119.393 332.724 119.312 332.277 119.323C331.831 119.334 331.391 119.438 330.984 119.628C330.191 119.993 329.426 120.419 328.695 120.903C327.865 121.384 327.151 121.97 326.205 121.688C325.332 121.437 324.669 120.338 324.014 119.736C323.567 119.344 322.866 118.44 322.259 118.171C319.29 116.848 318.153 119.571 317.27 121.612C317.121 121.992 316.543 121.78 316.704 121.409Z" fill="#A6CE39"/>
<path d="M302.269 134.019C301.849 133.46 301.582 132.796 301.494 132.095C301.407 131.395 301.503 130.684 301.773 130.038C302.087 129.29 302.645 128.936 303.14 128.332C304.451 126.719 304.286 124.356 304.76 122.519C305.915 118.165 311.777 118.805 315.16 119.523C315.365 119.568 315.535 120.317 314.542 120.303C312.909 120.285 311.246 119.907 309.608 120.207C306.465 120.783 305.781 122.968 305.373 125.82C305.29 126.605 305.002 127.351 304.541 127.977C304.362 128.226 304.075 128.38 303.899 128.624C303.017 129.822 302.025 132.169 302.767 133.692C302.928 134 302.473 134.315 302.269 134.019Z" fill="#A6CE39"/>
<path d="M363.252 127.677C370.984 127.677 377.252 121.295 377.252 113.423C377.252 105.55 370.984 99.168 363.252 99.168C355.52 99.168 349.252 105.55 349.252 113.423C349.252 121.295 355.52 127.677 363.252 127.677Z" fill="#F7941D"/>
<path d="M375.297 103.139C373.066 100.579 369.965 98.9762 366.618 98.6534C366.781 97.436 367.193 96.2672 367.829 95.2231C368.465 94.1791 369.31 93.2833 370.309 92.5942C370.337 92.5715 370.359 92.5427 370.375 92.5099C370.39 92.4771 370.398 92.4412 370.398 92.4049C370.398 92.3685 370.39 92.3326 370.375 92.2999C370.359 92.2671 370.337 92.2383 370.309 92.2155C368.983 91.0212 367.191 91.8368 366.361 93.1866C365.426 94.8041 365.088 96.7079 365.407 98.5563C365.255 98.5563 365.102 98.5563 364.949 98.5563C364.896 98.5409 364.84 98.5409 364.787 98.5563C363.665 97.9692 362.424 97.6564 361.163 97.643C359.901 97.6295 358.654 97.9156 357.52 98.4786C357.467 98.4981 357.421 98.5325 357.386 98.578C357.352 98.6234 357.331 98.6779 357.326 98.735C357.321 98.7921 357.332 98.8495 357.358 98.9004C357.384 98.9514 357.424 98.9937 357.473 99.0224C359.7 100.427 362.309 101.07 364.921 100.858C363.657 103.294 363.377 106.137 364.139 108.781C364.156 108.832 364.186 108.878 364.226 108.913C364.266 108.949 364.314 108.973 364.366 108.984C364.418 108.995 364.472 108.992 364.523 108.975C364.573 108.958 364.618 108.928 364.654 108.888C365.595 107.898 366.343 106.735 366.857 105.46C367.068 104.938 367.237 104.399 367.362 103.848C367.591 102.8 367.467 102.12 368.688 102.664C370.91 103.635 372.693 104.285 375.163 103.635C375.208 103.615 375.247 103.585 375.279 103.548C375.31 103.511 375.333 103.467 375.346 103.42C375.359 103.372 375.361 103.322 375.353 103.274C375.344 103.225 375.325 103.179 375.297 103.139Z" fill="#009444"/>
<path d="M112.588 93.2344C113.521 92.0108 114 90.4916 113.942 88.9438C113.826 86.4971 112.323 84.3432 111.128 82.2252C109.786 83.6569 108.755 85.3605 108.102 87.225C107.45 89.0895 107.191 91.073 107.342 93.0463L105.479 90.1742C105.335 89.1671 105.391 88.1409 105.643 87.1561C105.896 86.1714 106.339 85.2482 106.948 84.441C107.879 83.2164 108.358 81.698 108.302 80.1505C108.189 77.7119 106.686 75.558 105.499 73.4368C104.156 74.8688 103.124 76.5727 102.471 78.4377C101.817 80.3026 101.556 82.2868 101.706 84.2611L99.6091 81.0231C100.069 79.4709 100.756 76.2436 99.2995 73.996C97.3261 70.9337 90.87 68.8494 90.87 68.8494C90.87 68.8494 90.1768 75.6872 92.1645 78.7626C93.5422 80.9012 96.4589 81.5899 98.1089 81.8107L100.106 84.9105C98.4225 84.0666 96.5881 83.5801 94.7141 83.4808C92.8402 83.3815 90.966 83.6713 89.2055 84.3326C90.6415 86.2885 91.985 88.5532 94.1454 89.6195C95.6845 90.3947 97.4598 90.5283 99.0941 89.992C100.517 89.5506 102.043 89.5988 103.436 90.1291L105.756 93.7557C104.071 92.9116 102.236 92.4254 100.36 92.3267C98.4849 92.2279 96.6095 92.5185 94.848 93.181C96.2951 95.1419 97.6354 97.3985 99.799 98.4729C101.346 99.2035 103.111 99.2997 104.726 98.7415C106.149 98.3008 107.675 98.349 109.068 98.8786L111.388 102.505C109.703 101.664 107.867 101.181 105.993 101.083C104.118 100.986 102.244 101.277 100.483 101.939C101.927 103.891 103.267 106.148 105.423 107.226C106.972 107.96 108.741 108.055 110.358 107.491C111.778 107.05 113.302 107.099 114.692 107.631L117.015 111.266C115.33 110.422 113.494 109.937 111.619 109.838C109.744 109.739 107.869 110.029 106.107 110.691C107.551 112.644 108.894 114.909 111.047 115.978C112.596 116.713 114.365 116.808 115.982 116.244C117.402 115.803 118.926 115.853 120.316 116.384L122.636 120.011C120.953 119.166 119.119 118.68 117.245 118.582C115.371 118.484 113.498 118.776 111.739 119.441C113.175 121.397 114.523 123.65 116.679 124.728C118.226 125.458 119.99 125.555 121.606 124.997C123.028 124.55 124.556 124.598 125.948 125.134L144.028 153.139L145.425 152.205L128.938 126.655L127.339 124.183C127.408 122.674 127.964 121.23 128.92 120.074C130.062 118.781 130.672 117.091 130.623 115.353C130.499 112.91 128.991 110.767 127.797 108.649C126.509 110.028 125.51 111.659 124.86 113.444C124.21 115.228 123.923 117.127 124.015 119.028L122.369 116.481C122.224 115.474 122.279 114.447 122.532 113.462C122.784 112.477 123.229 111.554 123.839 110.748C124.767 109.524 125.244 108.006 125.185 106.461C125.072 104.022 123.569 101.868 122.382 99.7468C121.039 101.179 120.007 102.883 119.353 104.748C118.7 106.613 118.439 108.597 118.588 110.571L116.73 107.688C116.586 106.682 116.642 105.656 116.895 104.673C117.148 103.689 117.592 102.768 118.202 101.963C119.134 100.74 119.611 99.2215 119.548 97.6753C119.444 95.2336 117.94 93.0797 116.742 90.9535C115.401 92.3883 114.37 94.0939 113.717 95.9599C113.064 97.826 112.804 99.8108 112.952 101.786L111.093 98.9025C110.962 97.9041 111.026 96.8889 111.283 95.916C111.539 94.943 111.983 94.0315 112.588 93.2344Z" fill="#F7941D"/>
<path d="M175.934 43.4538C175.315 49.5286 184.773 64.6497 186.305 62.8827C189.959 58.6602 185.23 52.3459 185.285 50.9569C187.809 53.2616 196.92 61.4725 196.811 57.5336C196.709 54.0177 192.313 48.4567 190.148 47.1814C191.101 46.8293 198.614 52.3007 198.484 46.4255C198.393 42.2299 181.616 37.6556 178.499 39.1832C178.089 39.3787 176.013 42.6986 175.934 43.4538Z" fill="#009444"/>
<path d="M124.413 17.5183C129.4 21.8974 134.387 26.2766 139.322 30.7164C144.344 35.0718 149.669 39.0519 155.255 42.6258C163.042 47.795 173.831 52.8889 178.584 41.953C183.457 30.7809 168.564 25.02 161.017 21.7195C155.219 19.1507 149.239 17.0304 143.127 15.3767C138.058 13.9839 132.634 12.7618 127.336 13.071C127.156 13.0126 119.978 12.3609 119.959 12.3659C119.397 12.4696 123.528 16.7404 124.413 17.5183Z" fill="#F7941D"/>
<path d="M173.012 32.5196C173.012 32.5196 170.148 38.5997 168.876 38.7511C167.605 38.9025 173.212 29.8386 173.012 32.5196Z" fill="#872368"/>
<path d="M162.276 35.4043C162.276 35.4043 159.418 41.488 158.147 41.6394C156.875 41.7907 162.486 32.7207 162.276 35.4043Z" fill="#872368"/>
<path d="M153.562 25.7264C153.103 27.4564 150.765 31.1537 149.765 31.2767C148.765 31.3997 151.717 27.4381 152.759 25.3415C153.065 24.6901 153.708 25.0954 153.562 25.7264Z" fill="#872368"/>
<path d="M142.159 23.7409C141.7 25.471 139.363 29.1682 138.357 29.2876C137.479 29.3841 140.308 25.449 141.357 23.3561C141.675 22.712 142.317 23.1173 142.159 23.7409Z" fill="#872368"/>
<path d="M136.584 15.7778C136.129 17.5017 134.484 20.0117 133.484 20.1347C132.484 20.2577 134.732 17.5019 135.785 15.3868C136.145 14.7425 136.73 15.1469 136.584 15.7778Z" fill="#872368"/>
<path d="M389.551 69.2364C389.551 69.2364 385.551 94.3855 406.821 94.3753L407.911 93.6015C407.911 93.6015 416.731 74.4088 389.551 69.2364Z" fill="#009444"/>
<path d="M391.661 78.4713C392.441 79.0109 395.291 79.4894 396.661 79.6829L399.081 83.2771C396.241 81.8007 392.081 82.9309 392.081 82.9309C392.961 83.6334 397.881 84.0509 399.681 84.1731L402.071 87.7265C399.822 87.4903 397.56 87.4086 395.301 87.4821C396.346 88.1756 397.538 88.608 398.779 88.7442C400.019 88.8805 401.274 88.7167 402.441 88.2662L408.981 97.9796C409.048 98.0798 409.136 98.1635 409.24 98.2244C409.343 98.2854 409.458 98.3221 409.577 98.3318C409.696 98.3416 409.815 98.3242 409.927 98.2809C410.038 98.2375 410.138 98.1694 410.221 98.0815C410.348 97.9477 410.426 97.7737 410.442 97.5885C410.458 97.4033 410.412 97.2179 410.311 97.0633C409.361 95.6684 406.711 91.7585 403.711 87.4923C404.537 86.5306 405.13 85.3844 405.441 84.1462C405.752 82.9081 405.772 81.6128 405.501 80.3651C404.637 82.5119 403.919 84.7163 403.351 86.9629L400.821 83.5316C401.291 81.8923 402.711 76.8218 402.351 75.7222C402.351 75.7222 399.721 79.4792 400.271 82.768C399.391 81.5563 398.521 80.3752 397.701 79.2858C397.931 78.2676 398.631 74.816 398.381 73.7978C397.775 74.4419 397.352 75.2418 397.158 76.1117C396.965 76.9816 397.007 77.8887 397.281 78.736C394.741 75.3964 392.681 72.9731 392.061 72.9832L395.921 78.7054C395.277 78.3339 394.557 78.1194 393.818 78.0788C393.079 78.0382 392.34 78.1725 391.661 78.4713Z" fill="#50B848"/>
<path d="M465.142 125.165C465.142 125.165 433.992 131.376 436.702 98.5804L438.802 99.0793C438.802 99.0793 471.942 84.8961 465.142 125.165Z" fill="#A6CE39"/>
<path d="M433.072 92.6545C433.072 92.6545 438.892 98.0102 445.382 104.241C446.823 103.267 448.47 102.651 450.188 102.446C451.907 102.241 453.648 102.451 455.272 103.06C452.222 103.867 449.121 104.462 445.992 104.842C447.382 106.176 448.792 107.54 450.172 108.915C452.452 108.548 459.532 107.52 460.952 108.223C460.952 108.223 455.412 111.185 451.092 109.811C452.562 111.267 453.982 112.692 455.302 114.047C456.782 113.924 461.472 113.578 462.802 114.108C461.825 114.834 460.672 115.276 459.467 115.385C458.262 115.494 457.05 115.268 455.962 114.729C459.962 118.883 462.852 122.202 462.722 123.057L455.722 116.633C456.105 117.605 456.261 118.656 456.176 119.7C456.091 120.745 455.768 121.755 455.232 122.65C454.662 121.469 454.552 117.396 454.532 115.523L450.142 111.45C451.612 115.686 449.312 121.255 449.312 121.255C448.522 119.911 448.882 112.977 449.042 110.442L444.722 106.451C444.616 109.632 444.302 112.802 443.782 115.94C443.05 114.354 442.694 112.614 442.742 110.861C442.791 109.109 443.243 107.392 444.062 105.85L430.252 94.2531L433.072 92.6545Z" fill="#50B848"/>
<path d="M39.9973 81.7448C27.4606 82.2265 4.39106 76.9087 3.3383 60.5999C2.27377 43.9799 18.5404 43.2659 30.0345 44.6415C36.9636 45.5007 43.7288 46.798 50.7402 46.0454C59.8274 45.0675 70.6889 34.7019 79.5892 37.5501C81.5366 37.3039 89.7882 39.4521 88.1368 48.6631C80.7054 67.6767 59.5338 80.9844 39.9973 81.7448Z" fill="#A6CE39"/>
<path d="M87.0182 40.3418C89.0775 39.4456 90.7534 37.8281 91.7424 35.7822C92.5998 34.0121 92.226 31.6008 90.1453 31.021C90.1035 31.0089 90.0595 31.0069 90.0168 31.0151C89.9741 31.0232 89.9339 31.0415 89.8993 31.0682C89.8647 31.095 89.8367 31.1296 89.8175 31.1692C89.7983 31.2089 89.7884 31.2525 89.7887 31.2968C89.7616 32.792 89.4243 34.2644 88.799 35.6176C88.1738 36.9707 87.2746 38.1741 86.1605 39.1485C83.6258 35.9048 73.2372 34.8555 73.3291 35.1577C74.0907 37.5997 77.5656 37.4194 79.3195 38.7495C76.6347 38.1813 73.162 40.0261 72.4585 40.5752C71.4304 41.3609 76.4457 41.6938 79.847 42.4216C79.5658 42.7491 79.3036 43.093 79.0617 43.4516C78.1136 44.8295 77.4321 46.3787 77.0539 48.0165C77.0354 48.0797 77.0341 48.1469 77.0499 48.2108C77.0658 48.2748 77.0984 48.3333 77.1442 48.38C77.19 48.4267 77.2472 48.4599 77.31 48.4762C77.3729 48.4925 77.4388 48.4913 77.501 48.4726C79.6728 47.8026 81.6291 46.5537 83.1676 44.8552C82.8669 47.0231 82.7109 49.2814 83.3684 49.8011C84.245 50.5081 85.6631 47.0614 86.3951 44.6727C87.8348 46.4147 88.3879 52.1121 89.0534 49.8339C89.9897 46.8297 87.1163 40.4958 87.0182 40.3418Z" fill="#009444"/>
<path d="M142.454 66.5885C143.077 67.7153 143.346 69.0097 143.223 70.2967C143.1 71.5838 142.593 72.8015 141.768 73.7852C140.664 75.0932 139.164 75.8507 137.019 74.4363C133.41 72.0689 136.31 71.1161 132.782 68.8612C129.254 66.6063 128.225 68.6304 124.906 67.8077C121.587 66.9851 120.337 59.7706 127.463 59.1314C133.346 58.6047 139.164 60.753 142.454 66.5885Z" fill="#872368"/>
<path d="M127.934 67.0975C127.934 67.0975 130.463 64.8841 132.811 66.8134C135.159 68.7428 134.235 70.0212 134.235 70.0212C132.499 68.8179 130.458 68.1538 128.358 68.1096C127.638 68.1096 127.934 67.0975 127.934 67.0975Z" fill="#B685A1"/>
<path d="M478.649 33.7276C479.605 33.2728 480.675 33.1278 481.714 33.312C482.754 33.4962 483.712 34.0009 484.461 34.7579C485.456 35.7714 485.978 37.0838 484.692 38.804C482.54 41.6998 481.947 39.1937 479.891 42.0279C477.835 44.8621 479.417 45.8569 478.539 48.6045C477.662 51.3521 471.714 51.9532 471.641 45.9028C471.582 40.9085 473.695 36.1361 478.649 33.7276Z" fill="#872368"/>
<path d="M478.152 46.0057C478.152 46.0057 476.51 43.7342 478.227 41.8748C479.944 40.0153 480.926 40.8751 480.926 40.8751C479.838 42.2634 479.169 43.9436 479.002 45.7114C478.956 46.3193 478.152 46.0057 478.152 46.0057Z" fill="#B685A1"/>
<path d="M145.075 100.665C144.789 101.148 144.562 101.665 144.4 102.203C144.003 103.507 143.987 104.898 144.355 106.208C144.722 107.518 145.458 108.69 146.471 109.581C147.485 110.473 148.733 111.044 150.063 111.227C151.393 111.41 152.748 111.196 153.963 110.611C154.407 111.337 155.095 111.875 155.901 112.124C156.165 112.198 156.436 112.243 156.709 112.259C157.194 113.114 157.851 113.855 158.638 114.434C159.425 115.013 160.324 115.417 161.276 115.618C162.229 115.82 163.213 115.814 164.164 115.603C165.116 115.392 166.013 114.979 166.798 114.392C167.249 114.772 167.785 115.032 168.36 115.15C168.934 115.268 169.529 115.24 170.091 115.068C170.653 114.896 171.165 114.586 171.581 114.165C171.998 113.744 172.305 113.226 172.477 112.656C172.638 112.11 172.669 111.533 172.565 110.974C174.347 110.655 175.937 109.64 176.993 108.147C178.05 106.654 178.49 104.801 178.217 102.987C178.699 102.752 179.122 102.41 179.456 101.987C179.791 101.564 180.027 101.07 180.147 100.542C180.268 100.014 180.27 99.4651 180.153 98.937C180.036 98.4089 179.803 97.9147 179.472 97.4912C179.141 97.0677 178.719 96.7257 178.24 96.4907C177.76 96.2557 177.233 96.1336 176.7 96.1337C176.166 96.1337 175.639 96.2558 175.158 96.4909C174.676 96.7261 174.253 97.0681 173.919 97.4917C173.748 97.4252 173.576 97.3588 173.401 97.3015C172.043 96.8793 170.589 96.8951 169.238 97.3467C163.97 93.8807 163.805 79.5307 163.805 79.5307L156.752 81.3142C158.452 88.9021 156.89 96.148 154.081 97.9334C153.756 97.774 153.42 97.637 153.077 97.5234C152.447 97.3367 151.796 97.2366 151.14 97.2257C150.988 96.7062 150.724 96.2284 150.366 95.8276C150.007 95.4269 149.564 95.1134 149.07 94.9105C148.575 94.7076 148.042 94.6204 147.509 94.6555C146.976 94.6906 146.457 94.847 145.991 95.1132C145.525 95.3794 145.124 95.7484 144.817 96.193C144.51 96.6376 144.305 97.1464 144.218 97.6815C144.131 98.2166 144.164 98.7644 144.313 99.2842C144.463 99.804 144.726 100.283 145.084 100.684L145.075 100.665ZM165.436 100.374C165.135 100.876 164.895 101.414 164.722 101.975C164.099 101.85 163.467 101.781 162.832 101.77C163.197 98.5642 163.179 94.5898 163.179 94.5898C163.502 96.6644 164.273 98.6395 165.436 100.374ZM160.011 95.8467L159.214 102.289C159.023 101.873 158.723 101.518 158.347 101.263C157.971 101.008 157.533 100.862 157.08 100.842C158.171 99.248 159.15 97.5789 160.011 95.8467Z" fill="#A6CE39"/>
<path d="M495.694 100.18C495.99 100.232 496.29 100.247 496.589 100.223C497.313 100.17 498.006 99.9028 498.582 99.4552C499.158 99.0075 499.593 98.3984 499.834 97.7019C500.075 97.0055 500.112 96.2519 499.94 95.5328C499.767 94.8137 499.393 94.1603 498.864 93.6521C499.136 93.2807 499.266 92.8211 499.23 92.3581C499.215 92.208 499.183 92.06 499.137 91.9165C499.465 91.4987 499.702 91.0147 499.834 90.4963C499.965 89.9778 499.987 89.4365 499.899 88.9078C499.81 88.3791 499.613 87.8748 499.321 87.428C499.028 86.9811 498.646 86.6018 498.201 86.3148C498.3 86.0084 498.323 85.6816 498.267 85.3633C498.212 85.0451 498.081 84.7453 497.884 84.4907C497.688 84.2361 497.434 84.0345 497.143 83.904C496.852 83.7734 496.535 83.7179 496.218 83.7424C495.916 83.7672 495.625 83.8658 495.368 84.0296C494.858 83.1777 494.042 82.5619 493.093 82.3143C492.145 82.0667 491.14 82.2072 490.296 82.7056C490.084 82.5047 489.831 82.3547 489.556 82.2668C489.28 82.1789 488.989 82.1552 488.703 82.1977C488.418 82.2401 488.146 82.3475 487.908 82.5118C487.669 82.6762 487.47 82.8933 487.326 83.1471C487.182 83.4008 487.096 83.6847 487.074 83.9775C487.052 84.2704 487.096 84.5647 487.201 84.8386C487.307 85.1125 487.471 85.359 487.683 85.5597C487.895 85.7604 488.148 85.9102 488.423 85.9979C488.424 86.0992 488.425 86.2004 488.432 86.3016C488.491 87.082 488.786 87.8257 489.277 88.4303C488.601 91.8197 481.526 94.7397 481.526 94.7397L483.803 98.0083C487.225 95.6367 491.123 95.007 492.562 96.0962C492.547 96.2947 492.546 96.494 492.557 96.6929C492.589 97.053 492.668 97.4073 492.792 97.7463C492.565 97.9266 492.381 98.1568 492.253 98.42C492.125 98.6831 492.058 98.9724 492.055 99.2664C492.052 99.5604 492.114 99.8515 492.237 100.118C492.36 100.385 492.54 100.62 492.763 100.807C492.987 100.994 493.249 101.127 493.53 101.197C493.811 101.266 494.103 101.271 494.386 101.21C494.668 101.149 494.933 101.024 495.161 100.844C495.389 100.665 495.574 100.435 495.702 100.172L495.694 100.18ZM491.527 89.7839C491.835 89.8396 492.149 89.8565 492.461 89.8345C492.522 90.1788 492.613 90.517 492.733 90.8451C491.073 91.2915 489.108 92.0858 489.108 92.0858C490.072 91.5101 490.898 90.724 491.527 89.7839ZM490.357 93.4638L493.705 92.6002C493.536 92.7806 493.42 93.0047 493.368 93.2482C493.316 93.4917 493.33 93.7454 493.41 93.9817C492.405 93.7367 491.385 93.5637 490.357 93.4638Z" fill="#A6CE39"/>
<path d="M438.345 14.4655C430.33 13.2244 422.844 18.8341 421.625 26.9952C420.406 35.1563 425.915 42.7784 433.931 44.0195C441.946 45.2607 449.432 39.651 450.651 31.4898C451.87 23.3287 446.36 15.7067 438.345 14.4655Z" fill="#ED1C24"/>
<path d="M422.061 37.959C423.977 40.971 426.944 43.1309 430.363 44.0027C430.007 45.2406 429.399 46.388 428.577 47.3701C427.756 48.3521 426.741 49.1466 425.597 49.7015C425.565 49.7197 425.537 49.745 425.516 49.7757C425.495 49.8063 425.482 49.8415 425.476 49.8784C425.471 49.9154 425.474 49.9532 425.485 49.9888C425.496 50.0244 425.515 50.057 425.54 50.084C426.728 51.545 428.713 50.9872 429.783 49.7112C431.003 48.1848 431.649 46.2653 431.603 44.2977L432.078 44.3712C432.139 44.3726 432.199 44.3609 432.255 44.3369C433.326 45.1278 434.564 45.6525 435.87 45.869C437.176 46.0856 438.514 45.988 439.776 45.5839C439.834 45.5744 439.888 45.5476 439.932 45.507C439.975 45.4664 440.006 45.4136 440.02 45.3554C440.034 45.2972 440.031 45.2361 440.011 45.1796C439.991 45.1232 439.955 45.0738 439.908 45.0379C437.817 43.2247 435.211 42.1393 432.471 41.9398C434.158 39.6161 434.889 36.7148 434.509 33.8514C434.5 33.7951 434.477 33.7421 434.442 33.6978C434.407 33.6534 434.361 33.6193 434.308 33.5987C434.256 33.5781 434.2 33.5718 434.144 33.5804C434.089 33.5891 434.037 33.6124 433.993 33.648C432.864 34.523 431.909 35.6089 431.179 36.8477C430.878 37.3588 430.619 37.8938 430.404 38.4476C430.005 39.4879 430.029 40.2124 428.846 39.4628C426.693 38.0995 424.946 37.1287 422.283 37.4167C422.226 37.4262 422.173 37.4502 422.127 37.4867C422.082 37.5231 422.046 37.5707 422.024 37.625C422.002 37.6792 421.994 37.7384 422 37.7968C422.006 37.8553 422.027 37.9111 422.061 37.959Z" fill="#009444"/>
<path d="M184.209 117.549C183.372 118.738 182.786 120.089 182.485 121.518C182.183 122.948 182.175 124.425 182.459 125.858C183.962 125.837 185.44 125.458 186.774 124.751C188.108 124.044 189.26 123.028 190.139 121.785C192.699 117.916 186.899 113.802 184.209 117.549Z" fill="#F7941D"/>
<path d="M226.115 40.8482C226.956 40.2198 227.661 39.4218 228.186 38.5039C228.711 37.5861 229.045 36.5679 229.167 35.513C228.124 35.1812 227.019 35.1031 225.941 35.2848C224.863 35.4665 223.842 35.903 222.959 36.5592C220.333 38.6424 223.426 42.8171 226.115 40.8482Z" fill="#F7941D"/>
<path d="M451.115 66.3028C451.956 65.6744 452.661 64.8764 453.186 63.9585C453.711 63.0406 454.045 62.0225 454.167 60.9676C453.124 60.6358 452.019 60.5577 450.941 60.7394C449.863 60.9211 448.842 61.3575 447.959 62.0138C445.333 64.097 448.426 68.2717 451.115 66.3028Z" fill="#F7941D"/>
<path d="M574.379 45.6357C575.194 46.2989 576.134 46.7842 577.141 47.0613C578.149 47.3384 579.201 47.4015 580.233 47.2465C580.276 46.1349 580.062 45.0284 579.609 44.016C579.156 43.0035 578.477 42.1133 577.625 41.4168C574.965 39.3774 571.812 43.505 574.379 45.6357Z" fill="#F7941D"/>
<path d="M351.581 65.0499C352.414 66.2426 353.479 67.2481 354.71 68.0038C355.941 68.7595 357.312 69.2494 358.737 69.4428C359.205 67.9882 359.333 66.4424 359.11 64.9285C358.888 63.4146 358.321 61.9746 357.455 60.7233C354.676 56.9925 349.006 61.2503 351.581 65.0499Z" fill="#872368"/>
<path d="M537.88 98.3655C538.645 97.7252 539.273 96.9314 539.724 96.0336C540.175 95.1358 540.44 94.1531 540.502 93.1467C539.497 92.8889 538.447 92.8736 537.436 93.1021C536.425 93.3307 535.48 93.7966 534.677 94.4628C532.292 96.5867 535.439 100.351 537.88 98.3655Z" fill="#872368"/>
<path d="M272.18 28.8684C272.576 27.4614 272.683 25.9865 272.495 24.5356C272.307 23.0846 271.828 21.6886 271.087 20.4343C269.678 20.9694 268.412 21.8322 267.389 22.9539C266.366 24.0756 265.615 25.4252 265.195 26.895C264.065 31.4336 270.884 33.3267 272.18 28.8684Z" fill="#009444"/>
<path d="M394.514 45.5216C395.843 44.9873 397.05 44.1816 398.061 43.154C399.072 42.1265 399.866 40.8989 400.393 39.5471C399.12 38.7328 397.677 38.2338 396.179 38.0902C394.682 37.9466 393.173 38.1624 391.772 38.7203C387.581 40.5194 390.257 47.1804 394.514 45.5216Z" fill="#A6CE39"/>
<path d="M543.368 58.09C542.752 58.1945 542.162 58.4264 541.637 58.7717C541.112 59.1169 540.661 59.568 540.314 60.0972C540.785 60.5647 541.358 60.9131 541.986 61.1145C542.614 61.3159 543.279 61.3646 543.929 61.2568C545.884 60.8787 545.34 57.778 543.368 58.09Z" fill="#A6CE39"/>
<path d="M493.222 134.254C493.826 134.823 494.538 135.26 495.314 135.537C496.09 135.815 496.914 135.928 497.735 135.869C497.832 134.993 497.726 134.106 497.425 133.279C497.124 132.452 496.638 131.708 496.004 131.107C494.04 129.342 491.313 132.419 493.222 134.254Z" fill="#A6CE39"/>
<path d="M112.618 45.5456C113.786 44.6918 114.768 43.6026 115.504 42.3457C116.241 41.0888 116.715 39.6912 116.899 38.2396C115.468 37.7698 113.949 37.6468 112.463 37.8806C110.977 38.1143 109.566 38.6983 108.341 39.586C104.696 42.4133 108.889 48.2147 112.618 45.5456Z" fill="#ED1C24"/>
<path d="M412.708 119.243C413.701 119.331 414.702 119.209 415.647 118.886C416.592 118.563 417.462 118.046 418.202 117.366C417.657 116.461 416.912 115.698 416.027 115.138C415.141 114.577 414.139 114.236 413.1 114.14C409.928 113.952 409.561 118.934 412.708 119.243Z" fill="#ED1C24"/>
<path d="M389.502 9.62429C385.435 12.4585 381.167 14.9818 376.733 17.1735C368.858 21.1301 345.177 26.4607 344.273 37.1967C343.714 43.7852 355.673 39.4396 364.995 35.0946C370.856 32.3652 377.76 29.0012 380.352 27.8483C383.788 26.3062 388.101 23.8284 389.475 20.6952C391.854 15.214 389.502 9.62429 389.502 9.62429Z" fill="#50B848"/>
<path d="M356.995 33.1201C357.441 35.4064 355.983 37.6282 353.737 38.0825C351.492 38.5368 349.31 37.0516 348.864 34.7652C348.417 32.4789 349.876 30.2571 352.122 29.8028C354.367 29.3485 356.549 30.8337 356.995 33.1201Z" fill="#A6CE39"/>
<path d="M364.487 29.4323C364.886 31.4791 363.581 33.4681 361.57 33.8748C359.56 34.2815 357.607 32.9519 357.207 30.9051C356.808 28.8582 358.114 26.8693 360.124 26.4626C362.134 26.0559 364.088 27.3854 364.487 29.4323Z" fill="#A6CE39"/>
<path d="M373.155 26.0666C373.618 28.4364 372.106 30.7393 369.778 31.2102C367.451 31.681 365.189 30.1417 364.727 27.7718C364.264 25.402 365.776 23.0992 368.103 22.6283C370.431 22.1574 372.693 23.6968 373.155 26.0666Z" fill="#A6CE39"/>
<path d="M380.793 21.994C381.209 24.1243 379.85 26.1944 377.757 26.6177C375.665 27.041 373.632 25.6572 373.216 23.5269C372.801 21.3966 374.16 19.3265 376.252 18.9032C378.344 18.4799 380.377 19.8637 380.793 21.994Z" fill="#A6CE39"/>
<path d="M388.768 17.5869C389.185 19.7209 387.823 21.7945 385.727 22.2185C383.632 22.6425 381.595 21.2564 381.179 19.1224C380.762 16.9885 382.124 14.9149 384.219 14.4909C386.315 14.0668 388.352 15.453 388.768 17.5869Z" fill="#A6CE39"/>
<path d="M338.884 44.9537C338.85 43.9948 338.996 43.0382 339.313 42.1346C337.927 42.3208 336.518 42.0906 335.259 41.4725C334.548 41.1588 333.923 40.6724 333.439 40.0559C332.955 39.4394 332.627 38.7115 332.483 37.9359C332.34 37.1639 332.4 36.3673 332.656 35.6263L332.46 35.3448C331.405 33.6867 331.819 32.0593 332.235 30.5133L332.612 29.1802C333.412 26.4023 334.056 24.2024 331.322 21.8799C331.265 21.8324 331.219 21.7738 331.185 21.7075C331.152 21.6412 331.132 21.5687 331.127 21.4943C331.122 21.4199 331.131 21.3453 331.156 21.2749C331.18 21.2045 331.218 21.1399 331.267 21.0849C331.375 20.9725 331.52 20.9054 331.673 20.897C331.827 20.8887 331.979 20.9397 332.097 21.04C335.387 23.8375 334.582 26.5891 333.747 29.497C333.627 29.9107 333.502 30.3389 333.386 30.7723C332.997 32.2171 332.696 33.3914 333.358 34.5826C333.666 34.2956 334.031 34.0796 334.428 33.9494C335.738 33.5069 337.319 33.911 337.892 34.8196C338.081 35.1296 338.143 35.5024 338.066 35.8586C337.989 36.2148 337.779 36.5263 337.48 36.7269C337.204 36.9691 336.88 37.1467 336.53 37.2471C336.179 37.3474 335.812 37.3681 335.453 37.3077C334.794 37.2055 334.17 36.9428 333.633 36.542C333.578 36.9559 333.585 37.3759 333.655 37.7876C333.767 38.3842 334.022 38.9434 334.397 39.4155C334.773 39.8877 335.257 40.2582 335.806 40.4943C337.079 41.1371 338.54 41.2748 339.907 40.8806C340.69 39.5339 341.739 38.3679 342.989 37.4565L342.981 37.4171C342.982 35.1811 343.488 32.9754 344.46 30.9704C344.825 30.1588 346.111 30.5954 346.145 31.4902C346.239 32.7502 346.114 34.0174 345.775 35.233L346.772 33.8429C346.931 33.8031 347.097 33.8023 347.256 33.8408C347.416 33.8792 347.564 33.9557 347.689 34.0639C347.813 34.1721 347.911 34.309 347.973 34.4632C348.036 34.6174 348.061 34.7846 348.048 34.9508C347.961 35.9519 347.385 38.4318 346.35 39.0375C346.35 39.0375 351.06 39.7306 350.86 42.1414C350.659 44.5521 349.919 42.0994 348.322 41.8215C346.739 41.5247 345.24 40.8793 343.928 39.9305C342.533 41.169 341.436 42.8047 341.5 44.8821C341.498 45.0484 341.464 45.2128 341.399 45.3657C341.335 45.5187 341.242 45.6573 341.125 45.7735C341.008 45.8898 340.87 45.9815 340.718 46.0433C340.567 46.1051 340.405 46.136 340.241 46.134C339.908 46.1586 339.579 46.0485 339.324 45.8276C339.07 45.6066 338.912 45.2927 338.884 44.9537ZM335.601 36.1779C335.79 36.2148 335.984 36.2077 336.169 36.1571C336.355 36.1066 336.526 36.014 336.671 35.8863C337.009 35.5858 336.92 35.4398 336.889 35.3846C336.607 35.1352 336.264 34.9678 335.897 34.9003C335.53 34.8328 335.151 34.8675 334.801 35.0009C334.531 35.0896 334.287 35.2471 334.092 35.4586C334.524 35.8307 335.044 36.079 335.601 36.1779Z" fill="#A6CE39"/>
<path d="M511.947 44.1C510.894 43.8644 509.793 44.0136 508.833 44.5221C507.322 45.3509 506.417 47.0127 505.435 48.4626C506.753 48.9074 508.149 49.0617 509.531 48.9154C510.912 48.769 512.249 48.3253 513.455 47.6131L512.196 49.7391C511.605 50.1466 510.941 50.4281 510.242 50.5667C509.544 50.7054 508.826 50.6985 508.131 50.5464C507.076 50.3106 505.973 50.4595 505.011 50.9677C503.498 51.8031 502.6 53.4657 501.618 54.909C502.935 55.3549 504.33 55.5102 505.71 55.3649C507.091 55.2195 508.427 54.7766 509.631 54.0653L508.221 56.4602C507.1 56.6348 504.86 57.1791 503.863 58.8422C502.53 61.0928 503.178 66.0182 503.178 66.0182C503.178 66.0182 507.733 64.3412 509.066 62.0907C509.992 60.5191 509.54 58.3688 509.172 57.2043L510.529 54.9233C510.508 56.3013 510.762 57.6684 511.275 58.9407C511.787 60.2129 512.547 61.3634 513.509 62.3214C514.309 60.7667 515.326 59.2004 515.351 57.409C515.337 56.1586 514.858 54.9624 514.012 54.066C513.298 53.2575 512.864 52.2291 512.776 51.1399L514.359 48.4719C514.342 49.8495 514.597 51.2156 515.109 52.4873C515.622 53.759 516.38 54.9099 517.339 55.8701C518.14 54.3088 519.16 52.716 519.181 50.9577C519.173 49.7044 518.693 48.5043 517.843 47.608C517.13 46.8012 516.696 45.7755 516.606 44.6886L518.189 42.014C518.171 43.3918 518.425 44.7583 518.938 46.0302C519.45 47.3022 520.21 48.4529 521.17 49.4121C521.964 47.85 522.98 46.2903 523.006 44.4989C522.998 43.2472 522.518 42.0487 521.666 41.1558C520.954 40.3472 520.522 39.319 520.437 38.2307L522.013 35.5618C521.995 36.9395 522.25 38.3058 522.762 39.5776C523.275 40.8494 524.034 42.0002 524.993 42.96C525.787 41.3978 526.814 39.8059 526.829 38.0467C526.823 36.7945 526.345 35.5946 525.497 34.6979C524.782 33.8927 524.347 32.8661 524.261 31.7785L525.821 29.1278C525.801 30.5058 526.054 31.8729 526.567 33.1451C527.079 34.4174 527.84 35.5679 528.801 36.5259C529.602 34.9646 530.618 33.4049 530.644 31.6135C530.63 30.3631 530.151 29.1668 529.304 28.2704C528.59 27.462 528.156 26.4336 528.069 25.3444L540.287 4.68841L539.27 4.04988L527.169 24.5062L526.836 24.348C525.774 24.8586 524.581 25.0029 523.435 24.7592C522.382 24.523 521.281 24.6723 520.322 25.1813C518.804 26.0092 522.539 29.689 524.936 28.2781L523.685 30.3983C523.093 30.8055 522.429 31.0867 521.731 31.2254C521.032 31.3641 520.314 31.3573 519.619 31.2056C518.564 30.9664 517.46 31.1155 516.499 31.6269C514.987 32.4557 514.083 34.1175 513.1 35.5673C514.419 36.0122 515.814 36.1665 517.196 36.0202C518.578 35.8738 519.915 35.4301 521.12 34.7179L519.862 36.8438C519.276 37.2474 518.618 37.527 517.927 37.6665C517.236 37.806 516.525 37.8025 515.835 37.6563C514.78 37.4205 513.677 37.5695 512.715 38.0776C511.203 38.913 510.298 40.5748 509.316 42.018C510.634 42.4638 512.029 42.6191 513.411 42.4739C514.792 42.3287 516.13 41.8861 517.335 41.1751L516.078 43.2945C515.478 43.7103 514.803 43.9962 514.092 44.1347C513.382 44.2732 512.652 44.2614 511.947 44.1Z" fill="#F7941D"/>
</svg>
