<svg width="581" height="181" viewBox="0 0 581 181" fill="none" xmlns="http://www.w3.org/2000/svg">
<path d="M239.707 44.1307C239.204 43.4308 239.671 42.6091 238.78 42.1222C237.804 41.7224 236.764 41.5286 235.719 41.5516C233.132 41.3538 230.538 41.4907 227.951 41.2929C226.622 41.194 225.292 41.0419 223.963 40.9353C223.015 40.8593 221.944 40.4484 221.362 41.4222C220.291 43.2178 221.664 46.5197 221.563 48.5054C221.47 51.3788 221.585 54.2555 221.908 57.1101C222.167 59.9175 222.16 63.2803 223.036 65.966C223.503 67.3963 225.285 67.1984 226.356 66.3692C227.671 65.3497 227.858 63.2651 227.894 61.6902C227.951 59.0882 227.369 56.5852 227.067 54.0213C226.83 52.0127 226.104 49.4107 226.65 47.4402C226.909 46.5121 227.125 46.5197 228.088 46.4056C229.046 46.332 230.008 46.3575 230.962 46.4816C231.436 46.5273 233.117 46.4284 233.383 46.8392C233.423 47.3656 233.397 47.8952 233.304 48.4141C233.261 49.2966 233.161 50.1715 233.11 51.0541C232.974 53.58 232.765 56.1059 232.65 58.6622C232.608 60.2745 232.714 61.8874 232.967 63.4781C233.146 64.703 233.11 66.3768 233.757 67.4343C234.404 68.4918 235.56 68.3397 236.559 67.7158C237.012 67.5077 237.397 67.1628 237.665 66.7244C237.933 66.2859 238.074 65.7733 238.068 65.2508C238.224 63.2265 238.277 61.1947 238.226 59.1643C238.334 57.0849 238.542 55.0127 238.851 52.9561C239.081 51.2012 239.278 49.4412 239.441 47.6761C239.534 46.649 240.188 45.0133 239.707 44.1307Z" fill="#872368"/>
<path d="M276.064 50.226C275.176 47.6202 273.629 44.3707 270.725 43.4893C267.424 42.4777 265.869 44.0028 263.632 46.1028C259.03 50.4329 255.999 57.093 258.57 63.1629C260.688 68.1751 269.328 72.49 272.978 66.4431C274.47 63.9676 276.199 61.0246 276.31 58.1123C276.421 55.4529 276.929 52.8011 276.064 50.226ZM264.893 57.959C264.83 56.9703 264.298 55.951 264.362 54.9547C264.472 54.2399 264.7 53.5466 265.036 52.9007C265.745 51.2462 266.656 49.6794 267.749 48.2334C268.076 47.8472 268.481 47.5297 268.94 47.3003C269.398 47.071 269.9 46.9347 270.415 46.8998C271.74 46.7542 271.328 47.1221 272.002 48.1107C272.518 48.8771 273.589 49.3523 274.049 50.1494C274.509 50.9464 274.049 52.3413 273.986 53.2533C273.684 56.6944 272.899 61.4461 270.272 63.9829C268.781 65.4314 267.138 65.9756 265.655 64.1439C264.068 62.1895 265.218 60.1509 264.933 57.9513C264.861 57.4302 265.004 58.802 264.893 57.959Z" fill="#872368"/>
<path d="M325.744 46.7544C325.001 44.3819 323.628 41.1801 321.251 40.1666C320.094 39.6023 318.789 39.4485 317.538 39.729C316.335 40.1513 315.392 41.3951 314.493 42.2628C310.134 46.5011 307.067 53.0121 309.199 59.1546C309.634 60.5283 310.355 61.7864 311.313 62.8398C312.27 63.8933 313.439 64.7164 314.738 65.2509C317.427 66.2798 320.865 66.0572 322.61 63.4312C323.397 62.2565 323.85 60.836 324.526 59.5922C325.322 58.2394 325.828 56.7262 326.011 55.1543C326.182 52.4285 326.568 49.4264 325.744 46.7544ZM315.295 54.5016C315.229 53.5111 314.738 52.4823 314.79 51.4918C314.9 50.7771 315.113 50.0835 315.422 49.4341C316.087 47.7748 316.939 46.2026 317.961 44.7505C318.269 44.366 318.648 44.05 319.077 43.8217C319.506 43.5934 319.975 43.4575 320.457 43.4221C321.704 43.2686 321.311 43.6371 321.942 44.6276C322.417 45.3954 323.427 45.8715 323.85 46.67C324.274 47.4685 323.85 48.8659 323.791 49.7412C323.509 53.1887 322.774 57.9414 320.323 60.4905C318.927 61.9417 317.352 62.4792 316.001 60.6441C314.516 58.6862 315.592 56.6438 315.325 54.4479C315.258 53.9642 315.399 55.3462 315.295 54.5016Z" fill="#872368"/>
<path d="M309.624 40.9858C309.437 38.8662 306.901 39.7735 305.596 39.8517C303.359 39.9846 301.121 39.7813 298.884 39.8126C297.033 39.8887 295.189 40.0951 293.365 40.4305C292.477 40.5634 292.231 40.3523 292.007 41.4394C291.918 42.1219 291.918 42.814 292.007 43.4965C292.134 45.0608 292.679 47.0553 294.513 46.9379C295.304 46.7962 296.075 46.5546 296.811 46.2184C297.104 46.1141 297.406 46.0408 297.713 45.9994C298.608 45.9133 298.548 45.9055 298.75 46.7815C299.115 48.3458 298.884 50.4654 299.026 52.0688C299.443 56.8087 299.846 61.6111 300.674 66.2883C300.688 66.8009 300.805 67.3046 301.017 67.7666C301.949 68.8929 304.157 67.6101 304.746 66.6715C306.476 63.8949 305.343 59.1629 304.746 56.2064C304.276 53.9147 303.791 51.6387 303.389 49.3391C303.239 48.557 302.695 46.2106 303.389 45.4753C304.395 44.482 306.484 45.2798 307.625 45.139C309.474 44.9122 309.795 42.6361 309.661 41.0171C309.571 40.3601 309.72 42.0495 309.624 40.9858Z" fill="#872368"/>
<path d="M256.262 44.0456C255.177 42.2251 254.339 39.9983 252.036 39.6522C250.251 39.3814 248.393 40.1111 246.586 40.1939C245.129 40.2541 243.432 39.6899 243.57 41.6533C243.66 44.2141 243.618 46.778 243.446 49.3342C243.376 53.5718 243.553 57.81 243.978 62.0254C243.992 63.7432 244.101 65.4588 244.306 67.1636C244.656 68.9164 246.608 67.9986 247.818 67.6902C252.597 66.464 249.763 59.6256 249.188 56.4058C250.776 56.2478 251.985 56.7443 253.523 55.9168C254.652 55.3124 255.645 54.4691 256.437 53.4418C258.258 51.0269 257.821 46.5508 256.277 44.0607C256.065 43.7673 257.246 45.633 256.262 44.0456ZM248.342 48.7249C248.058 47.7695 248.08 46.7238 247.876 45.7157C247.643 44.5798 247.249 44.0381 248.546 43.7372C250.696 43.2407 253.355 42.7742 254.484 45.2418C255.519 47.4986 254.856 49.3342 252.86 50.5605C252.255 50.9366 249.559 52.1252 248.896 51.6137C248.233 51.1021 248.568 49.4095 248.342 48.7249Z" fill="#872368"/>
<path d="M293.477 58.0703C292.228 57.8388 292.228 59.7057 291.963 60.5543C291.463 62.1897 290.457 64.1799 289.068 65.1828C287.312 66.4325 285.945 64.7894 285.534 62.992C285.085 61.0248 285.622 58.834 285.658 56.8206C285.739 52.7706 286.283 48.7129 286.357 44.6706C286.357 43.2357 285.622 41.068 287.363 40.474C289.568 39.7026 288.414 42.526 287.995 43.6523C287.503 44.956 286.937 45.9049 288.392 46.468C290.751 47.4014 290.596 44.1152 290.494 42.6109C290.244 38.9003 286.724 36.8638 284.035 39.8029C282.051 41.9783 280.566 45.874 279.817 48.7283C278.977 52.5601 278.728 56.5087 279.082 60.4231C279.42 65.2291 282.447 69.526 287.518 67.8288C289.722 67.1037 292.132 65.4219 293.154 63.2002C293.587 62.2591 295.306 58.5717 293.492 58.0625C292.492 57.8928 294.153 58.2708 293.477 58.0703Z" fill="#872368"/>
<path d="M307.468 81.8906C307.021 79.8687 306.199 77.4003 304.822 75.8312C303.571 74.4047 300.786 73.3503 299.034 74.1876C298.021 74.7943 297.073 75.5094 296.207 76.3211C295.405 76.9598 294.655 77.6651 293.965 78.4298C292.34 80.162 291.012 82.1647 290.038 84.3528C288.262 88.626 288.631 94.1457 291.821 97.6375C293.446 99.4115 295.685 100.46 298.055 100.559C300.581 100.645 302.369 99.3803 303.614 97.2034C304.925 94.9024 306.671 92.7999 306.985 90.0586C307.126 88.5745 307.34 87.0986 307.625 85.6366C307.848 84.3917 307.794 83.1112 307.468 81.8906ZM297.923 96.5025C297.254 96.2071 296.68 95.7249 296.266 95.1109C295.851 94.4968 295.613 93.7756 295.578 93.0294C295.592 92.1603 295.718 91.2968 295.953 90.4617C296.128 89.3776 296.128 88.2712 295.953 87.1871C295.802 86.543 295.802 85.8713 295.953 85.2273C296.155 84.6838 296.393 84.1553 296.666 83.6457C296.94 83.0919 297.242 82.5536 297.572 82.0332C297.977 81.413 298.521 80.8796 298.962 80.2718C299.403 79.664 299.632 78.9756 300.249 78.6097C300.998 78.2248 301.827 78.0292 302.665 78.0391C303.39 78.0019 303.269 78.2623 303.487 78.9508C303.782 79.6907 304.232 80.3553 304.804 80.8982C305.408 81.5866 305.601 81.9402 305.462 82.8457C305.323 83.7512 305.112 84.7063 304.955 85.5994C304.691 87.0332 304.286 88.4358 303.747 89.7857C303.241 91.3683 302.528 92.8727 301.626 94.2574C300.974 95.1443 299.209 96.9491 297.941 96.5025C296.183 95.8575 298.913 96.8499 297.923 96.5025Z" fill="#872368"/>
<path d="M289.072 75.8991C288.71 75.3045 288.198 74.8205 287.592 74.4975C287.322 74.348 287.015 74.2853 286.71 74.3173C286.405 74.3494 286.117 74.4748 285.882 74.6773C285.39 75.3842 285.059 76.1962 284.916 77.0527C284.686 77.952 284.462 78.8513 284.251 79.7568C283.744 81.9151 283.212 84.0982 282.789 86.2751C282.71 86.7411 282.656 87.211 282.626 87.683C282.638 87.7942 282.638 87.9066 282.626 88.0179C282.523 88.328 282.71 88.2039 282.36 88.2722C281.955 88.2693 281.552 88.2362 281.152 88.1729C280.626 88.1729 280.107 88.266 279.581 88.2474C280.034 85.758 280.348 83.2442 280.523 80.7181C280.687 78.6466 281.067 76.3767 280.493 74.3424C280.383 73.8337 280.141 73.3649 279.794 72.9851C279.446 72.6054 279.005 72.3287 278.518 72.1841C277.454 71.843 276.016 71.322 274.893 71.6197C273.944 71.8678 274.403 72.8043 274.343 73.5424C274.246 74.6153 273.956 75.6883 273.817 76.7612C273.503 79.2048 273.153 81.667 272.923 84.1168C272.694 86.5666 272.675 89.0784 272.597 91.5592C272.503 94.0399 272.532 96.5239 272.682 99.0016C272.742 99.8451 272.881 100.862 273.642 101.365C273.968 101.563 274.334 101.683 274.712 101.716C275.09 101.748 275.47 101.691 275.823 101.551C276.586 101.127 277.279 100.583 277.877 99.9382C278.159 99.6625 278.386 99.3341 278.548 98.9706C278.64 98.5514 278.685 98.1227 278.681 97.693C278.862 96.6511 279.224 95.5409 279.116 94.468C279.051 93.6023 279.065 92.7323 279.158 91.8693C279.224 91.0569 279.629 91.0073 280.336 90.846C280.898 90.722 281.973 90.3747 282.245 91.0755C282.4 91.7096 282.441 92.3675 282.366 93.0167C282.366 93.6927 282.294 94.3626 282.239 95.0262C282.057 96.7069 282.178 98.4077 282.596 100.044C282.682 100.516 282.879 100.96 283.17 101.337C283.46 101.714 283.835 102.013 284.263 102.208C284.922 102.438 286.287 102.562 286.813 101.985C287.205 101.551 287.187 100.658 287.236 100.124C287.371 99.1112 287.432 98.0891 287.417 97.0666C287.35 96.1115 287.012 95.206 286.946 94.2385C286.867 93.0973 287.272 92.0058 287.296 90.8708C287.296 90.3933 287.127 89.9405 287.175 89.4691C287.223 88.9978 287.453 88.4272 287.477 87.8814C287.514 87.2386 287.611 86.601 287.767 85.9774C288.021 84.8548 288.371 83.7571 288.625 82.6407C288.786 82.073 288.9 81.4919 288.963 80.9042C288.964 80.4617 288.999 80.0201 289.066 79.5831C289.157 79.1738 289.332 78.8017 289.404 78.3861C289.512 77.9772 289.539 77.5501 289.483 77.1304C289.427 76.7106 289.289 76.3067 289.078 75.9425C288.414 75.0122 289.676 76.6992 289.072 75.8991Z" fill="#872368"/>
<path d="M219.806 79.937C219.146 79.3865 218.392 78.966 217.583 78.6966C216.743 78.4955 215.894 78.3402 215.039 78.2314C215.643 77.2575 216.302 76.3214 217.015 75.4281C217.317 74.9816 217.516 74.4792 217.818 74.0327C218.167 73.6361 218.447 73.1809 218.646 72.6868C218.786 71.6875 218.766 70.6714 218.585 69.6789C218.465 68.4385 218.368 67.0616 217.208 66.4476C215.504 65.5483 213.486 64.9778 211.577 65.4491C210.332 65.7902 209.217 66.5127 208.381 67.5206C208.002 67.9599 207.645 68.4195 207.312 68.8974C207.149 69.1269 206.611 70.175 206.243 70.1006C206.086 69.8835 206.466 69.3315 206.478 69.0773C206.495 68.8172 206.449 68.5568 206.344 68.3197C206.238 68.0825 206.077 67.8761 205.874 67.719C205.033 67.1238 204.062 66.751 203.047 66.6337C202.855 66.5673 202.652 66.5424 202.45 66.5606C202.248 66.5787 202.052 66.6395 201.875 66.7391C201.505 67.0656 201.238 67.4972 201.107 67.9795C200.703 69.1765 200.956 70.0386 201.162 71.2356C201.231 71.5299 201.263 71.8321 201.258 72.1349C201.234 72.3782 201.234 72.6234 201.258 72.8667C201.313 73.2946 201.536 73.6606 201.591 74.0575C201.617 74.622 201.607 75.1875 201.561 75.7506C201.561 76.3398 201.561 76.929 201.561 77.5182C201.464 80.1044 200.914 82.6473 201.186 85.2335C201.337 86.7096 200.908 88.1981 200.679 89.6432C200.439 91.0921 200.314 92.5584 200.304 94.028C200.304 94.9521 200.038 96.4468 200.709 97.1786C201.246 97.7554 202.473 97.6934 203.125 97.4267C204.37 96.9367 204.231 95.318 204.164 94.2078C204.084 93.5904 204.084 92.9647 204.164 92.3472C204.238 91.7443 204.278 91.1376 204.285 90.5301C204.516 87.9543 204.954 85.4027 205.596 82.9016C206.043 81.3077 206.581 79.7385 206.992 78.126C207.366 76.6623 208.158 75.484 208.683 74.0823C208.893 73.4351 209.166 72.8117 209.499 72.2217C209.862 71.6387 210.405 71.2418 210.744 70.6402C211.082 70.0386 211.136 69.8525 211.728 69.5673C212.359 69.1662 213.015 68.8077 213.692 68.4943C213.731 71.1253 213.082 73.7189 211.813 76.0049C211.161 77.2023 210.379 78.3197 209.481 79.3354C209.112 79.7572 208.732 80.1727 208.327 80.5758C207.922 80.979 207.022 81.3635 206.841 81.8658C206.551 82.6411 207.741 83.2117 208.261 83.4659C208.448 83.5841 208.652 83.6739 208.865 83.7326C209.312 83.7884 209.789 83.3171 210.158 83.038C210.671 82.6411 211.154 82.2007 211.638 81.7604C212.121 81.3201 212.677 80.5696 213.36 80.52C214.797 80.4208 215.106 81.5743 215.257 82.7899C215.305 83.1868 215.438 83.5838 215.196 83.8877C214.825 84.2137 214.402 84.4717 213.946 84.6505C212.788 85.3298 211.742 86.1921 210.846 87.2057C209.421 88.7252 207.536 90.8898 207.886 93.1969C208.212 95.349 210.013 96.3351 211.964 96.3723C213.301 96.4011 214.611 95.9784 215.692 95.1691C216.181 94.7846 216.55 94.2636 217.039 93.8791C217.55 93.532 217.998 93.0954 218.362 92.5891C219.129 91.3487 219.455 89.9222 220.217 88.6942C220.877 87.6034 221.29 86.374 221.425 85.0971C221.636 83.0876 221.522 81.1588 219.824 79.9184L219.806 79.937ZM215.263 86.8833C215.263 88.4152 214.58 89.9222 214.054 91.3363C213.674 92.4031 212.846 93.8171 211.74 94.2451C211.599 93.4848 211.532 92.7119 211.541 91.9379C211.66 91.2619 211.959 90.633 212.405 90.1207C213.185 88.9009 214.14 87.8094 215.239 86.8833C215.245 87.9996 214.29 87.6585 215.263 86.8708V86.8833Z" fill="#872368"/>
<path d="M240.679 71.1051C240.474 70.4849 240.075 69.7097 239.362 69.6973C238.552 69.7972 237.774 70.0811 237.085 70.5284C235.625 71.2337 234.411 72.3808 233.605 73.8154C232.247 76.0763 230.662 78.1842 228.874 80.1042C228.941 78.1878 229.364 76.2714 229.255 74.3488C229.182 72.9161 228.161 72.2153 226.838 72.0479C226.209 71.9642 225.575 71.933 224.941 71.9548C224.216 71.9982 224.108 72.4944 224.126 73.127C224.126 73.9767 224.271 74.8263 224.313 75.6822C224.32 76.6642 224.209 77.6434 223.981 78.5972C223.606 80.7679 223.377 82.982 223.032 85.1589C222.766 87.0195 222.555 88.8242 222.355 90.66C222.241 91.7082 222.198 92.7501 222.162 93.8045C222.068 94.5295 222.168 95.267 222.452 95.938C223.087 97.0357 225.165 96.7876 226.113 96.3473C226.257 96.2765 226.397 96.1957 226.53 96.1054C226.672 96.0097 226.829 95.9423 226.995 95.9069C227.218 95.8454 227.418 95.7199 227.574 95.5451C227.729 95.3704 227.832 95.1538 227.871 94.9208C228.095 94.0277 228.27 93.1037 228.476 92.1982C228.584 91.7082 228.735 91.2368 228.862 90.7531C228.941 90.272 229.046 89.7958 229.176 89.3266C229.497 88.477 229.394 87.5777 229.72 86.7218C230.85 88.694 230.983 90.995 231.907 93.054C232.831 95.1131 234.112 97.3954 236.36 97.8544C237.471 98.0839 239.012 98.0838 239.411 96.7504C239.471 96.5644 239.598 95.8201 239.411 95.6216C239.362 95.572 239.151 95.6217 239.078 95.5658C238.792 95.4114 238.537 95.2007 238.329 94.9456C237.502 94.0464 237.332 92.7687 236.764 91.7082C236.109 90.6561 235.603 89.5139 235.26 88.3157C235.156 87.6071 234.996 86.9082 234.783 86.2256C234.541 85.5744 234.722 84.9108 234.414 84.2782C234.121 83.8065 233.884 83.3005 233.707 82.7711C233.664 82.4989 233.558 82.2409 233.4 82.018C233.241 81.7951 233.034 81.6133 232.795 81.4873C233.484 80.3337 234.118 79.1305 234.91 78.0452C235.53 77.0595 236.251 76.1447 237.061 75.3163C237.87 74.6031 238.903 74.1689 239.64 73.3875C239.843 73.1419 240.059 72.9079 240.287 72.6866C240.438 72.5564 240.661 72.4758 240.77 72.3021C240.845 72.1028 240.879 71.8896 240.87 71.676C240.86 71.4625 240.808 71.2534 240.716 71.0617C240.414 70.3175 240.824 71.5393 240.679 71.1051Z" fill="#872368"/>
<path d="M254.091 73.983C253.487 73.4806 251.675 72.9162 251.107 73.6419C250.995 73.8463 250.929 74.0739 250.914 74.308C250.9 74.542 250.936 74.7765 251.022 74.9939C251.075 75.752 250.989 76.5136 250.768 77.2391C250.558 78.8335 249.998 80.3581 249.131 81.6983C248.358 82.8023 247.319 84.1419 246.08 84.7001C246.2 83.9491 246.169 83.1808 245.99 82.4425C245.863 81.6673 245.778 80.923 245.718 80.1416C245.657 79.3601 245.5 78.5911 245.41 77.8158C245.381 77.5414 245.402 77.264 245.47 76.9972C245.509 76.7633 245.617 76.5471 245.778 76.377C247.023 74.6652 242.757 72.1472 241.404 73.276C240.969 73.6295 241.048 74.2807 240.999 74.783C240.927 75.5149 240.77 76.2343 240.703 76.9723C240.611 78.4961 240.669 80.0255 240.878 81.537C241.138 83.7574 242.377 86.7157 244.824 87.1189C246.364 87.3731 247.518 86.1389 248.491 85.097C249.459 83.9224 250.345 82.6789 251.143 81.3758C251.421 84.3438 251.421 87.3324 251.143 90.3005C250.889 92.7813 250.623 95.5722 249.228 97.6685C249.095 97.867 248.624 98.6794 248.352 98.6856C248.08 98.6918 247.947 97.408 247.935 97.1661C247.913 96.5624 248.005 95.9599 248.207 95.3923C248.454 94.8838 248.73 94.3909 249.034 93.9162C249.439 93.048 248.587 91.4354 247.578 92.0556C247.089 92.3595 246.63 92.7565 246.159 93.0852C245.67 93.3817 245.213 93.7287 244.793 94.1209C244.156 94.8764 243.701 95.775 243.464 96.7444C243.313 97.2816 243.259 97.8431 243.307 98.4003C243.361 98.9337 243.265 99.4609 243.307 99.9942C243.365 100.427 243.527 100.837 243.779 101.188C244.032 101.539 244.366 101.82 244.751 102.004C245.863 102.556 246.914 102.004 248.056 101.923C249.198 101.842 249.983 100.956 250.66 100.007C251.375 99.0563 252.007 98.0436 252.551 96.98C253.653 94.6299 254.252 92.0647 254.309 89.457C254.378 88.858 254.48 88.2637 254.617 87.677C254.619 87.3615 254.597 87.0463 254.55 86.7343C254.55 86.449 254.665 86.1761 254.677 85.8908C254.707 85.19 254.49 84.4396 254.677 83.7512C254.816 83.1103 254.86 82.4519 254.81 81.7975C254.81 81.0657 255.009 80.3462 255.064 79.6206C255.101 78.8315 255.177 78.0448 255.293 77.2638C255.408 76.6002 255.734 76.0979 255.42 75.4032C255.1 74.8282 254.656 74.336 254.121 73.9644C253.602 73.555 254.611 74.3861 254.091 73.983Z" fill="#872368"/>
<path d="M270.754 95.8077C268.887 94.9208 268.066 97.2837 266.942 98.2885C266.42 98.8634 265.706 99.2136 264.942 99.2684C264.036 99.2312 263.444 98.3443 263.13 97.5628C262.441 95.8821 262.882 93.9905 263.196 92.2663C263.571 90.201 263.764 88.08 264.06 86.0023C264.205 84.9665 264.338 83.9432 264.519 82.9013C264.7 81.8593 264.719 80.6747 264.972 79.5832C265.205 78.5793 265.325 77.5513 265.329 76.5194C265.262 75.8347 265.363 75.1436 265.625 74.5099C265.885 74.1068 266.99 73.561 267.437 73.7595C267.712 73.9365 267.924 74.1997 268.041 74.5099C268.156 75.0061 267.763 75.6139 267.54 76.017C267.194 76.5576 266.922 77.1439 266.73 77.7598C266.604 78.2807 266.38 79.1863 266.682 79.6824C266.937 79.9751 267.281 80.1709 267.658 80.2384C268.035 80.3059 268.424 80.2412 268.76 80.0545C269.449 79.5832 269.576 78.6963 269.618 77.921C269.703 76.3953 269.999 74.634 269.117 73.2819C268.676 72.625 268.051 72.1216 267.325 71.839C266.598 71.5564 265.805 71.5081 265.051 71.7004C263.734 72.0973 262.719 73.2137 261.921 74.3053C261.169 75.3922 260.485 76.5275 259.873 77.704C258.766 79.5849 257.951 81.6312 257.457 83.7695C256.712 87.0547 256.317 90.4131 256.279 93.7858C256.22 95.663 256.713 97.5148 257.692 99.1009C258.312 99.9601 259.115 100.663 260.039 101.155C260.964 101.647 261.986 101.916 263.027 101.941C265.298 101.974 267.502 101.149 269.219 99.6219C269.745 99.1443 271.817 96.2914 270.754 95.7828C270.277 95.5844 271.165 96.0061 270.754 95.8077Z" fill="#872368"/>
<path d="M349.868 140.808C346.066 142.709 341.686 143.539 337.661 144.496C331.37 145.986 325.155 147.628 318.799 148.839C315.931 149.385 313.046 149.843 310.209 150.543C307.806 151.136 305.411 151.815 302.951 152.128C300.674 152.427 298.264 152.461 296.247 151.152C294.363 149.928 292.78 148.311 291.021 146.919C291.598 144.405 292.269 142.811 294.454 140.665C296.996 138.167 293.688 135.842 295.234 132.519C295.821 131.262 298.143 130.876 299.078 129.876C302.26 126.481 299.87 125.024 300.785 122.522C302.206 118.644 305.934 116.945 310.028 116.23C311.794 115.907 314.429 117.334 315.809 116.387C317.639 115.126 318.181 113.866 320.596 113.686C323.47 113.469 325.668 114.263 327.041 116.428C330.826 113.576 335.486 112.679 338.577 116.385C339.844 117.906 340.197 119.882 341.188 121.552C342.319 123.455 344.5 123.577 346.436 124.026C350.03 124.863 356.158 129.961 356.407 134.086C356.628 137.968 351.145 137.549 349.868 140.808Z" fill="#50B848"/>
<path d="M305.833 134.496C311.749 133.62 309.14 125.279 312.409 123.64C316.047 121.797 323.871 123.674 325.877 126.594C326.065 126.865 324.988 127.98 324.793 127.734C323.451 126.222 321.03 124.912 319.115 124.177C315.956 122.955 311.002 124.773 311.136 128.914C311.194 130.74 310.241 132.903 308.951 134.356C307.492 136.004 304.906 135.007 303.033 135.621C301.903 135.969 300.911 136.681 300.199 137.653C299.487 138.624 299.093 139.807 299.072 141.031C299.057 143.513 300.595 145.067 302.416 146.4C302.46 146.436 302.436 146.518 302.374 146.506C299.439 145.867 297.232 142.129 297.973 139.239C298.944 135.428 302.593 134.975 305.833 134.496Z" fill="#A6CE39"/>
<path d="M303.726 141.531C303.172 141.652 302.634 141.774 302.079 141.908C302.412 140.902 302.953 139.984 303.665 139.22C304.954 137.807 308.001 137.735 309.73 137.159C312.174 136.347 313.486 135.129 313.785 132.43C313.827 131.641 313.91 130.854 314.034 130.074C314.663 127.213 317.766 125.726 319.879 128.097C320.105 128.349 319.787 128.796 319.499 128.578C318.383 127.739 315.238 129.12 314.802 130.271C314.543 130.946 314.621 131.748 314.542 132.46C314.502 133.277 314.345 134.082 314.076 134.848C313.164 137.008 311.089 137.526 309.099 138.169C306.817 138.909 304.667 139.837 303.726 141.531Z" fill="#A6CE39"/>
<path d="M316.704 121.409C318.059 118.266 320.24 115.139 323.292 117.554C324.608 118.58 325.01 120.044 326.769 120.302C328.741 120.588 329.086 119.328 330.705 118.687C331.213 118.497 331.754 118.418 332.294 118.453C332.835 118.489 333.363 118.64 333.847 118.895C333.761 119.115 333.679 119.338 333.586 119.563C333.169 119.393 332.724 119.312 332.277 119.323C331.831 119.334 331.391 119.438 330.984 119.628C330.191 119.993 329.426 120.419 328.695 120.903C327.865 121.384 327.151 121.97 326.205 121.688C325.332 121.436 324.669 120.338 324.014 119.736C323.567 119.343 322.866 118.44 322.259 118.171C319.29 116.847 318.153 119.571 317.27 121.612C317.121 121.992 316.543 121.78 316.704 121.409Z" fill="#A6CE39"/>
<path d="M302.269 134.019C301.849 133.46 301.582 132.796 301.494 132.095C301.407 131.395 301.504 130.684 301.773 130.038C302.088 129.29 302.645 128.936 303.14 128.332C304.451 126.719 304.286 124.356 304.76 122.519C305.915 118.165 311.777 118.805 315.16 119.523C315.365 119.568 315.535 120.317 314.542 120.303C312.909 120.285 311.246 119.907 309.608 120.207C306.465 120.783 305.781 122.968 305.374 125.82C305.29 126.605 305.002 127.351 304.541 127.977C304.362 128.226 304.075 128.38 303.899 128.624C303.017 129.822 302.025 132.169 302.767 133.692C302.928 134 302.473 134.315 302.269 134.019Z" fill="#A6CE39"/>
<path d="M363.252 127.677C370.984 127.677 377.252 121.295 377.252 113.423C377.252 105.55 370.984 99.168 363.252 99.168C355.52 99.168 349.252 105.55 349.252 113.423C349.252 121.295 355.52 127.677 363.252 127.677Z" fill="#F7941D"/>
<path d="M375.297 103.139C373.066 100.579 369.965 98.9762 366.618 98.6534C366.781 97.436 367.193 96.2672 367.829 95.2231C368.465 94.1791 369.31 93.2833 370.309 92.5942C370.337 92.5715 370.359 92.5427 370.375 92.5099C370.39 92.4771 370.398 92.4412 370.398 92.4049C370.398 92.3685 370.39 92.3326 370.375 92.2999C370.359 92.2671 370.337 92.2383 370.309 92.2155C368.983 91.0212 367.191 91.8368 366.361 93.1866C365.426 94.8041 365.088 96.7079 365.407 98.5563C365.255 98.5563 365.102 98.5563 364.949 98.5563C364.896 98.5409 364.84 98.5409 364.787 98.5563C363.665 97.9692 362.424 97.6564 361.163 97.643C359.901 97.6295 358.654 97.9156 357.52 98.4786C357.467 98.4981 357.421 98.5325 357.386 98.578C357.352 98.6234 357.331 98.6779 357.326 98.735C357.321 98.7921 357.332 98.8495 357.358 98.9004C357.384 98.9514 357.424 98.9937 357.473 99.0224C359.7 100.427 362.309 101.07 364.921 100.858C363.657 103.294 363.377 106.137 364.139 108.781C364.156 108.832 364.186 108.878 364.226 108.913C364.266 108.949 364.314 108.973 364.366 108.984C364.418 108.995 364.472 108.992 364.523 108.975C364.573 108.958 364.618 108.928 364.654 108.888C365.595 107.898 366.343 106.735 366.857 105.46C367.068 104.938 367.237 104.399 367.362 103.848C367.591 102.8 367.467 102.12 368.688 102.664C370.91 103.635 372.693 104.285 375.163 103.635C375.208 103.615 375.247 103.585 375.279 103.548C375.31 103.511 375.333 103.467 375.346 103.42C375.359 103.372 375.361 103.322 375.353 103.274C375.344 103.225 375.325 103.179 375.297 103.139Z" fill="#009444"/>
<path d="M112.588 93.2343C113.521 92.0107 114 90.4915 113.942 88.9437C113.826 86.4971 112.323 84.3431 111.128 82.2251C109.786 83.6568 108.755 85.3604 108.102 87.2249C107.45 89.0894 107.191 91.073 107.342 93.0462L105.479 90.1741C105.335 89.167 105.391 88.1408 105.643 87.1561C105.896 86.1714 106.339 85.2481 106.948 84.441C107.879 83.2164 108.358 81.6979 108.302 80.1504C108.189 77.7119 106.686 75.5579 105.499 73.4367C104.156 74.8687 103.124 76.5726 102.471 78.4376C101.817 80.3026 101.556 82.2868 101.706 84.2611L99.6091 81.023C100.069 79.4708 100.756 76.2436 99.2995 73.9959C97.3261 70.9336 90.87 68.8493 90.87 68.8493C90.87 68.8493 90.1768 75.6871 92.1645 78.7625C93.5422 80.9011 96.4589 81.5898 98.1089 81.8107L100.106 84.9104C98.4225 84.0665 96.5881 83.5801 94.7141 83.4807C92.8402 83.3814 90.966 83.6712 89.2055 84.3325C90.6415 86.2885 91.985 88.5532 94.1454 89.6195C95.6845 90.3947 97.4598 90.5283 99.0941 89.992C100.517 89.5505 102.043 89.5987 103.436 90.129L105.756 93.7556C104.071 92.9116 102.236 92.4254 100.36 92.3266C98.4849 92.2278 96.6095 92.5185 94.848 93.1809C96.2951 95.1418 97.6354 97.3984 99.799 98.4728C101.346 99.2034 103.111 99.2996 104.726 98.7415C106.149 98.3007 107.675 98.3489 109.068 98.8786L111.388 102.505C109.703 101.664 107.867 101.181 105.993 101.083C104.118 100.986 102.244 101.277 100.483 101.939C101.927 103.891 103.267 106.148 105.423 107.226C106.972 107.96 108.741 108.055 110.358 107.491C111.778 107.05 113.302 107.099 114.692 107.631L117.015 111.266C115.33 110.422 113.494 109.937 111.619 109.838C109.744 109.739 107.869 110.029 106.107 110.691C107.551 112.644 108.894 114.909 111.047 115.978C112.596 116.713 114.365 116.808 115.982 116.244C117.402 115.803 118.926 115.853 120.316 116.384L122.636 120.011C120.953 119.166 119.119 118.68 117.245 118.582C115.371 118.484 113.498 118.776 111.739 119.441C113.175 121.397 114.523 123.65 116.679 124.728C118.226 125.458 119.99 125.555 121.606 124.996C123.028 124.55 124.556 124.598 125.948 125.134L144.028 153.139L145.425 152.205L128.938 126.655L127.339 124.183C127.408 122.674 127.964 121.23 128.92 120.074C130.062 118.781 130.672 117.091 130.623 115.353C130.499 112.91 128.991 110.767 127.797 108.649C126.509 110.028 125.51 111.659 124.86 113.443C124.21 115.227 123.923 117.127 124.015 119.028L122.369 116.481C122.224 115.474 122.279 114.447 122.532 113.462C122.784 112.477 123.229 111.554 123.839 110.748C124.767 109.524 125.244 108.006 125.185 106.46C125.072 104.022 123.569 101.868 122.382 99.7468C121.039 101.179 120.007 102.883 119.353 104.748C118.7 106.613 118.439 108.597 118.588 110.571L116.73 107.688C116.586 106.682 116.642 105.656 116.895 104.673C117.148 103.689 117.592 102.768 118.202 101.963C119.134 100.74 119.611 99.2214 119.548 97.6753C119.444 95.2335 117.94 93.0796 116.742 90.9535C115.401 92.3882 114.37 94.0938 113.717 95.9599C113.064 97.8259 112.804 99.8107 112.952 101.786L111.093 98.9025C110.962 97.904 111.026 96.8889 111.283 95.9159C111.539 94.9429 111.983 94.0315 112.588 93.2343Z" fill="#F7941D"/>
<path d="M354.391 160.758C365.794 166.084 389.107 170.152 396.205 155.492C403.43 140.55 388.668 133.557 377.531 130.353C370.805 128.449 364.067 127.014 357.871 123.589C349.842 119.148 343.698 105.341 334.405 104.508C332.698 103.522 324.267 102.294 322.333 111.448C322.06 131.91 336.625 152.449 354.391 160.758Z" fill="#872368"/>
<path d="M325.829 103.916C324.263 102.286 323.322 100.139 323.176 97.8633C323.049 95.8939 324.3 93.8114 326.44 94.0857C326.483 94.0908 326.525 94.106 326.561 94.1302C326.597 94.1544 326.628 94.1869 326.65 94.2251C326.671 94.2633 326.684 94.3061 326.687 94.3502C326.69 94.3944 326.683 94.4386 326.666 94.4793C326.129 95.8714 325.888 97.3633 325.958 98.8571C326.027 100.351 326.406 101.813 327.07 103.147C330.63 101.137 340.623 104.212 340.425 104.455C338.804 106.415 335.661 104.896 333.541 105.442C336.235 105.962 338.751 109.018 339.195 109.8C339.85 110.926 335.09 109.281 331.674 108.629C331.811 109.041 331.924 109.461 332.013 109.887C332.372 111.529 332.419 113.226 332.154 114.886C332.147 114.952 332.123 115.015 332.085 115.068C332.046 115.121 331.994 115.162 331.934 115.187C331.874 115.213 331.809 115.221 331.745 115.212C331.68 115.202 331.62 115.175 331.569 115.134C329.814 113.669 328.476 111.754 327.692 109.585C327.156 111.705 326.452 113.853 325.649 114.077C324.574 114.389 324.558 110.652 324.778 108.16C322.794 109.209 320.143 114.258 320.384 111.894C320.647 108.754 325.681 104.02 325.829 103.916Z" fill="#009444"/>
<path d="M175.934 43.4538C175.315 49.5286 184.773 64.6497 186.305 62.8827C189.959 58.6602 185.23 52.3459 185.285 50.9569C187.81 53.2616 196.92 61.4725 196.811 57.5336C196.709 54.0177 192.313 48.4567 190.148 47.1814C191.101 46.8293 198.614 52.3007 198.484 46.4255C198.393 42.2299 181.616 37.6556 178.499 39.1832C178.089 39.3787 176.013 42.6986 175.934 43.4538Z" fill="#009444"/>
<path d="M124.413 17.5184C129.4 21.8975 134.387 26.2766 139.322 30.7164C144.344 35.0718 149.669 39.052 155.255 42.6258C163.042 47.7951 173.831 52.889 178.584 41.953C183.457 30.781 168.564 25.0201 161.017 21.7196C155.219 19.1507 149.239 17.0305 143.127 15.3767C138.058 13.984 132.634 12.7619 127.336 13.071C127.156 13.0126 119.978 12.3609 119.959 12.3659C119.397 12.4697 123.528 16.7405 124.413 17.5184Z" fill="#F7941D"/>
<path d="M173.012 32.5196C173.012 32.5196 170.147 38.5997 168.876 38.7511C167.605 38.9025 173.212 29.8386 173.012 32.5196Z" fill="#872368"/>
<path d="M162.276 35.4043C162.276 35.4043 159.418 41.488 158.147 41.6394C156.875 41.7907 162.486 32.7207 162.276 35.4043Z" fill="#872368"/>
<path d="M153.562 25.7264C153.103 27.4565 150.766 31.1538 149.766 31.2768C148.766 31.3997 151.717 27.4382 152.759 25.3416C153.065 24.6902 153.708 25.0955 153.562 25.7264Z" fill="#872368"/>
<path d="M142.159 23.7409C141.7 25.471 139.363 29.1682 138.357 29.2876C137.479 29.3841 140.308 25.449 141.357 23.3561C141.675 22.712 142.317 23.1173 142.159 23.7409Z" fill="#872368"/>
<path d="M136.584 15.7779C136.129 17.5018 134.484 20.0118 133.484 20.1348C132.484 20.2578 134.732 17.502 135.785 15.3868C136.145 14.7426 136.73 15.1469 136.584 15.7779Z" fill="#872368"/>
<path d="M389.551 69.2363C389.551 69.2363 385.551 94.3854 406.821 94.3752L407.911 93.6014C407.911 93.6014 416.731 74.4087 389.551 69.2363Z" fill="#009444"/>
<path d="M391.661 78.4712C392.441 79.0108 395.291 79.4894 396.661 79.6828L399.081 83.277C396.241 81.8006 392.081 82.9308 392.081 82.9308C392.961 83.6334 397.881 84.0508 399.681 84.173L402.071 87.7264C399.822 87.4902 397.56 87.4086 395.301 87.4821C396.346 88.1755 397.538 88.608 398.779 88.7442C400.019 88.8804 401.274 88.7166 402.441 88.2661L408.981 97.9795C409.048 98.0798 409.136 98.1634 409.24 98.2244C409.343 98.2853 409.458 98.322 409.577 98.3318C409.696 98.3415 409.815 98.3241 409.927 98.2808C410.038 98.2375 410.138 98.1694 410.221 98.0814C410.348 97.9476 410.426 97.7737 410.442 97.5885C410.458 97.4032 410.412 97.2179 410.311 97.0632C409.361 95.6683 406.711 91.7585 403.711 87.4923C404.537 86.5305 405.13 85.3843 405.441 84.1461C405.752 82.908 405.772 81.6127 405.501 80.365C404.637 82.5118 403.919 84.7162 403.351 86.9628L400.821 83.5315C401.291 81.8923 402.711 76.8217 402.351 75.7221C402.351 75.7221 399.721 79.4792 400.271 82.7679C399.391 81.5563 398.521 80.3752 397.701 79.2857C397.931 78.2676 398.631 74.8159 398.381 73.7977C397.775 74.4419 397.352 75.2418 397.158 76.1116C396.965 76.9815 397.007 77.8886 397.281 78.7359C394.741 75.3963 392.681 72.973 392.061 72.9832L395.921 78.7054C395.277 78.3338 394.557 78.1194 393.818 78.0788C393.079 78.0381 392.34 78.1724 391.661 78.4712Z" fill="#50B848"/>
<path d="M465.142 125.165C465.142 125.165 433.992 131.376 436.702 98.5804L438.802 99.0793C438.802 99.0793 471.942 84.896 465.142 125.165Z" fill="#A6CE39"/>
<path d="M433.072 92.6545C433.072 92.6545 438.892 98.0102 445.382 104.241C446.823 103.267 448.47 102.651 450.188 102.446C451.907 102.241 453.648 102.451 455.272 103.06C452.222 103.867 449.121 104.462 445.992 104.842C447.382 106.176 448.792 107.54 450.172 108.915C452.452 108.548 459.532 107.52 460.952 108.223C460.952 108.223 455.412 111.185 451.092 109.811C452.562 111.267 453.982 112.692 455.302 114.047C456.782 113.924 461.472 113.578 462.802 114.108C461.825 114.834 460.672 115.276 459.467 115.385C458.262 115.494 457.05 115.268 455.962 114.729C459.962 118.883 462.852 122.202 462.722 123.057L455.722 116.633C456.105 117.605 456.261 118.656 456.176 119.7C456.091 120.745 455.768 121.755 455.232 122.65C454.662 121.469 454.552 117.396 454.532 115.523L450.142 111.45C451.612 115.686 449.312 121.255 449.312 121.255C448.522 119.911 448.882 112.977 449.042 110.442L444.722 106.451C444.616 109.632 444.302 112.802 443.782 115.94C443.05 114.354 442.694 112.614 442.742 110.861C442.791 109.109 443.243 107.392 444.062 105.85L430.252 94.2531L433.072 92.6545Z" fill="#50B848"/>
<path d="M39.9973 81.7447C27.4606 82.2264 4.39106 76.9087 3.3383 60.5999C2.27377 43.9798 18.5404 43.2658 30.0345 44.6414C36.9636 45.5007 43.7288 46.798 50.7402 46.0454C59.8274 45.0675 70.6889 34.7019 79.5892 37.5501C81.5366 37.3038 89.7882 39.452 88.1368 48.663C80.7054 67.6766 59.5338 80.9844 39.9973 81.7447Z" fill="#A6CE39"/>
<path d="M87.0181 40.3418C89.0774 39.4456 90.7534 37.8281 91.7423 35.7822C92.5998 34.0121 92.2259 31.6008 90.1452 31.021C90.1034 31.0089 90.0595 31.0069 90.0168 31.0151C89.9741 31.0232 89.9338 31.0415 89.8993 31.0682C89.8647 31.095 89.8367 31.1296 89.8175 31.1692C89.7983 31.2089 89.7884 31.2525 89.7886 31.2968C89.7615 32.792 89.4243 34.2644 88.799 35.6176C88.1737 36.9707 87.2746 38.1741 86.1605 39.1485C83.6257 35.9048 73.2371 34.8555 73.329 35.1577C74.0907 37.5997 77.5655 37.4194 79.3194 38.7495C76.6346 38.1813 73.1619 40.0261 72.4585 40.5752C71.4304 41.3609 76.4457 41.6938 79.8469 42.4216C79.5657 42.7491 79.3035 43.093 79.0616 43.4516C78.1135 44.8295 77.4321 46.3787 77.0538 48.0165C77.0354 48.0797 77.034 48.1469 77.0499 48.2108C77.0658 48.2748 77.0983 48.3333 77.1441 48.38C77.1899 48.4267 77.2472 48.4599 77.31 48.4762C77.3728 48.4925 77.4388 48.4913 77.5009 48.4726C79.6727 47.8026 81.6291 46.5537 83.1675 44.8552C82.8668 47.0231 82.7109 49.2814 83.3684 49.8011C84.245 50.5081 85.663 47.0614 86.395 44.6727C87.8347 46.4147 88.3879 52.1121 89.0534 49.8339C89.9897 46.8297 87.1162 40.4958 87.0181 40.3418Z" fill="#009444"/>
<path d="M142.454 66.5885C143.077 67.7153 143.346 69.0097 143.223 70.2967C143.1 71.5838 142.593 72.8015 141.768 73.7852C140.664 75.0932 139.164 75.8507 137.019 74.4363C133.41 72.0689 136.31 71.1161 132.782 68.8612C129.254 66.6063 128.225 68.6304 124.906 67.8077C121.587 66.9851 120.337 59.7706 127.463 59.1314C133.346 58.6047 139.164 60.753 142.454 66.5885Z" fill="#872368"/>
<path d="M127.934 67.0976C127.934 67.0976 130.463 64.8841 132.811 66.8135C135.159 68.7429 134.235 70.0213 134.235 70.0213C132.499 68.818 130.458 68.1539 128.358 68.1096C127.638 68.1096 127.934 67.0976 127.934 67.0976Z" fill="#B685A1"/>
<path d="M478.649 33.7275C479.605 33.2727 480.675 33.1276 481.714 33.3119C482.754 33.4961 483.712 34.0008 484.461 34.7577C485.456 35.7713 485.978 37.0837 484.692 38.8039C482.54 41.6996 481.947 39.1935 479.891 42.0277C477.835 44.862 479.417 45.8567 478.539 48.6044C477.662 51.352 471.714 51.9531 471.641 45.9027C471.582 40.9084 473.695 36.136 478.649 33.7275Z" fill="#872368"/>
<path d="M478.152 46.0057C478.152 46.0057 476.51 43.7342 478.227 41.8748C479.944 40.0153 480.926 40.8751 480.926 40.8751C479.838 42.2634 479.17 43.9436 479.002 45.7114C478.957 46.3193 478.152 46.0057 478.152 46.0057Z" fill="#B685A1"/>
<path d="M145.075 100.665C144.789 101.148 144.562 101.665 144.4 102.203C144.003 103.507 143.987 104.898 144.355 106.208C144.722 107.518 145.458 108.69 146.471 109.581C147.485 110.473 148.733 111.044 150.063 111.227C151.393 111.41 152.748 111.196 153.963 110.611C154.407 111.337 155.095 111.875 155.901 112.124C156.165 112.198 156.436 112.243 156.709 112.259C157.194 113.114 157.851 113.855 158.638 114.434C159.425 115.013 160.324 115.417 161.276 115.618C162.229 115.82 163.213 115.814 164.164 115.603C165.116 115.392 166.013 114.979 166.798 114.392C167.249 114.772 167.785 115.032 168.36 115.15C168.934 115.268 169.529 115.24 170.091 115.068C170.653 114.896 171.165 114.586 171.581 114.165C171.998 113.744 172.305 113.226 172.477 112.656C172.638 112.11 172.669 111.533 172.565 110.974C174.347 110.655 175.937 109.64 176.993 108.147C178.05 106.654 178.49 104.801 178.217 102.987C178.699 102.752 179.122 102.41 179.456 101.987C179.791 101.564 180.027 101.07 180.147 100.542C180.268 100.014 180.27 99.4651 180.153 98.937C180.036 98.4089 179.803 97.9147 179.472 97.4912C179.141 97.0677 178.719 96.7257 178.24 96.4907C177.76 96.2557 177.233 96.1336 176.7 96.1337C176.166 96.1337 175.639 96.2558 175.158 96.4909C174.676 96.7261 174.253 97.0681 173.919 97.4917C173.748 97.4252 173.576 97.3588 173.401 97.3015C172.043 96.8793 170.589 96.8951 169.238 97.3467C163.97 93.8807 163.805 79.5307 163.805 79.5307L156.752 81.3142C158.452 88.9021 156.89 96.148 154.081 97.9334C153.756 97.774 153.42 97.637 153.077 97.5234C152.447 97.3367 151.796 97.2366 151.14 97.2257C150.988 96.7062 150.724 96.2284 150.366 95.8276C150.007 95.4269 149.564 95.1134 149.07 94.9105C148.575 94.7076 148.042 94.6204 147.509 94.6555C146.976 94.6906 146.457 94.847 145.991 95.1132C145.525 95.3794 145.124 95.7484 144.817 96.193C144.51 96.6376 144.305 97.1464 144.218 97.6815C144.131 98.2166 144.164 98.7644 144.313 99.2842C144.463 99.804 144.726 100.283 145.084 100.684L145.075 100.665ZM165.436 100.374C165.135 100.876 164.895 101.414 164.722 101.975C164.099 101.85 163.467 101.781 162.832 101.77C163.197 98.5642 163.179 94.5898 163.179 94.5898C163.502 96.6644 164.273 98.6395 165.436 100.374ZM160.011 95.8467L159.214 102.289C159.023 101.873 158.723 101.518 158.347 101.263C157.971 101.008 157.533 100.862 157.08 100.842C158.171 99.248 159.15 97.5789 160.011 95.8467Z" fill="#A6CE39"/>
<path d="M495.694 100.18C495.99 100.232 496.29 100.247 496.589 100.223C497.313 100.17 498.006 99.9028 498.582 99.4552C499.158 99.0075 499.593 98.3984 499.834 97.7019C500.075 97.0055 500.112 96.2519 499.94 95.5328C499.767 94.8137 499.393 94.1603 498.864 93.6521C499.136 93.2807 499.266 92.8211 499.23 92.3581C499.215 92.208 499.183 92.06 499.137 91.9165C499.465 91.4987 499.702 91.0147 499.834 90.4963C499.965 89.9778 499.987 89.4365 499.899 88.9078C499.81 88.3791 499.613 87.8748 499.321 87.428C499.028 86.9811 498.646 86.6018 498.201 86.3148C498.3 86.0084 498.323 85.6816 498.267 85.3633C498.212 85.0451 498.081 84.7453 497.884 84.4907C497.688 84.2361 497.434 84.0345 497.143 83.904C496.852 83.7734 496.535 83.7179 496.218 83.7424C495.916 83.7672 495.625 83.8658 495.368 84.0296C494.858 83.1777 494.042 82.5619 493.093 82.3143C492.145 82.0667 491.14 82.2072 490.296 82.7056C490.084 82.5047 489.831 82.3547 489.556 82.2668C489.28 82.1789 488.989 82.1552 488.703 82.1977C488.418 82.2401 488.146 82.3475 487.908 82.5118C487.669 82.6762 487.47 82.8933 487.326 83.1471C487.182 83.4008 487.096 83.6847 487.074 83.9775C487.052 84.2704 487.096 84.5647 487.201 84.8386C487.307 85.1125 487.471 85.359 487.683 85.5597C487.895 85.7604 488.148 85.9102 488.423 85.9979C488.424 86.0992 488.425 86.2004 488.432 86.3016C488.491 87.082 488.786 87.8257 489.277 88.4303C488.601 91.8197 481.526 94.7397 481.526 94.7397L483.803 98.0083C487.225 95.6367 491.123 95.007 492.562 96.0962C492.547 96.2947 492.546 96.494 492.557 96.6929C492.589 97.053 492.668 97.4073 492.792 97.7463C492.565 97.9266 492.381 98.1568 492.253 98.42C492.125 98.6831 492.058 98.9724 492.055 99.2664C492.052 99.5604 492.114 99.8515 492.237 100.118C492.36 100.385 492.54 100.62 492.763 100.807C492.987 100.994 493.249 101.127 493.53 101.197C493.811 101.266 494.103 101.271 494.386 101.21C494.668 101.149 494.933 101.024 495.161 100.844C495.389 100.665 495.574 100.435 495.702 100.172L495.694 100.18ZM491.527 89.7839C491.835 89.8396 492.149 89.8565 492.461 89.8345C492.522 90.1788 492.613 90.517 492.733 90.8451C491.073 91.2915 489.108 92.0858 489.108 92.0858C490.072 91.5101 490.898 90.724 491.527 89.7839ZM490.357 93.4638L493.705 92.6002C493.536 92.7806 493.42 93.0047 493.368 93.2482C493.316 93.4917 493.33 93.7454 493.41 93.9817C492.405 93.7367 491.385 93.5637 490.357 93.4638Z" fill="#A6CE39"/>
<path d="M438.345 14.4655C430.33 13.2244 422.844 18.8341 421.625 26.9952C420.406 35.1563 425.915 42.7784 433.931 44.0195C441.946 45.2607 449.432 39.651 450.651 31.4898C451.87 23.3287 446.36 15.7067 438.345 14.4655Z" fill="#ED1C24"/>
<path d="M422.061 37.9589C423.977 40.971 426.944 43.1309 430.363 44.0026C430.007 45.2405 429.399 46.388 428.577 47.37C427.756 48.352 426.741 49.1466 425.597 49.7015C425.565 49.7196 425.537 49.7449 425.516 49.7756C425.495 49.8063 425.482 49.8414 425.476 49.8784C425.471 49.9153 425.473 49.9531 425.485 49.9887C425.496 50.0244 425.515 50.0569 425.54 50.0839C426.728 51.5449 428.713 50.9872 429.783 49.7111C431.003 48.1847 431.649 46.2652 431.603 44.2977L432.078 44.3712C432.139 44.3726 432.199 44.3609 432.255 44.3368C433.326 45.1277 434.564 45.6524 435.87 45.869C437.176 46.0855 438.514 45.9879 439.776 45.5839C439.834 45.5743 439.888 45.5476 439.932 45.5069C439.975 45.4663 440.006 45.4136 440.02 45.3553C440.034 45.2971 440.031 45.236 440.011 45.1796C439.991 45.1231 439.955 45.0738 439.908 45.0378C437.817 43.2247 435.211 42.1393 432.471 41.9398C434.158 39.6161 434.889 36.7147 434.509 33.8514C434.5 33.7951 434.477 33.7421 434.442 33.6977C434.407 33.6534 434.361 33.6192 434.308 33.5986C434.256 33.578 434.2 33.5717 434.144 33.5804C434.089 33.589 434.037 33.6123 433.993 33.6479C432.864 34.523 431.909 35.6089 431.179 36.8476C430.878 37.3587 430.619 37.8937 430.403 38.4475C430.005 39.4878 430.029 40.2123 428.846 39.4627C426.693 38.0994 424.946 37.1287 422.283 37.4167C422.226 37.4261 422.173 37.4502 422.127 37.4866C422.082 37.523 422.046 37.5706 422.024 37.6249C422.002 37.6792 421.994 37.7383 422 37.7968C422.006 37.8552 422.027 37.911 422.061 37.9589Z" fill="#009444"/>
<path d="M184.209 117.549C183.372 118.738 182.786 120.089 182.485 121.518C182.183 122.948 182.175 124.425 182.459 125.858C183.962 125.837 185.44 125.458 186.774 124.751C188.108 124.044 189.26 123.028 190.139 121.785C192.699 117.916 186.899 113.802 184.209 117.549Z" fill="#F7941D"/>
<path d="M226.115 40.8482C226.956 40.2198 227.661 39.4218 228.186 38.5039C228.711 37.5861 229.045 36.5679 229.167 35.513C228.124 35.1812 227.019 35.1031 225.941 35.2848C224.863 35.4665 223.842 35.903 222.959 36.5592C220.333 38.6424 223.426 42.8171 226.115 40.8482Z" fill="#F7941D"/>
<path d="M451.115 66.3028C451.956 65.6744 452.661 64.8764 453.186 63.9585C453.711 63.0406 454.045 62.0225 454.167 60.9676C453.124 60.6358 452.019 60.5577 450.941 60.7394C449.863 60.9211 448.842 61.3575 447.959 62.0138C445.333 64.097 448.426 68.2717 451.115 66.3028Z" fill="#F7941D"/>
<path d="M574.379 45.6356C575.194 46.2988 576.134 46.7841 577.141 47.0612C578.149 47.3384 579.201 47.4014 580.233 47.2465C580.276 46.1348 580.062 45.0283 579.609 44.0159C579.156 43.0035 578.477 42.1132 577.625 41.4167C574.965 39.3774 571.812 43.5049 574.379 45.6356Z" fill="#F7941D"/>
<path d="M351.581 65.0499C352.414 66.2426 353.479 67.2481 354.71 68.0038C355.941 68.7595 357.312 69.2494 358.737 69.4428C359.205 67.9882 359.333 66.4424 359.11 64.9285C358.888 63.4146 358.321 61.9746 357.455 60.7233C354.676 56.9925 349.006 61.2503 351.581 65.0499Z" fill="#872368"/>
<path d="M537.88 98.3655C538.645 97.7252 539.273 96.9314 539.724 96.0336C540.175 95.1358 540.44 94.1531 540.502 93.1467C539.497 92.8889 538.447 92.8736 537.436 93.1021C536.425 93.3307 535.48 93.7966 534.677 94.4628C532.292 96.5867 535.439 100.351 537.88 98.3655Z" fill="#872368"/>
<path d="M272.18 28.8684C272.576 27.4614 272.683 25.9865 272.495 24.5356C272.307 23.0846 271.828 21.6886 271.087 20.4343C269.678 20.9694 268.412 21.8322 267.389 22.9539C266.366 24.0756 265.615 25.4252 265.195 26.895C264.065 31.4336 270.884 33.3267 272.18 28.8684Z" fill="#009444"/>
<path d="M394.514 45.5216C395.843 44.9873 397.05 44.1816 398.061 43.154C399.072 42.1265 399.866 40.8989 400.393 39.5471C399.12 38.7328 397.677 38.2338 396.179 38.0902C394.682 37.9466 393.173 38.1624 391.772 38.7203C387.581 40.5194 390.257 47.1804 394.514 45.5216Z" fill="#A6CE39"/>
<path d="M543.368 58.09C542.752 58.1945 542.162 58.4264 541.637 58.7717C541.112 59.1169 540.661 59.568 540.314 60.0972C540.785 60.5647 541.358 60.9131 541.986 61.1145C542.614 61.3159 543.279 61.3646 543.929 61.2568C545.884 60.8787 545.34 57.778 543.368 58.09Z" fill="#A6CE39"/>
<path d="M493.222 134.254C493.826 134.823 494.538 135.26 495.314 135.537C496.09 135.815 496.914 135.928 497.735 135.869C497.832 134.993 497.726 134.106 497.425 133.279C497.124 132.452 496.638 131.708 496.004 131.107C494.04 129.342 491.313 132.419 493.222 134.254Z" fill="#A6CE39"/>
<path d="M112.618 45.5456C113.786 44.6918 114.768 43.6026 115.504 42.3457C116.241 41.0888 116.715 39.6912 116.899 38.2396C115.468 37.7698 113.949 37.6468 112.463 37.8806C110.977 38.1143 109.566 38.6983 108.341 39.586C104.696 42.4133 108.889 48.2147 112.618 45.5456Z" fill="#ED1C24"/>
<path d="M412.708 119.243C413.701 119.331 414.702 119.209 415.647 118.886C416.592 118.563 417.462 118.046 418.202 117.366C417.657 116.461 416.912 115.698 416.027 115.138C415.141 114.577 414.139 114.236 413.1 114.14C409.928 113.952 409.561 118.934 412.708 119.243Z" fill="#ED1C24"/>
<path d="M389.502 9.62423C385.435 12.4585 381.167 14.9818 376.733 17.1734C368.858 21.1301 345.177 26.4607 344.273 37.1967C343.714 43.7852 355.673 39.4396 364.995 35.0945C370.856 32.3651 377.76 29.0011 380.352 27.8482C383.788 26.3061 388.101 23.8283 389.475 20.6951C391.854 15.2139 389.502 9.62423 389.502 9.62423Z" fill="#50B848"/>
<path d="M356.995 33.12C357.442 35.4063 355.983 37.6281 353.737 38.0824C351.492 38.5367 349.31 37.0515 348.864 34.7652C348.417 32.4788 349.876 30.2571 352.122 29.8028C354.367 29.3485 356.549 30.8336 356.995 33.12Z" fill="#A6CE39"/>
<path d="M364.487 29.4323C364.886 31.4791 363.581 33.4681 361.57 33.8748C359.56 34.2815 357.607 32.9519 357.207 30.9051C356.808 28.8582 358.114 26.8693 360.124 26.4626C362.134 26.0559 364.088 27.3854 364.487 29.4323Z" fill="#A6CE39"/>
<path d="M373.155 26.0665C373.618 28.4364 372.106 30.7392 369.778 31.2101C367.451 31.681 365.189 30.1416 364.726 27.7718C364.264 25.402 365.776 23.0991 368.103 22.6282C370.431 22.1573 372.693 23.6967 373.155 26.0665Z" fill="#A6CE39"/>
<path d="M380.793 21.9939C381.209 24.1242 379.85 26.1943 377.757 26.6176C375.665 27.0409 373.632 25.6571 373.216 23.5268C372.801 21.3965 374.16 19.3264 376.252 18.9031C378.344 18.4798 380.377 19.8636 380.793 21.9939Z" fill="#A6CE39"/>
<path d="M388.768 17.5869C389.185 19.7208 387.823 21.7944 385.727 22.2184C383.632 22.6425 381.595 21.2563 381.179 19.1224C380.762 16.9884 382.124 14.9148 384.219 14.4908C386.315 14.0668 388.352 15.4529 388.768 17.5869Z" fill="#A6CE39"/>
<path d="M338.884 44.9535C338.85 43.9947 338.996 43.0381 339.313 42.1345C337.927 42.3207 336.518 42.0905 335.259 41.4723C334.548 41.1587 333.923 40.6723 333.439 40.0558C332.955 39.4393 332.627 38.7113 332.483 37.9357C332.34 37.1637 332.4 36.3671 332.656 35.6262L332.46 35.3447C331.405 33.6865 331.819 32.0591 332.235 30.5132L332.612 29.1801C333.412 26.4022 334.056 24.2023 331.322 21.8798C331.265 21.8323 331.219 21.7737 331.185 21.7074C331.152 21.6411 331.132 21.5686 331.127 21.4942C331.122 21.4198 331.132 21.3452 331.156 21.2748C331.18 21.2044 331.218 21.1397 331.267 21.0848C331.375 20.9723 331.52 20.9052 331.674 20.8969C331.827 20.8886 331.979 20.9396 332.097 21.0398C335.387 23.8374 334.582 26.589 333.747 29.4969C333.627 29.9106 333.503 30.3388 333.386 30.7722C332.997 32.217 332.696 33.3913 333.358 34.5825C333.666 34.2954 334.031 34.0795 334.429 33.9492C335.738 33.5068 337.319 33.9109 337.892 34.8195C338.081 35.1295 338.144 35.5023 338.066 35.8585C337.989 36.2147 337.779 36.5262 337.48 36.7267C337.204 36.969 336.88 37.1466 336.53 37.2469C336.18 37.3473 335.812 37.368 335.453 37.3075C334.795 37.2054 334.17 36.9427 333.633 36.5419C333.578 36.9558 333.585 37.3758 333.655 37.7874C333.767 38.384 334.022 38.9432 334.397 39.4154C334.773 39.8876 335.257 40.2581 335.806 40.4942C337.079 41.137 338.54 41.2747 339.907 40.8804C340.69 39.5338 341.739 38.3678 342.989 37.4564L342.981 37.417C342.982 35.181 343.488 32.9752 344.46 30.9702C344.825 30.1587 346.111 30.5953 346.145 31.4901C346.239 32.7501 346.114 34.0172 345.775 35.2329L346.772 33.8428C346.931 33.8029 347.097 33.8022 347.256 33.8406C347.416 33.8791 347.564 33.9555 347.689 34.0638C347.813 34.172 347.911 34.3089 347.973 34.4631C348.036 34.6173 348.061 34.7844 348.048 34.9507C347.961 35.9518 347.385 38.4316 346.35 39.0374C346.35 39.0374 351.06 39.7305 350.86 42.1413C350.66 44.552 349.919 42.0993 348.322 41.8214C346.739 41.5246 345.24 40.8792 343.928 39.9303C342.533 41.1689 341.436 42.8046 341.5 44.882C341.498 45.0483 341.464 45.2127 341.4 45.3656C341.335 45.5186 341.242 45.6571 341.125 45.7734C341.008 45.8897 340.87 45.9813 340.718 46.0432C340.567 46.105 340.405 46.1358 340.241 46.1338C339.908 46.1585 339.579 46.0484 339.324 45.8274C339.07 45.6065 338.912 45.2925 338.884 44.9535ZM335.601 36.1778C335.79 36.2146 335.984 36.2075 336.169 36.157C336.355 36.1065 336.526 36.0139 336.672 35.8862C337.009 35.5857 336.92 35.4397 336.889 35.3845C336.607 35.135 336.264 34.9677 335.897 34.9002C335.53 34.8327 335.151 34.8674 334.801 35.0008C334.531 35.0895 334.287 35.247 334.092 35.4585C334.524 35.8306 335.045 36.0789 335.601 36.1778Z" fill="#A6CE39"/>
<path d="M511.947 44.1C510.894 43.8644 509.793 44.0136 508.833 44.5221C507.322 45.3509 506.417 47.0127 505.435 48.4626C506.753 48.9074 508.149 49.0617 509.531 48.9154C510.912 48.769 512.249 48.3253 513.455 47.6131L512.196 49.7391C511.605 50.1466 510.941 50.4281 510.242 50.5667C509.544 50.7054 508.826 50.6985 508.131 50.5464C507.076 50.3106 505.973 50.4595 505.011 50.9677C503.498 51.8031 502.6 53.4657 501.618 54.909C502.935 55.3549 504.33 55.5102 505.71 55.3649C507.091 55.2195 508.427 54.7766 509.631 54.0653L508.221 56.4602C507.1 56.6348 504.86 57.1791 503.863 58.8422C502.53 61.0928 503.178 66.0182 503.178 66.0182C503.178 66.0182 507.733 64.3412 509.066 62.0907C509.992 60.5191 509.54 58.3688 509.172 57.2043L510.529 54.9233C510.508 56.3013 510.762 57.6684 511.275 58.9407C511.787 60.2129 512.547 61.3634 513.509 62.3214C514.309 60.7667 515.326 59.2004 515.351 57.409C515.337 56.1586 514.858 54.9624 514.012 54.066C513.298 53.2575 512.864 52.2291 512.776 51.1399L514.359 48.4719C514.342 49.8495 514.597 51.2156 515.109 52.4873C515.622 53.759 516.38 54.9099 517.339 55.8701C518.14 54.3088 519.16 52.716 519.181 50.9577C519.173 49.7044 518.693 48.5043 517.843 47.608C517.13 46.8012 516.696 45.7755 516.606 44.6886L518.189 42.014C518.171 43.3918 518.425 44.7583 518.938 46.0302C519.45 47.3022 520.21 48.4529 521.17 49.4121C521.964 47.85 522.98 46.2903 523.006 44.4989C522.998 43.2472 522.518 42.0487 521.666 41.1558C520.954 40.3472 520.522 39.319 520.437 38.2307L522.013 35.5618C521.995 36.9395 522.25 38.3058 522.762 39.5776C523.275 40.8494 524.034 42.0002 524.993 42.96C525.787 41.3978 526.814 39.8059 526.829 38.0467C526.823 36.7945 526.345 35.5946 525.497 34.6979C524.782 33.8927 524.347 32.8661 524.261 31.7785L525.821 29.1278C525.801 30.5058 526.054 31.8729 526.567 33.1451C527.079 34.4174 527.84 35.5679 528.801 36.5259C529.602 34.9646 530.618 33.4049 530.644 31.6135C530.63 30.3631 530.151 29.1668 529.304 28.2704C528.59 27.462 528.156 26.4336 528.069 25.3444L540.287 4.68841L539.27 4.04988L527.169 24.5062L526.836 24.348C525.774 24.8586 524.581 25.0029 523.435 24.7592C522.382 24.523 521.281 24.6723 520.322 25.1813C518.804 26.0092 522.539 29.689 524.936 28.2781L523.685 30.3983C523.093 30.8055 522.429 31.0867 521.731 31.2254C521.032 31.3641 520.314 31.3573 519.619 31.2056C518.564 30.9664 517.46 31.1155 516.499 31.6269C514.987 32.4557 514.083 34.1175 513.1 35.5673C514.419 36.0122 515.814 36.1665 517.196 36.0202C518.578 35.8738 519.915 35.4301 521.12 34.7179L519.862 36.8438C519.276 37.2474 518.618 37.527 517.927 37.6665C517.236 37.806 516.525 37.8025 515.835 37.6563C514.78 37.4205 513.677 37.5695 512.715 38.0776C511.203 38.913 510.298 40.5748 509.316 42.018C510.634 42.4638 512.029 42.6191 513.411 42.4739C514.792 42.3287 516.13 41.8861 517.335 41.1751L516.078 43.2945C515.478 43.7103 514.803 43.9962 514.092 44.1347C513.382 44.2732 512.652 44.2614 511.947 44.1Z" fill="#F7941D"/>
</svg>
