<?xml version="1.0" encoding="UTF-8" standalone="no"?>
<svg
   xmlns:dc="http://purl.org/dc/elements/1.1/"
   xmlns:cc="http://creativecommons.org/ns#"
   xmlns:rdf="http://www.w3.org/1999/02/22-rdf-syntax-ns#"
   xmlns:svg="http://www.w3.org/2000/svg"
   xmlns="http://www.w3.org/2000/svg"
   xmlns:sodipodi="http://sodipodi.sourceforge.net/DTD/sodipodi-0.dtd"
   xmlns:inkscape="http://www.inkscape.org/namespaces/inkscape"
   version="1.1"
   id="svg2"
   xml:space="preserve"
   width="724"
   height="700"
   viewBox="0 0 724 700"
   sodipodi:docname="Лого_просто_вкусно.ai"><metadata
     id="metadata8"><rdf:RDF><cc:Work
         rdf:about=""><dc:format>image/svg+xml</dc:format><dc:type
           rdf:resource="http://purl.org/dc/dcmitype/StillImage" /></cc:Work></rdf:RDF></metadata><defs
     id="defs6"><clipPath
       clipPathUnits="userSpaceOnUse"
       id="clipPath18"><path
         d="M 0,525 H 543 V 0 H 0 Z"
         id="path16" /></clipPath></defs><sodipodi:namedview
     pagecolor="#ffffff"
     bordercolor="#666666"
     borderopacity="1"
     objecttolerance="10"
     gridtolerance="10"
     guidetolerance="10"
     inkscape:pageopacity="0"
     inkscape:pageshadow="2"
     inkscape:window-width="640"
     inkscape:window-height="480"
     id="namedview4" /><g
     id="g10"
     inkscape:groupmode="layer"
     inkscape:label="Лого_просто_вкусно"
     transform="matrix(1.3333333,0,0,-1.3333333,0,700)"><g
       id="g12"><g
         id="g14"
         clip-path="url(#clipPath18)"><g
           id="g20"
           transform="translate(370.9826,348.0356)"><path
             d="M 0,0 C 1.913,-0.131 3.818,0.299 5.406,1.43 7.888,3.199 9.108,6.259 10.514,8.964 5.683,9.961 0.479,8.662 -3.441,5.693 l 1.739,3.929 c 1.882,1.689 4.406,2.501 6.989,2.325 1.912,-0.131 3.818,0.298 5.406,1.43 2.482,1.769 3.702,4.829 5.108,7.534 C 10.97,21.907 5.766,20.609 1.846,17.64 l 1.959,4.426 c 1.938,0.553 5.79,2.005 7.15,5.078 1.847,4.173 -0.405,12.473 -0.405,12.473 0,0 -7.657,-3.915 -9.503,-8.088 -1.288,-2.909 0.002,-6.495 0.901,-8.403 l -1.87,-4.225 c -0.562,4.716 -3.055,9.218 -6.904,12.023 -1.056,-2.859 -2.501,-5.821 -2.141,-8.847 0.259,-2.177 1.446,-4.056 3.113,-5.442 1.468,-1.221 2.419,-2.905 2.833,-4.737 L -5.208,6.954 c -0.563,4.716 -3.056,9.218 -6.905,12.023 -1.056,-2.859 -2.501,-5.82 -2.141,-8.847 0.259,-2.177 1.446,-4.055 3.113,-5.442 1.468,-1.221 2.419,-2.905 2.834,-4.737 l -2.188,-4.944 c -0.562,4.716 -3.056,9.218 -6.905,12.023 -1.056,-2.859 -2.501,-5.82 -2.141,-8.847 0.259,-2.177 1.446,-4.055 3.114,-5.442 1.467,-1.221 2.418,-2.905 2.833,-4.737 l -2.188,-4.944 c -0.562,4.717 -3.056,9.218 -6.905,12.024 -1.056,-2.86 -2.5,-5.821 -2.141,-8.848 0.259,-2.177 1.446,-4.055 3.114,-5.442 1.467,-1.221 2.418,-2.905 2.833,-4.736 l -2.188,-4.944 c -0.562,4.716 -3.056,9.218 -6.905,12.023 -1.056,-2.86 -2.5,-5.821 -2.14,-8.848 0.259,-2.177 1.446,-4.055 3.113,-5.442 1.467,-1.22 2.422,-2.902 2.835,-4.732 l -16.917,-38.226 1.945,-0.861 16.752,37.853 c 0.206,-0.07 0.418,-0.127 0.623,-0.202 1.715,1.114 3.791,1.625 5.902,1.481 1.913,-0.131 3.819,0.298 5.406,1.429 2.482,1.769 -4.926,7.233 -8.846,4.263 l 1.739,3.93 c 1.881,1.689 4.405,2.501 6.988,2.324 1.913,-0.13 3.819,0.299 5.406,1.43 2.482,1.769 3.703,4.83 5.108,7.534 -4.83,0.997 -10.034,-0.301 -13.954,-3.271 l 1.738,3.929 c 1.882,1.69 4.406,2.502 6.989,2.325 1.913,-0.131 3.819,0.299 5.406,1.43 2.482,1.769 3.703,4.829 5.108,7.534 -4.83,0.997 -10.035,-0.301 -13.955,-3.271 l 1.739,3.929 C -5.107,-0.635 -2.583,0.177 0,0"
             style="fill:#f6921e;fill-opacity:1;fill-rule:nonzero;stroke:none"
             id="path22" /></g><g
           id="g24"
           transform="translate(276.3726,386.0113)"><path
             d="M 0,0 C 8.414,9.386 10.666,46.334 5.908,45.266 -5.423,42.723 -5.026,26.335 -6.819,24.082 c -1.489,6.962 -7.039,31.93 -11.621,25.215 -4.092,-5.996 -3.36,-20.713 -1.227,-25.524 -2.051,0.592 -8.169,19.02 -15.1,9.022 C -39.696,25.684 -16.704,-2.676 -9.539,-3.978 -8.606,-4.148 -1.047,-1.168 0,0"
             style="fill:#50b748;fill-opacity:1;fill-rule:nonzero;stroke:none"
             id="path26" /></g><g
           id="g28"
           transform="translate(332.5915,279.0629)"><path
             d="m 0,0 c -3.178,13.476 -6.357,26.952 -9.361,40.468 -2.872,12.914 -7.543,26.213 -12.657,39.575 -6.981,18.24 -19.175,40.082 -40.516,27.677 -21.824,-12.685 -3.425,-40.648 5.362,-55.506 6.764,-11.436 14.332,-22.391 22.741,-32.68 7,-8.565 14.685,-17.331 24.073,-23.364 C -10.114,-4.143 1.311,-14.095 1.333,-14.105 2.411,-14.646 0.564,-2.393 0,0"
             style="fill:#f6921e;fill-opacity:1;fill-rule:nonzero;stroke:none"
             id="path30" /></g><g
           id="g32"
           transform="translate(297.2551,309.8012)"><path
             d="m 0,0 c 0,0 4.777,14.708 18.505,23.606 20.939,13.571 37.484,-11.633 64.75,-9.378 11.114,0.919 24.435,-4.323 19,-20.5 C 95.06,-27.689 -2.245,-35.272 0,0"
             style="fill:#a5cd39;fill-opacity:1;fill-rule:nonzero;stroke:none"
             id="path34" /></g><g
           id="g36"
           transform="translate(150.3019,262.1934)"><path
             d="m 0,0 c 12.619,-3.547 26.434,-3.623 39.264,-4.266 19.984,-1 39.837,-2.47 59.866,-2.605 9.045,-0.062 18.094,0.145 27.127,-0.387 7.649,-0.45 15.32,-1.131 22.988,-0.754 7.114,0.35 14.485,1.555 19.924,6.493 5.089,4.619 9.052,10.223 13.667,15.264 -3.121,7.081 -6.031,11.404 -13.857,16.539 -9.107,5.975 -0.27,14.592 -6.778,23.532 -2.46,3.38 -9.761,3.27 -13.152,5.697 -11.565,8.276 -5.022,13.85 -9.168,20.715 -6.422,10.637 -18.706,13.616 -31.58,13.516 C 102.739,93.701 95.472,88.125 90.75,90.174 84.482,92.893 82.151,96.31 74.694,95.54 65.811,94.623 59.532,91.104 56.508,83.962 43.427,90.309 28.73,90.43 21.302,77.875 18.252,72.719 18.244,66.714 16.122,61.272 13.7,55.065 7.104,53.533 1.443,51.164 -9.065,46.766 -25.012,28.467 -23.542,16.21 -22.162,4.702 -5.662,8.9 0,0"
             style="fill:#50b748;fill-opacity:1;fill-rule:nonzero;stroke:none"
             id="path38" /></g><g
           id="g40"
           transform="translate(281.2081,304.4867)"><path
             d="m 0,0 c -18.521,-0.616 -15.05,25.318 -25.908,28.381 -12.091,3.41 -34.952,-6.273 -39.496,-15.94 -0.424,-0.9 3.407,-3.604 3.931,-2.778 3.275,5.168 9.947,10.325 15.395,13.531 8.98,5.285 25.073,2.61 26.894,-9.644 0.801,-5.393 4.874,-11.244 9.596,-14.825 5.344,-4.052 12.731,0.266 18.737,-0.526 7.49,-0.988 13.573,-6.32 14.993,-13.779 1.387,-7.289 -2.468,-12.724 -7.297,-17.589 -0.12,-0.12 0.018,-0.358 0.183,-0.292 8.603,3.431 13.32,15.648 9.508,23.752 C 21.514,0.968 10.146,0.337 0,0"
             style="fill:#a5cd39;fill-opacity:1;fill-rule:nonzero;stroke:none"
             id="path42" /></g><g
           id="g44"
           transform="translate(291.4323,284.9373)"><path
             d="M 0,0 C 1.746,-0.067 3.488,-0.137 5.226,-0.221 3.864,2.293 1.808,4.668 -1.063,6.82 c -4.695,3.518 -14.024,2.034 -19.609,2.793 -7.894,1.073 -12.56,3.95 -14.923,11.727 -0.685,2.251 -1.095,4.616 -2.025,6.789 -3.445,8.045 -13.731,10.784 -18.905,2.668 -0.554,-0.87 0.666,-2.003 1.423,-1.215 2.949,3.072 13.289,0.704 15.243,-2.444 1.144,-1.843 1.346,-4.245 1.968,-6.296 0.705,-2.322 1.346,-4.732 2.717,-6.772 3.943,-5.861 10.548,-6.268 16.969,-7.087 C -10.849,6.045 -3.79,4.466 0,0"
             style="fill:#a5cd39;fill-opacity:1;fill-rule:nonzero;stroke:none"
             id="path46" /></g><g
           id="g48"
           transform="translate(240.9956,337.1137)"><path
             d="m 0,0 c -5.833,8.511 -14.17,16.533 -22.181,7.786 -3.413,-3.726 -3.896,-8.252 -9.119,-9.954 -5.859,-1.91 -7.596,1.607 -12.873,2.63 -3.451,0.669 -6.729,-0.391 -9.47,-2.33 0.376,-0.605 0.75,-1.211 1.119,-1.82 2.138,1.368 4.696,1.851 7.961,1.201 3.054,-0.608 4.932,-1.571 7.677,-2.514 2.794,-0.96 5.28,-2.283 8.021,-0.963 2.521,1.215 3.952,4.792 5.632,6.91 1.102,1.389 2.795,4.424 4.502,5.548 8.344,5.495 13.279,-1.906 17.079,-7.432 C -0.964,-1.939 0.692,-1.009 0,0"
             style="fill:#a5cd39;fill-opacity:1;fill-rule:nonzero;stroke:none"
             id="path50" /></g><g
           id="g52"
           transform="translate(291.8228,307.8049)"><path
             d="m 0,0 c 1.856,3.967 1.887,8.219 -0.639,11.983 -1.359,2.024 -3.251,2.76 -5.079,4.276 -4.876,4.039 -5.645,11.081 -8.121,16.216 -5.875,12.187 -23.415,7.146 -33.342,3.214 -0.609,-0.242 -0.725,-2.539 2.344,-1.964 4.975,0.931 9.843,2.939 14.954,2.939 9.903,0 13.164,-6.049 15.947,-14.223 0.815,-2.396 1.801,-4.144 3.699,-5.89 0.688,-0.633 1.645,-0.939 2.333,-1.566 C -4.573,11.943 -0.283,5.572 -1.722,0.701 -2.017,-0.297 -0.457,-0.977 0,0"
             style="fill:#a5cd39;fill-opacity:1;fill-rule:nonzero;stroke:none"
             id="path54" /></g><g
           id="g56"
           transform="translate(197.5516,233.9267)"><path
             d="m 0,0 c 25.159,-16.973 79.201,-35.649 101.781,-4.087 23.007,32.161 -9.491,54.385 -34.895,66.18 -15.316,7.112 -30.82,13.114 -44.281,23.572 -17.456,13.563 -26.77,48.322 -48.67,53.977 -3.694,2.973 -23.346,9.173 -31.471,-11.522 C -66.012,80.261 -39.185,26.435 0,0"
             style="fill:#862369;fill-opacity:1;fill-rule:nonzero;stroke:none"
             id="path58" /></g><g
           id="g60"
           transform="translate(151.3349,378.291)"><path
             d="m 0,0 c -3.198,4.177 -4.495,10.326 -4,15.227 0.473,4.672 4.253,9.05 9.26,7.578 C 5.689,22.679 5.863,22.171 5.643,21.796 1.942,15.517 1.111,8.171 3.257,1.33 c 9.274,3.312 31.929,-7.814 31.351,-8.309 -4.618,-3.95 -11.534,0.832 -16.849,0.431 6.226,-2.261 11.037,-10.413 11.808,-12.414 1.122,-2.914 -9.649,2.756 -17.497,5.68 0.158,-1.017 0.282,-2.038 0.339,-3.067 0.222,-4.022 -0.415,-7.898 -1.657,-11.709 -0.203,-0.622 -1.051,-0.873 -1.506,-0.35 -3.71,4.261 -6.095,9.207 -7.108,14.52 -2.053,-4.71 -4.613,-9.503 -6.609,-9.73 -2.677,-0.305 -1.289,8.47 0.212,14.229 C -9.4,-11.216 -17.676,-21.877 -16.2,-16.425 -14.261,-9.264 -0.402,-0.184 0,0"
             style="fill:#009345;fill-opacity:1;fill-rule:nonzero;stroke:none"
             id="path62" /></g><g
           id="g64"
           transform="translate(207.9059,400.3715)"><path
             d="M 0,0 -4.61,10.896 C -2.925,9.77 -1.102,9.912 0.126,10.556 -0.365,5.243 0,0 0,0 m -12.89,2.114 c 0.019,1.051 -0.074,2.12 -0.325,3.19 0.919,0.216 2.401,1.036 3.22,1.426 2.401,-5.42 6.067,-11.657 6.067,-11.657 -2.085,2.896 -5.604,5.266 -8.962,7.041 m 32.445,19.401 c 0.008,1.009 -0.088,2.033 -0.328,3.059 -1.624,6.927 -8.556,11.227 -15.483,9.603 -3.235,-0.758 -5.884,-2.682 -7.637,-5.214 -1.346,0.691 -2.921,0.952 -4.509,0.579 -0.494,-0.115 -0.954,-0.294 -1.392,-0.508 -2.723,1.55 -6.009,2.128 -9.301,1.357 -4.126,-0.968 -7.306,-3.824 -8.871,-7.434 -0.839,0.141 -1.719,0.123 -2.6,-0.083 -3.553,-0.833 -5.759,-4.389 -4.926,-7.943 0.247,-1.055 0.755,-1.971 1.411,-2.744 -3.568,-3.029 -5.362,-7.893 -4.22,-12.763 0.454,-1.937 1.334,-3.658 2.502,-5.112 -1.012,-1.479 -1.44,-3.349 -0.999,-5.23 0.833,-3.554 4.389,-5.76 7.943,-4.927 2.721,0.638 4.638,2.874 5.019,5.481 0.339,0.052 0.678,0.106 1.018,0.185 2.669,0.626 4.942,2.045 6.643,3.944 C -4.49,-6.763 8.979,-29.322 8.979,-29.322 l 9.69,9.385 C 8.889,-9.493 4.771,3.357 7.636,8.801 c 0.66,0.049 1.323,0.134 1.988,0.29 1.217,0.285 2.348,0.743 3.386,1.327 1.558,-1.45 3.786,-2.124 6.014,-1.601 3.554,0.833 5.76,4.389 4.927,7.943 -0.547,2.332 -2.274,4.062 -4.396,4.755"
             style="fill:#a5cd39;fill-opacity:1;fill-rule:nonzero;stroke:none"
             id="path66" /></g><g
           id="g68"
           transform="translate(107.5994,361.3546)"><path
             d="m 0,0 c 0,0 -13.147,-29.146 19.07,-33.893 v 2.176 c 0,0 21.286,29.293 -19.07,31.717"
             style="fill:#a5cd39;fill-opacity:1;fill-rule:nonzero;stroke:none"
             id="path70" /></g><g
           id="g72"
           transform="translate(131.5369,322.5637)"><path
             d="m 0,0 c 0,0 -3.82,6.919 -8.329,14.685 1.325,1.192 3.852,4.185 3.411,9.432 0,0 -2.788,-5.319 -3.842,-8.692 -0.968,1.663 -1.96,3.35 -2.952,5.013 0.87,2.159 3.492,8.862 3.145,10.415 0,0 -4.131,-4.76 -3.805,-9.311 -1.061,1.769 -2.108,3.484 -3.109,5.084 0.461,1.424 1.872,5.944 1.67,7.368 0,0 -3.071,-2.355 -2.175,-6.562 -3.075,4.871 -5.612,8.447 -6.469,8.51 l 4.592,-8.291 c -2.904,2.048 -5.916,0.882 -5.916,0.882 1.01,-0.831 4.906,-1.855 6.699,-2.296 l 2.888,-5.215 c -3.741,2.392 -9.633,1.398 -9.633,1.398 1.116,-1.075 7.879,-2.289 10.356,-2.703 l 2.847,-5.141 c -3.439,0.842 -9.349,1.224 -9.349,1.224 4.216,-3.08 8.054,-2.516 9.783,-2.007 l 7.995,-16.161 z"
             style="fill:#50b748;fill-opacity:1;fill-rule:nonzero;stroke:none"
             id="path74" /></g><g
           id="g76"
           transform="translate(397.1054,405.8621)"><path
             d="M 0,0 C 0,0 3.975,24.883 -17.394,24.869 L -18.496,24.1 C -18.496,24.1 -27.38,5.113 0,0"
             style="fill:#a5cd39;fill-opacity:1;fill-rule:nonzero;stroke:none"
             id="path78" /></g><g
           id="g80"
           transform="translate(394.9819,415.0016)"><path
             d="m 0,0 c -0.786,0.529 -3.665,0.998 -4.988,1.191 l -2.444,3.56 C -4.569,3.286 -0.39,4.41 -0.39,4.41 -1.269,5.108 -6.23,5.515 -8.043,5.642 l -2.408,3.509 c 2.537,-0.369 6.824,-0.235 6.824,-0.235 -3.252,1.928 -5.98,1.256 -7.191,0.769 l -6.595,9.608 c -0.289,0.421 -0.891,0.472 -1.246,0.105 -0.267,-0.276 -0.305,-0.7 -0.087,-1.017 0.954,-1.385 3.624,-5.247 6.649,-9.468 -0.873,-0.95 -2.487,-3.284 -1.806,-7.035 0,0 1.642,4.027 2.168,6.532 0.813,-1.132 1.645,-2.279 2.475,-3.41 -0.478,-1.616 -1.904,-6.63 -1.546,-7.726 0,0 2.649,3.718 2.098,6.976 0.888,-1.202 1.761,-2.365 2.594,-3.45 -0.234,-1.058 -0.938,-4.414 -0.694,-5.427 0,0 2.051,1.91 1.113,4.881 2.555,-3.299 4.631,-5.701 5.253,-5.687 L -4.326,0.226 C -2.09,-1.049 0,0 0,0"
             style="fill:#50b748;fill-opacity:1;fill-rule:nonzero;stroke:none"
             id="path82" /></g><g
           id="g84"
           transform="translate(306.2028,389.5219)"><path
             d="m 0,0 c 0,0 25.154,-0.066 16.478,24.263 -0.201,0.561 -0.143,1.186 0.174,1.691 l 2.527,4.019 c 0.412,0.656 0.227,1.521 -0.417,1.951 -0.704,0.47 -1.659,0.229 -2.057,-0.518 l -2.251,-4.23 C 14.236,26.767 13.803,26.525 13.34,26.559 8.914,26.885 -13.172,27.229 0,0"
             style="fill:#50b748;fill-opacity:1;fill-rule:nonzero;stroke:none"
             id="path86" /></g><g
           id="g88"
           transform="translate(317.8207,408.6929)"><path
             d="m 0,0 3.439,6.461 c 0,0 -1.11,0.112 -4.58,-5.651 -1.326,0.478 -4.595,1.208 -8.323,-1.311 0,0 5.167,0.144 8.002,0.778 -0.822,-1.369 -1.662,-2.781 -2.486,-4.188 -1.794,-0.228 -7.908,-1.06 -8.909,-1.957 0,0 5.284,-1.09 8.427,1.133 -0.88,-1.512 -1.734,-3.003 -2.518,-4.411 -1.155,-0.23 -5.094,-1.054 -6.056,-1.787 0,0 3.006,-1.295 5.706,1.154 -2.313,-4.193 -3.925,-7.528 -3.614,-8.194 l 4.156,6.846 c -0.403,-3.032 1.738,-4.802 1.738,-4.802 0.197,1.094 -0.688,4.464 -1.083,5.881 l 2.649,4.362 c -0.39,-3.752 2.873,-7.801 2.873,-7.801 0.337,1.283 -1.653,6.963 -2.298,8.748 l 2.56,4.217 C 0.408,-3.331 2.648,-8.018 2.648,-8.018 3.191,-3.528 1.024,-0.949 0,0"
             style="fill:#009345;fill-opacity:1;fill-rule:nonzero;stroke:none"
             id="path90" /></g><g
           id="g92"
           transform="translate(249.0929,377.0477)"><path
             d="m 0,0 c 0,-2.883 -2.337,-5.22 -5.22,-5.22 -2.884,0 -5.221,2.337 -5.221,5.22 0,2.883 2.337,5.22 5.221,5.22 C -2.337,5.22 0,2.883 0,0"
             style="fill:#50b748;fill-opacity:1;fill-rule:nonzero;stroke:none"
             id="path94" /></g><g
           id="g96"
           transform="translate(134.2596,411.881)"><path
             d="m 0,0 c 0,-2.883 -2.337,-5.22 -5.22,-5.22 -2.884,0 -5.221,2.337 -5.221,5.22 0,2.883 2.337,5.22 5.221,5.22 C -2.337,5.22 0,2.883 0,0"
             style="fill:#a5cd39;fill-opacity:1;fill-rule:nonzero;stroke:none"
             id="path98" /></g><g
           id="g100"
           transform="translate(358.3036,418.7457)"><path
             d="m 0,0 c 0,-3.914 -3.173,-7.087 -7.087,-7.087 -3.913,0 -7.086,3.173 -7.086,7.087 0,3.914 3.173,7.087 7.086,7.087 C -3.173,7.087 0,3.914 0,0"
             style="fill:#a5cd39;fill-opacity:1;fill-rule:nonzero;stroke:none"
             id="path102" /></g><g
           id="g104"
           transform="translate(403.0924,378.5859)"><path
             d="m 0,0 c 0,-2.124 -1.722,-3.845 -3.845,-3.845 -2.124,0 -3.845,1.721 -3.845,3.845 0,2.124 1.721,3.845 3.845,3.845 C -1.722,3.845 0,2.124 0,0"
             style="fill:#009345;fill-opacity:1;fill-rule:nonzero;stroke:none"
             id="path106" /></g><g
           id="g108"
           transform="translate(309.8553,435.5287)"><path
             d="m 0,0 c 0,-2.124 -1.722,-3.845 -3.845,-3.845 -2.124,0 -3.845,1.721 -3.845,3.845 0,2.124 1.721,3.845 3.845,3.845 C -1.722,3.845 0,2.124 0,0"
             style="fill:#862369;fill-opacity:1;fill-rule:nonzero;stroke:none"
             id="path110" /></g><g
           id="g112"
           transform="translate(198.0621,371.5709)"><path
             d="M 0,0 C 0,0 -1.093,-5.064 1.229,-9.348 3.476,-13.495 9.917,-9.879 7.581,-5.781 6.392,-3.695 4.121,-1.609 0,0"
             style="fill:#f6921e;fill-opacity:1;fill-rule:nonzero;stroke:none"
             id="path114" /></g><g
           id="g116"
           transform="translate(113.3432,383.1203)"><path
             d="m 0,0 c 1.61,-1.853 4.02,-3.325 7.625,-3.557 0,0 1.207,4.765 -2.231,8.451 C 2.262,8.252 -3.012,3.466 0,0"
             style="fill:#ec1c24;fill-opacity:1;fill-rule:nonzero;stroke:none"
             id="path118" /></g><g
           id="g120"
           transform="translate(362.1738,401.2435)"><path
             d="m 0,0 c -1.447,-1.983 -2.346,-4.66 -1.767,-8.226 0,0 4.913,-0.115 7.74,4.059 C 8.549,-0.366 2.707,3.709 0,0"
             style="fill:#f6921e;fill-opacity:1;fill-rule:nonzero;stroke:none"
             id="path122" /></g><g
           id="g124"
           transform="translate(268.0891,364.1247)"><path
             d="M 0,0 C 0,0 12.25,6.635 14.589,5.316 16.927,3.997 -3.597,-4.231 0,0"
             style="fill:#862369;fill-opacity:1;fill-rule:nonzero;stroke:none"
             id="path126" /></g><g
           id="g128"
           transform="translate(289.8456,355.6982)"><path
             d="M 0,0 C 0,0 12.25,6.635 14.589,5.316 16.927,3.997 -3.597,-4.231 0,0"
             style="fill:#862369;fill-opacity:1;fill-rule:nonzero;stroke:none"
             id="path130" /></g><g
           id="g132"
           transform="translate(292.9665,328.7241)"><path
             d="M 0,0 C 2.87,2.327 11.335,5.622 13.184,4.579 14.788,3.674 5.244,0.59 0.893,-1.635 0.615,-1.778 -0.119,-0.097 0,0"
             style="fill:#862369;fill-opacity:1;fill-rule:nonzero;stroke:none"
             id="path134" /></g><g
           id="g136"
           transform="translate(161.3548,261.6674)"><path
             d="m 0,0 c 17.136,-6.378 41.31,-10.914 65.488,-0.538 10.592,4.545 12.109,18.959 2.725,25.651 v 0 C 57.588,28.184 44.329,25.793 36.45,33.555 26.516,43.343 10.993,50.329 -3.642,42.499 -21.286,33.058 -18.755,6.98 0,0"
             style="fill:#009345;fill-opacity:1;fill-rule:nonzero;stroke:none"
             id="path138" /></g><g
           id="g140"
           transform="translate(319.6033,304.0438)"><path
             d="M 0,0 C 0,0 10.307,3.912 26.929,13.851 43.552,23.789 81.564,61.42 102.189,50.497 122.813,39.574 50.88,1.166 50.88,1.166 c 0,0 -23.055,-16.186 -35.918,-14.201 C 2.099,-11.05 0,0 0,0"
             style="fill:#50b748;fill-opacity:1;fill-rule:nonzero;stroke:none"
             id="path142" /></g><g
           id="g144"
           transform="translate(413.5985,338.039)"><path
             d="m 0,0 c -2.362,-4.461 -7.894,-6.162 -12.354,-3.799 -4.461,2.362 -6.162,7.893 -3.799,12.354 2.362,4.461 7.893,6.161 12.354,3.799 C 0.661,9.992 2.362,4.461 0,0"
             style="fill:#a5cd39;fill-opacity:1;fill-rule:nonzero;stroke:none"
             id="path146" /></g><g
           id="g148"
           transform="translate(396.4291,328.2338)"><path
             d="m 0,0 c -2.117,-3.997 -7.072,-5.521 -11.069,-3.404 -3.997,2.117 -5.521,7.072 -3.404,11.069 2.117,3.997 7.072,5.521 11.069,3.404 C 0.593,8.952 2.117,3.997 0,0"
             style="fill:#a5cd39;fill-opacity:1;fill-rule:nonzero;stroke:none"
             id="path150" /></g><g
           id="g152"
           transform="translate(381.9645,316.4496)"><path
             d="m 0,0 c -2.45,-4.626 -8.186,-6.39 -12.812,-3.94 -4.627,2.45 -6.391,8.186 -3.941,12.812 2.451,4.626 8.187,6.39 12.813,3.94 C 0.686,10.362 2.45,4.626 0,0"
             style="fill:#a5cd39;fill-opacity:1;fill-rule:nonzero;stroke:none"
             id="path154" /></g><g
           id="g156"
           transform="translate(363.9067,306.8303)"><path
             d="m 0,0 c -2.202,-4.157 -7.357,-5.743 -11.514,-3.541 -4.158,2.202 -5.743,7.357 -3.541,11.515 2.201,4.157 7.357,5.742 11.514,3.54 C 0.616,9.313 2.202,4.157 0,0"
             style="fill:#a5cd39;fill-opacity:1;fill-rule:nonzero;stroke:none"
             id="path158" /></g><g
           id="g160"
           transform="translate(346.3736,297.2394)"><path
             d="m 0,0 c -2.205,-4.164 -7.369,-5.752 -11.533,-3.547 -4.165,2.206 -5.753,7.369 -3.547,11.534 2.205,4.164 7.369,5.752 11.533,3.546 C 0.617,9.328 2.205,4.164 0,0"
             style="fill:#a5cd39;fill-opacity:1;fill-rule:nonzero;stroke:none"
             id="path162" /></g><g
           id="g164"
           transform="translate(430.3098,371.8048)"><path
             d="m 0,0 c -0.404,-0.866 -0.995,-1.4 -1.813,-1.636 -0.957,-0.276 -1.11,0.059 -1.165,0.181 -0.383,0.845 0.189,3.013 1.768,4.291 0.516,0.417 1.085,0.682 1.687,0.788 C 0.61,2.401 0.493,1.047 0,0 m 12.045,-16.384 c -1.826,1.249 -3.715,2.038 -5.627,2.492 1.943,2.27 3.297,5.231 3.645,8.295 0.441,3.832 -0.685,7.145 -3.16,9.33 C 5.28,5.162 3.788,5.865 2.487,6.124 2.401,6.375 2.312,6.611 2.214,6.823 c -1.75,3.903 -5.194,5.007 -8.525,6.084 -1.01,0.322 -1.946,0.601 -2.873,0.873 -6.034,1.759 -10.789,3.159 -11.749,10.953 -0.085,0.691 -0.703,1.161 -1.38,1.044 -0.679,-0.12 -1.16,-0.782 -1.075,-1.48 1.156,-9.386 7.122,-11.13 13.429,-12.981 0.904,-0.267 1.828,-0.531 2.749,-0.835 3.024,-0.968 5.603,-1.799 6.978,-4.425 -1.105,-0.283 -1.939,-0.832 -2.443,-1.235 -2.356,-1.905 -3.524,-5.317 -2.55,-7.448 0.655,-1.449 2.142,-1.997 3.973,-1.471 1.536,0.444 2.737,1.506 3.47,3.08 0.633,1.343 0.84,2.853 0.779,4.267 0.744,-0.322 1.488,-0.822 2.249,-1.494 1.864,-1.645 2.7,-4.191 2.36,-7.171 -0.358,-3.132 -1.949,-6.124 -4.18,-8.027 -3.45,0.21 -6.859,-0.547 -9.919,-1.69 -0.013,0.025 -0.033,0.049 -0.043,0.075 -0.174,-0.139 -3.962,3.39 -13.482,4.804 -1.916,0.284 -2.663,-2.615 -1.076,-3.725 2.344,-1.64 5.326,-3.362 7.257,-3.706 l -3.725,-0.221 c -1.114,-1.078 -0.874,-2.943 0.496,-3.669 1.918,-1.016 7.169,-2.812 9.471,-1.654 0,0 -4.383,-9.543 0.25,-11.996 4.632,-2.454 1.059,1.789 2.464,5.075 1.204,2.817 2.107,7.35 1.797,10.356 3.916,1.122 8.211,1.234 11.915,-1.313 1.203,-0.827 2.898,-0.44 3.782,0.863 0.864,1.273 0.638,3.022 -0.568,3.86"
             style="fill:#009345;fill-opacity:1;fill-rule:nonzero;stroke:none"
             id="path166" /></g><g
           id="g168"
           transform="translate(354.8762,353.9557)"><path
             d="m 0,0 c 1.206,-14.865 -9.866,-27.894 -24.731,-29.1 -14.866,-1.206 -27.894,9.866 -29.101,24.731 -1.206,14.865 9.867,27.894 24.732,29.1 C -14.235,25.938 -1.206,14.865 0,0"
             style="fill:#ec1c24;fill-opacity:1;fill-rule:nonzero;stroke:none"
             id="path170" /></g><g
           id="g172"
           transform="translate(315.8979,379.5547)"><path
             d="m 0,0 c 6.113,2.441 12.729,2.445 18.761,0.124 1.516,4.454 1.088,9.286 -1.24,13.465 -0.139,0.249 -0.016,0.579 0.267,0.655 3.309,0.886 5.718,-2.046 5.954,-5.119 0.247,-3.222 -0.702,-7.236 -2.866,-9.925 0.261,-0.127 0.523,-0.25 0.781,-0.387 0.114,-0.06 0.182,-0.142 0.231,-0.231 4.999,0.062 9.484,-2.171 12.615,-6.128 0.301,-0.38 0.13,-0.908 -0.381,-0.952 -5.129,-0.444 -10.022,0.689 -14.398,3.307 0.098,-5.273 -1.769,-10.164 -5.365,-14.097 -0.307,-0.336 -0.859,-0.158 -0.982,0.253 -0.755,2.52 -1.111,5.073 -0.901,7.708 0.085,1.07 0.25,2.128 0.505,3.171 0.48,1.965 1.281,3.002 -1.28,3.15 -4.667,0.271 -8.29,0.697 -11.962,3.995 C -0.632,-0.677 -0.395,-0.158 0,0"
             style="fill:#50b748;fill-opacity:1;fill-rule:nonzero;stroke:none"
             id="path174" /></g><g
           id="g176"
           transform="translate(176.3582,300.0291)"><path
             d="M 0,0 C 1.059,1.598 1.628,3.467 1.429,5.406 1.117,8.438 -0.94,11.012 -2.597,13.57 -5.85,9.863 -7.294,4.698 -6.649,-0.178 l -2.557,3.454 c -0.539,2.47 0.003,5.066 1.433,7.224 1.059,1.598 1.627,3.467 1.428,5.406 -0.311,3.033 -2.368,5.606 -4.025,8.165 -3.254,-3.707 -4.697,-8.873 -4.053,-13.749 l -2.879,3.891 c 0.476,1.958 1.118,6.024 -0.882,8.726 -2.715,3.667 -11.043,5.811 -11.043,5.811 0,0 -0.381,-8.591 2.334,-12.258 1.893,-2.558 5.648,-3.208 7.751,-3.369 l 2.749,-3.714 c -4.377,1.842 -9.523,1.899 -13.864,-0.061 1.963,-2.331 3.824,-5.05 6.633,-6.233 2.021,-0.851 4.24,-0.747 6.27,0.017 1.786,0.673 3.721,0.667 5.518,0.122 l 3.217,-4.345 c -4.378,1.842 -9.524,1.899 -13.865,-0.061 1.964,-2.331 3.824,-5.05 6.634,-6.233 2.02,-0.851 4.239,-0.747 6.269,0.017 1.787,0.672 3.721,0.667 5.518,0.122 l 3.217,-4.346 c -4.378,1.842 -9.524,1.9 -13.865,-0.06 1.964,-2.332 3.824,-5.051 6.634,-6.234 2.02,-0.85 4.24,-0.747 6.269,0.017 1.787,0.673 3.721,0.667 5.518,0.123 l 3.217,-4.346 c -4.378,1.842 -9.524,1.899 -13.865,-0.06 1.964,-2.332 3.825,-5.051 6.634,-6.234 2.02,-0.851 4.24,-0.747 6.269,0.017 1.787,0.673 3.721,0.667 5.518,0.122 l 3.217,-4.345 c -4.378,1.842 -9.524,1.899 -13.864,-0.061 1.963,-2.331 3.824,-5.05 6.633,-6.233 2.021,-0.851 4.24,-0.747 6.269,0.017 1.786,0.672 3.72,0.671 5.516,0.126 l 24.872,-33.598 1.709,1.266 -24.629,33.269 c 0.163,0.145 0.317,0.301 0.483,0.442 -0.12,2.042 0.462,4.099 1.631,5.863 1.058,1.598 1.627,3.467 1.428,5.406 -0.311,3.033 -8.722,-0.708 -8.078,-5.584 l -2.556,3.454 c -0.539,2.471 0.002,5.066 1.432,7.225 1.059,1.598 1.628,3.467 1.429,5.406 -0.311,3.032 -2.369,5.605 -4.025,8.164 -3.254,-3.707 -4.697,-8.873 -4.053,-13.748 l -2.557,3.453 c -0.538,2.471 0.003,5.067 1.433,7.225 1.059,1.598 1.628,3.467 1.429,5.406 C 8.891,-2.062 6.833,0.511 5.177,3.07 1.923,-0.637 0.479,-5.803 1.124,-10.678 l -2.557,3.453 C -1.972,-4.754 -1.43,-2.158 0,0"
             style="fill:#f6921e;fill-opacity:1;fill-rule:nonzero;stroke:none"
             id="path178" /></g><g
           id="g180"
           transform="translate(138.3318,298.5729)"><path
             d="M 0,0 C 0.443,1.865 0.332,3.816 -0.523,5.567 -1.861,8.306 -4.68,10.012 -7.117,11.842 -8.893,7.241 -8.466,1.894 -6.18,-2.46 l -3.591,2.36 c -1.358,2.133 -1.744,4.756 -1.147,7.275 0.443,1.865 0.333,3.816 -0.523,5.567 -1.338,2.739 -4.156,4.445 -6.594,6.276 -1.776,-4.602 -1.349,-9.949 0.937,-14.303 l -4.044,2.659 c -0.228,2.002 -1.028,6.04 -3.837,7.886 -3.813,2.506 -12.37,1.647 -12.37,1.647 0,0 2.606,-8.196 6.419,-10.702 2.658,-1.747 6.407,-1.063 8.437,-0.489 l 3.861,-2.538 c -4.744,0.22 -9.594,-1.501 -12.993,-4.838 2.647,-1.511 5.331,-3.422 8.376,-3.563 2.19,-0.102 4.238,0.761 5.879,2.178 1.445,1.247 3.263,1.909 5.138,2.018 l 4.518,-2.97 c -4.745,0.219 -9.595,-1.502 -12.993,-4.838 2.647,-1.511 5.331,-3.422 8.376,-3.564 2.19,-0.101 4.237,0.761 5.879,2.178 1.445,1.248 3.262,1.91 5.137,2.018 l 4.518,-2.969 c -4.744,0.219 -9.594,-1.502 -12.993,-4.839 2.647,-1.511 5.331,-3.421 8.376,-3.563 2.19,-0.102 4.238,0.761 5.879,2.178 1.445,1.248 3.263,1.909 5.138,2.018 l 4.518,-2.97 c -4.745,0.22 -9.595,-1.501 -12.993,-4.838 2.647,-1.511 5.331,-3.422 8.376,-3.563 2.19,-0.102 4.237,0.761 5.879,2.178 1.445,1.247 3.262,1.909 5.137,2.017 l 4.518,-2.969 c -4.744,0.219 -9.594,-1.502 -12.993,-4.838 2.647,-1.511 5.331,-3.422 8.376,-3.564 2.19,-0.101 4.238,0.761 5.879,2.178 1.445,1.248 3.26,1.914 5.134,2.02 l 34.933,-22.958 1.168,1.777 -44.553,29.282 c -1.358,2.133 -1.745,4.756 -1.147,7.275 0.443,1.865 0.332,3.816 -0.523,5.567 -1.338,2.739 -4.157,4.445 -6.594,6.276 -1.776,-4.602 -1.349,-9.949 0.937,-14.303 l -3.591,2.36 c -1.358,2.133 -1.744,4.757 -1.147,7.276 0.443,1.865 0.333,3.815 -0.523,5.567 C 9.056,1.131 6.238,2.837 3.8,4.667 2.024,0.065 2.451,-5.281 4.737,-9.635 l -3.59,2.36 C -0.211,-5.142 -0.598,-2.519 0,0"
             style="fill:#f6921e;fill-opacity:1;fill-rule:nonzero;stroke:none"
             id="path182" /></g><g
           id="g184"
           transform="translate(393.7817,232.1984)"><path
             d="M 0,0 2.916,28.315 C 11.013,30.994 24.305,38.408 27.134,22.849 29.726,8.594 13.198,2.549 0,0 m -286.627,19.476 c 3.475,5.213 14.399,-1.358 23.393,-3.666 1.556,-7.384 2.079,-9.996 3.842,-18.78 -36.019,4.822 -31.759,15.659 -27.235,22.446 M 4.342,42.158 12.08,82.228 c 0,0 -174.38,-56.517 -287.209,-25.248 0,0 5.262,-10.033 8.736,-26.228 -11.415,6.437 -30.222,12.258 -36.452,-14.097 -6.322,-26.748 26.265,-35.382 47.096,-38.165 8.273,-43.059 16.63,-73.631 16.982,-103.579 0,0 86.566,-43.356 226.883,4.591 l 10.52,107.251 C 14.699,-9.276 33.8,-9.229 44.059,10.822 57.756,37.592 27.63,54.969 4.342,42.158"
             style="fill:#ffd300;fill-opacity:1;fill-rule:nonzero;stroke:none"
             id="path186" /></g><g
           id="g188"
           transform="translate(217.3185,230.072)"><path
             d="M 0,0 Z"
             style="fill:#862369;fill-opacity:1;fill-rule:nonzero;stroke:none"
             id="path190" /></g><g
           id="g192"
           transform="translate(217.3185,230.072)"><path
             d="M 0,0 V 0"
             style="fill:none;stroke:#862364;stroke-width:0.992;stroke-linecap:butt;stroke-linejoin:miter;stroke-miterlimit:10;stroke-dasharray:none;stroke-opacity:1"
             id="path194" /></g><g
           id="g196"
           transform="translate(199.9183,245.3297)"><path
             d="m 0,0 c -1.072,1.402 -0.085,2.99 -1.973,4.031 -1.798,0.992 -4.494,0.984 -6.49,1.132 -5.478,0.407 -10.975,0.127 -16.453,0.523 -2.821,0.203 -5.635,0.505 -8.456,0.715 -2.01,0.149 -4.279,0.981 -5.516,-0.979 -2.269,-3.595 0.642,-10.197 0.425,-14.18 -0.314,-5.767 0.151,-11.476 0.723,-17.228 0.558,-5.611 0.544,-12.342 2.395,-17.721 0.987,-2.865 4.776,-2.472 7.042,-0.812 2.783,2.039 3.186,6.218 3.262,9.365 0.125,5.215 -1.119,10.224 -1.76,15.354 -0.504,4.031 -2.029,9.232 -0.878,13.185 0.541,1.86 1.002,1.841 3.065,2.068 2.036,0.223 4.053,0.013 6.086,-0.155 1.01,-0.084 4.497,0.104 5.139,-0.716 0.254,-0.325 -0.138,-2.663 -0.163,-3.148 -0.093,-1.767 -0.313,-3.525 -0.416,-5.293 -0.294,-5.058 -0.731,-10.114 -0.971,-15.175 -0.155,-3.256 0.188,-6.411 0.671,-9.628 0.369,-2.461 0.297,-5.804 1.675,-7.923 1.527,-2.35 3.81,-1.816 5.931,-0.563 2.353,1.389 2.832,2.227 3.202,4.922 0.559,4.075 0.215,8.121 0.342,12.257 0.128,4.166 0.758,8.311 1.324,12.434 0.481,3.511 0.899,7.031 1.236,10.558 C -0.372,-5.034 1.023,-1.764 0,0"
             style="fill:#862369;fill-opacity:1;fill-rule:nonzero;stroke:none"
             id="path198" /></g><g
           id="g200"
           transform="translate(251.2056,219.2693)"><path
             d="m 0,0 c -0.136,1.966 -1.143,3.996 -1.027,5.969 0.08,1.366 0.783,2.835 1.292,4.083 1.298,3.175 3.191,6.539 5.205,9.28 1.183,1.612 3.145,2.415 5.123,2.648 2.548,0.3 1.746,-0.439 2.975,-2.396 0.982,-1.564 3.093,-2.47 3.922,-4.061 C 18.393,13.79 17.525,11.175 17.37,9.364 16.788,2.524 15.29,-6.919 10.246,-11.986 7.383,-14.862 4.22,-15.941 1.386,-12.304 -1.642,-8.42 0.547,-4.369 0,0 -0.073,1.052 0.21,-1.678 0,0 M 21.439,15.372 C 19.737,20.55 16.761,27.005 11.196,28.763 4.848,30.768 1.868,27.744 -2.43,23.561 c -8.833,-8.595 -14.648,-21.84 -9.721,-33.9 4.067,-9.956 20.66,-18.544 27.669,-6.521 2.868,4.918 6.181,10.778 6.401,16.552 0.203,5.294 1.188,10.566 -0.48,15.68"
             style="fill:#862369;fill-opacity:1;fill-rule:nonzero;stroke:none"
             id="path202" /></g><g
           id="g204"
           transform="translate(353.8227,225.2058)"><path
             d="m 0,0 c -0.137,1.965 -1.143,3.997 -1.027,5.97 0.08,1.365 0.783,2.835 1.292,4.082 1.298,3.174 3.192,6.539 5.205,9.28 1.184,1.613 3.146,2.414 5.125,2.647 2.547,0.301 1.745,-0.438 2.973,-2.395 C 14.55,18.02 16.661,17.113 17.49,15.523 18.393,13.79 17.524,11.175 17.37,9.364 16.788,2.521 15.287,-6.912 10.252,-11.988 7.393,-14.87 4.218,-15.939 1.386,-12.305 -1.642,-8.42 0.55,-4.37 0,0 -0.073,1.052 0.211,-1.68 0,0 M 21.44,15.367 C 19.899,20.074 17.099,26.415 12.224,28.434 9.977,29.365 6.9,30.076 4.563,29.295 2.095,28.469 0.161,26 -1.683,24.267 -10.63,15.863 -16.877,2.952 -12.554,-9.279 c 1.918,-5.424 5.892,-10.089 11.368,-12.105 5.514,-2.029 12.573,-1.601 16.153,3.611 1.606,2.337 2.54,5.156 3.917,7.633 1.535,2.762 2.734,5.612 3,8.803 0.455,5.448 1.238,11.446 -0.444,16.704"
             style="fill:#862369;fill-opacity:1;fill-rule:nonzero;stroke:none"
             id="path206" /></g><g
           id="g208"
           transform="translate(342.5511,251.4325)"><path
             d="m 0,0 c -0.368,4.129 -5.558,2.358 -8.217,2.206 -4.576,-0.261 -9.191,0.14 -13.772,0.081 -3.875,-0.051 -7.478,-0.659 -11.279,-1.203 -1.804,-0.257 -2.311,0.143 -2.763,-1.972 -0.256,-1.2 -0.139,-2.821 -0.039,-4.012 0.259,-3.11 1.379,-6.918 5.123,-6.698 1.657,0.097 3.136,0.93 4.692,1.401 0.629,0.19 1.19,0.37 1.848,0.429 1.819,0.162 1.695,0.18 2.107,-1.467 0.754,-3.02 0.277,-7.162 0.569,-10.297 0.857,-9.224 1.674,-18.578 3.37,-27.693 0.139,-0.745 0.171,-2.272 0.698,-2.876 1.909,-2.189 6.42,0.309 7.609,2.128 3.544,5.418 1.221,14.625 -0.025,20.392 -0.964,4.458 -1.941,8.889 -2.778,13.376 -0.296,1.59 -1.415,6.147 0.047,7.52 2.056,1.931 6.327,0.384 8.662,0.656 C -0.37,-7.588 0.279,-3.157 0,0 -0.108,1.215 0.183,-2.072 0,0"
             style="fill:#862369;fill-opacity:1;fill-rule:nonzero;stroke:none"
             id="path210" /></g><g
           id="g212"
           transform="translate(217.2404,236.7435)"><path
             d="m 0,0 c -0.587,1.935 -0.541,4.056 -0.969,6.038 -0.495,2.292 -1.304,3.397 1.4,3.999 4.5,1.001 10.048,1.956 12.412,-3.104 C 15.012,2.293 13.63,-1.358 9.449,-3.842 8.186,-4.592 2.55,-7.003 1.162,-5.969 -0.127,-5.007 0.476,-1.339 0,0 m 16.558,9.522 c -2.27,3.689 -4.024,8.202 -8.831,8.902 -3.733,0.544 -7.631,-0.939 -11.395,-1.097 -3.06,-0.128 -6.601,1.014 -6.306,-2.963 0.38,-5.123 -0.091,-10.397 -0.259,-15.546 -0.282,-8.677 0.37,-17.085 1.106,-25.702 0.284,-3.317 0.025,-7.146 0.691,-10.399 0.726,-3.548 4.819,-1.695 7.346,-1.068 9.998,2.481 4.07,16.326 2.867,22.872 3.312,0.331 5.841,-0.688 9.061,0.989 2.279,1.187 4.485,2.994 6.062,5.016 3.813,4.885 2.888,13.958 -0.342,18.996 -0.351,0.57 2.059,-3.21 0,0"
             style="fill:#862369;fill-opacity:1;fill-rule:nonzero;stroke:none"
             id="path214" /></g><g
           id="g216"
           transform="translate(307.5595,218.4944)"><path
             d="m 0,0 c -2.594,0.464 -2.597,-3.229 -3.137,-4.91 -1.035,-3.228 -3.122,-7.148 -6.006,-9.11 -3.631,-2.47 -6.473,0.771 -7.321,4.323 -0.925,3.874 0.174,8.213 0.259,12.154 0.172,8.001 1.288,16.012 1.437,23.982 0.053,2.847 -1.561,7.126 2.098,8.297 4.602,1.472 2.178,-4.057 1.3,-6.285 -1.012,-2.566 -2.19,-4.435 0.824,-5.56 4.9,-1.83 4.565,4.647 4.357,7.635 -0.51,7.332 -7.813,11.353 -13.38,5.549 -4.126,-4.302 -7.202,-11.995 -8.747,-17.625 -1.918,-6.986 -2.102,-15.824 -1.56,-23.096 0.708,-9.483 6.986,-17.967 17.494,-14.624 4.522,1.438 9.565,4.762 11.678,9.121 C 0.197,-8.29 3.756,-1.018 0,0 -2.046,0.366 1.394,-0.378 0,0"
             style="fill:#862369;fill-opacity:1;fill-rule:nonzero;stroke:none"
             id="path218" /></g><g
           id="g220"
           transform="translate(355.6438,141.2137)"><path
             d="m 0,0 c -2.657,0.954 -4.262,3.736 -4.477,6.454 -0.129,1.631 0.414,3.188 0.712,4.773 0.389,2.06 0.34,4.023 0.061,6.093 -0.167,1.235 -0.409,2.453 0.013,3.652 0.357,1.013 0.862,1.986 1.358,2.937 0.533,1.023 1.096,2.038 1.727,3.005 0.772,1.182 1.809,2.144 2.658,3.272 0.792,1.054 1.28,2.413 2.458,3.097 1.334,0.776 3.042,0.986 4.553,1.06 1.382,0.067 1.162,-0.419 1.566,-1.701 0.459,-1.46 1.532,-2.503 2.518,-3.625 1.12,-1.276 1.525,-1.932 1.261,-3.619 C 14.141,23.687 13.735,21.989 13.44,20.281 12.974,17.575 12.07,15.043 11.087,12.491 10.002,9.673 8.867,6.609 7.034,4.176 5.788,2.521 2.357,-0.838 0,0 -3.321,1.192 1.834,-0.652 0,0 m 18.226,27.18 c -0.855,3.755 -2.43,8.351 -5.06,11.272 -2.382,2.644 -7.701,4.62 -11.049,3.049 -1.974,-0.927 -3.685,-2.638 -5.397,-3.969 -1.53,-1.19 -2.965,-2.498 -4.286,-3.917 -2.972,-3.193 -5.78,-6.997 -7.495,-11.024 -3.386,-7.947 -2.682,-18.215 3.401,-24.708 3.062,-3.267 7.423,-5.283 11.91,-5.43 4.822,-0.159 8.237,2.188 10.613,6.244 2.506,4.28 5.837,8.185 6.441,13.285 0.331,2.797 0.613,5.466 1.214,8.221 0.523,2.393 0.235,4.611 -0.292,6.977"
             style="fill:#862369;fill-opacity:1;fill-rule:nonzero;stroke:none"
             id="path222" /></g><g
           id="g224"
           transform="translate(338.7425,180.5281)"><path
             d="M 0,0 C -0.775,1.021 -1.604,2.117 -2.831,2.615 -3.88,3.04 -5.325,3.173 -6.1,2.279 -7.13,1.091 -7.561,-0.652 -7.944,-2.136 c -0.433,-1.676 -0.866,-3.352 -1.27,-5.035 -0.964,-4.02 -1.982,-8.069 -2.785,-12.123 -0.171,-0.865 -0.235,-1.742 -0.313,-2.619 -0.017,-0.197 0.009,-0.442 -0.052,-0.627 -0.192,-0.579 0.166,-0.343 -0.498,-0.476 -0.628,-0.125 -1.61,0.203 -2.287,0.186 -1.002,-0.025 -2.001,-0.165 -3.004,-0.131 0.918,4.621 1.421,9.311 1.802,14.003 0.313,3.848 1.04,8.076 -0.057,11.86 -0.594,2.049 -1.762,3.39 -3.774,4.018 -2.034,0.635 -4.773,1.599 -6.914,1.051 -1.807,-0.463 -0.925,-2.208 -1.048,-3.577 -0.181,-2.006 -0.732,-3.993 -0.997,-5.994 -0.601,-4.542 -1.278,-9.119 -1.706,-13.679 -0.43,-4.58 -0.484,-9.244 -0.63,-13.841 -0.145,-4.59 -0.154,-9.208 0.165,-13.791 0.109,-1.567 0.381,-3.494 1.835,-4.397 1.122,-0.697 2.945,-0.924 4.162,-0.343 1.359,0.648 2.868,1.933 3.918,3 0.514,0.521 1.005,1.114 1.282,1.799 0.325,0.801 0.114,1.567 0.257,2.381 0.342,1.931 1.041,3.995 0.828,5.989 -0.173,1.619 -0.041,3.207 0.089,4.844 0.12,1.507 0.888,1.594 2.248,1.893 1.072,0.236 3.121,0.88 3.642,-0.427 0.419,-1.05 0.258,-2.505 0.225,-3.609 -0.037,-1.249 -0.135,-2.495 -0.24,-3.74 -0.259,-3.06 -0.196,-6.371 0.682,-9.331 0.51,-1.722 1.396,-3.398 3.184,-4.018 1.259,-0.437 3.871,-0.662 4.874,0.414 0.751,0.806 0.714,2.463 0.8,3.475 0.159,1.851 0.493,3.838 0.353,5.692 -0.135,1.782 -0.775,3.478 -0.905,5.263 -0.154,2.124 0.629,4.147 0.676,6.259 0.019,0.892 -0.324,1.735 -0.24,2.613 0.096,1.003 0.534,1.932 0.575,2.951 0.049,1.216 0.283,2.349 0.562,3.543 0.487,2.083 1.127,4.125 1.637,6.203 0.26,1.056 0.563,2.143 0.645,3.231 0.062,0.83 0.012,1.636 0.197,2.458 0.171,0.759 0.504,1.457 0.644,2.227 C 0.88,-3.103 0.95,-1.216 0,0 -1.258,1.657 1.154,-1.478 0,0"
             style="fill:#862369;fill-opacity:1;fill-rule:nonzero;stroke:none"
             id="path226" /></g><g
           id="g228"
           transform="translate(193.0531,145.9874)"><path
             d="m 0,0 c -0.048,-2.777 -1.272,-5.525 -2.214,-8.096 -0.713,-1.945 -2.248,-4.505 -4.32,-5.296 -0.226,1.325 -0.43,2.853 -0.376,4.203 0.051,1.248 0.935,2.312 1.615,3.298 C -3.779,-3.695 -2.111,-1.657 0,0 -0.035,-2.055 -1.817,-1.426 0,0 m 8.487,12.644 c -1.343,0.953 -2.535,1.761 -4.15,2.207 -1.556,0.43 -3.171,0.587 -4.76,0.846 0.988,1.88 2.514,3.356 3.7,5.094 0.557,0.817 0.936,1.734 1.501,2.548 0.534,0.769 1.299,1.525 1.545,2.45 0.437,1.639 0.045,3.819 -0.118,5.465 -0.22,2.214 -0.407,4.771 -2.566,5.881 -3.192,1.641 -6.953,2.68 -10.526,1.818 -2.364,-0.571 -4.358,-1.976 -5.973,-3.76 -0.717,-0.793 -1.358,-1.651 -1.99,-2.512 -0.309,-0.421 -1.309,-2.323 -2.004,-2.191 -0.296,0.395 0.416,1.398 0.441,1.859 0.053,0.994 -0.373,1.882 -1.153,2.473 -1.549,1.176 -3.394,1.68 -5.28,1.976 -0.783,0.122 -1.491,0.297 -2.192,-0.194 -0.737,-0.516 -1.151,-1.492 -1.434,-2.312 -0.751,-2.169 -0.275,-3.745 0.109,-5.924 0.107,-0.607 0.213,-1.089 0.177,-1.64 -0.031,-0.47 -0.081,-0.852 -0.02,-1.33 0.099,-0.771 0.515,-1.439 0.619,-2.168 0.138,-0.964 -0.053,-2.096 -0.063,-3.072 -0.011,-1.075 -0.009,-2.148 -0.051,-3.222 -0.183,-4.712 -1.208,-9.331 -0.704,-14.045 0.286,-2.678 -0.512,-5.396 -0.947,-8.021 -0.44,-2.653 -0.681,-5.291 -0.698,-7.981 -0.011,-1.681 -0.496,-4.402 0.759,-5.731 0.998,-1.058 3.299,-0.935 4.558,-0.451 2.321,0.893 2.068,3.837 1.941,5.858 -0.071,1.132 -0.196,2.287 0.051,3.406 0.247,1.112 0.1,2.184 0.225,3.312 0.515,4.655 1.156,9.363 2.447,13.873 0.832,2.908 1.835,5.766 2.604,8.693 0.701,2.668 2.186,4.81 3.159,7.359 0.447,1.168 0.848,2.359 1.525,3.42 0.68,1.066 1.694,1.782 2.332,2.879 0.597,1.025 0.729,1.431 1.84,1.956 1.22,0.577 2.387,1.559 3.668,1.956 0.125,-4.783 -1.201,-9.504 -3.515,-13.671 -1.21,-2.179 -2.687,-4.21 -4.352,-6.064 -0.69,-0.769 -1.406,-1.527 -2.157,-2.237 -0.722,-0.682 -2.441,-1.432 -2.786,-2.342 -0.537,-1.416 1.683,-2.453 2.661,-2.916 0.329,-0.156 0.779,-0.439 1.146,-0.483 0.838,-0.1 1.732,0.754 2.415,1.264 0.967,0.722 1.866,1.527 2.766,2.328 0.904,0.806 1.949,2.161 3.224,2.251 2.685,0.188 3.256,-1.918 3.535,-4.128 C 0.087,6.703 0.336,5.972 -0.11,5.427 -0.619,4.807 -1.749,4.407 -2.445,4.033 -4.662,2.844 -6.502,1.191 -8.239,-0.615 c -2.664,-2.771 -6.19,-6.703 -5.535,-10.907 0.61,-3.918 3.981,-5.707 7.625,-5.777 2.437,-0.048 5.015,0.708 6.965,2.194 0.915,0.697 1.604,1.644 2.509,2.349 0.954,0.743 1.798,1.304 2.472,2.347 1.437,2.221 2.047,4.849 3.471,7.087 1.218,1.913 1.976,4.293 2.217,6.542 0.391,3.661 0.174,7.172 -2.998,9.424 -0.215,0.152 1.497,-1.063 0,0"
             style="fill:#862369;fill-opacity:1;fill-rule:nonzero;stroke:none"
             id="path230" /></g><g
           id="g232"
           transform="translate(243.3269,181.4539)"><path
             d="M 0,0 C -0.384,1.118 -1.161,2.591 -2.513,2.621 -3.909,2.652 -5.66,1.695 -6.864,1.073 c -2.948,-1.522 -4.959,-3.253 -6.647,-6.119 -2.502,-4.25 -5.689,-8.061 -9.024,-11.696 0.126,3.562 0.925,7.135 0.727,10.707 -0.147,2.662 -2.098,3.963 -4.678,4.278 -1.077,0.132 -2.522,0.245 -3.62,0.176 -1.381,-0.087 -1.59,-1.01 -1.556,-2.182 0.045,-1.586 0.275,-3.166 0.356,-4.751 0.099,-1.944 -0.294,-3.532 -0.631,-5.423 -0.72,-4.034 -1.209,-8.154 -1.815,-12.211 -0.508,-3.397 -0.908,-6.811 -1.295,-10.225 -0.22,-1.95 -0.3,-3.898 -0.365,-5.858 -0.042,-1.269 -0.121,-2.828 0.556,-3.969 1.206,-2.032 5.179,-1.576 6.992,-0.759 0.284,0.128 0.526,0.286 0.79,0.448 0.436,0.267 0.437,0.229 0.887,0.379 0.947,0.315 1.427,0.842 1.68,1.831 0.425,1.664 0.756,3.38 1.136,5.059 0.208,0.915 0.497,1.79 0.743,2.692 0.251,0.922 0.254,1.778 0.597,2.654 0.616,1.577 0.416,3.248 1.04,4.841 2.159,-3.665 2.409,-7.944 4.169,-11.772 1.686,-3.666 4.211,-8.077 8.512,-8.936 2.116,-0.423 5.066,-0.428 5.824,2.051 0.108,0.355 0.358,1.738 -10e-4,2.103 -0.099,0.099 -0.497,0.037 -0.64,0.102 -0.537,0.246 -1.017,0.676 -1.424,1.105 -1.586,1.673 -1.903,4.049 -2.992,6.011 -1.092,1.969 -2.38,4.093 -2.865,6.321 -0.292,1.336 -0.416,2.587 -0.913,3.879 -0.467,1.216 -0.125,2.452 -0.712,3.624 -0.502,1 -1.056,1.7 -1.35,2.802 -0.276,1.039 -0.722,1.926 -1.742,2.398 1.322,2.137 2.535,4.378 4.04,6.393 1.301,1.742 2.457,3.647 4.112,5.078 1.545,1.334 3.515,2.132 4.92,3.593 0.41,0.427 0.778,0.914 1.233,1.297 0.291,0.245 0.722,0.399 0.932,0.723 C 0.527,-1.644 0.224,-0.653 0,0 -0.503,1.465 0.278,-0.812 0,0"
             style="fill:#862369;fill-opacity:1;fill-rule:nonzero;stroke:none"
             id="path234" /></g><g
           id="g236"
           transform="translate(269.9456,172.0994)"><path
             d="m 0,0 c -1.121,0.936 -4.579,1.979 -5.708,0.63 -0.589,-0.702 -0.33,-1.711 -0.161,-2.515 0.287,-1.362 -0.227,-2.813 -0.48,-4.172 -0.565,-3.031 -1.32,-5.756 -3.13,-8.292 -1.468,-2.056 -3.433,-4.549 -5.817,-5.588 0.339,1.356 0.056,2.853 -0.177,4.2 -0.249,1.442 -0.405,2.829 -0.519,4.285 -0.114,1.455 -0.412,2.88 -0.592,4.326 -0.071,0.565 0.003,0.963 0.116,1.512 0.138,0.67 0.216,0.7 0.593,1.206 2.372,3.181 -5.736,7.864 -8.358,5.769 -0.83,-0.662 -0.673,-1.87 -0.771,-2.806 -0.142,-1.358 -0.437,-2.7 -0.56,-4.065 -0.251,-2.815 -0.007,-5.698 0.328,-8.495 0.494,-4.132 2.859,-9.633 7.535,-10.383 2.94,-0.471 5.143,1.82 7,3.764 2.033,2.13 3.364,4.532 5.062,6.903 0.495,-5.516 0.552,-11.081 -0.027,-16.593 -0.482,-4.589 -0.995,-9.813 -3.66,-13.715 -0.251,-0.369 -1.148,-1.871 -1.671,-1.883 -0.61,-0.013 -0.771,2.374 -0.793,2.827 -0.053,1.121 0.132,2.238 0.512,3.293 0.378,1.048 1.118,1.786 1.58,2.75 0.773,1.613 -0.853,4.655 -2.778,3.486 -0.929,-0.565 -1.805,-1.31 -2.715,-1.918 -0.884,-0.592 -1.856,-1.169 -2.608,-1.933 -1.225,-1.245 -2.061,-3.223 -2.527,-4.875 -0.286,-1.014 -0.404,-2.032 -0.299,-3.082 0.099,-0.993 -0.085,-1.97 -0.018,-2.961 0.107,-1.6 1.36,-3.062 2.761,-3.742 2.117,-1.028 4.132,-0.029 6.302,0.146 2.284,0.185 3.682,1.805 4.972,3.57 1.316,1.802 2.626,3.616 3.613,5.624 2.146,4.368 3.21,9.158 3.364,14.003 0.036,1.165 0.421,2.179 0.587,3.304 0.091,0.612 -0.133,1.159 -0.128,1.759 0.004,0.53 0.22,1.035 0.243,1.566 0.059,1.306 -0.358,2.698 -0.02,3.986 0.326,1.239 0.275,2.283 0.263,3.56 -0.013,1.361 0.373,2.694 0.478,4.05 0.11,1.421 0.192,2.994 0.443,4.381 0.224,1.24 0.844,2.174 0.239,3.437 C 1.951,-1.589 0.947,-0.716 0,0 -0.954,0.797 0.994,-0.752 0,0"
             style="fill:#862369;fill-opacity:1;fill-rule:nonzero;stroke:none"
             id="path238" /></g><g
           id="g240"
           transform="translate(303.7552,143.4959)"><path
             d="m 0,0 c -3.556,1.652 -5.126,-2.74 -7.277,-4.635 -1.026,-0.903 -2.372,-1.884 -3.813,-1.826 -1.731,0.07 -2.864,1.73 -3.472,3.177 -1.318,3.133 -0.48,6.65 0.118,9.852 0.718,3.842 1.087,7.783 1.65,11.651 0.279,1.924 0.539,3.838 0.878,5.753 0.364,2.055 0.385,4.142 0.872,6.172 0.463,1.936 0.65,3.709 0.677,5.698 0.015,1.104 -0.07,2.753 0.568,3.731 0.495,0.757 2.606,1.764 3.468,1.397 0.426,-0.18 1.092,-0.953 1.198,-1.395 0.223,-0.923 -0.531,-2.048 -0.953,-2.805 -0.588,-1.055 -1.258,-2.051 -1.55,-3.234 -0.24,-0.97 -0.67,-2.654 -0.095,-3.579 0.709,-1.14 2.935,-1.387 3.98,-0.691 1.314,0.874 1.553,2.527 1.633,3.966 0.157,2.833 0.724,6.117 -0.954,8.632 -1.618,2.425 -4.953,3.751 -7.767,2.935 -2.517,-0.73 -4.454,-2.809 -5.977,-4.842 -1.487,-1.987 -2.686,-4.165 -3.906,-6.32 -2.046,-3.616 -3.796,-7.199 -4.662,-11.289 -1.263,-5.962 -2.348,-12.516 -2.248,-18.63 0.056,-3.441 0.666,-7.028 2.697,-9.89 2.303,-3.247 6.24,-5.162 10.184,-5.284 4.127,-0.128 8.738,1.554 11.831,4.316 C -1.922,-6.249 2.035,-0.941 0,0 -0.906,0.421 0.788,-0.364 0,0"
             style="fill:#862369;fill-opacity:1;fill-rule:nonzero;stroke:none"
             id="path242" /></g><g
           id="g244"
           transform="translate(271.6373,321.2511)"><path
             d="m 0,0 c -1.404,-4.241 -5.454,-7.177 -9.92,-7.27 -2.937,-0.061 -5.628,1.02 -6.308,5.393 -1.145,7.366 3.391,4.686 2.177,11.795 -1.215,7.11 -4.972,6.156 -7.76,11.371 -2.788,5.215 4.924,15.022 13.961,6.538 C -0.394,20.828 3.6,10.875 0,0"
             style="fill:#862369;fill-opacity:1;fill-rule:nonzero;stroke:none"
             id="path246" /></g><g
           id="g248"
           transform="translate(254.2247,339.4442)"><path
             d="m 0,0 c 0,0 5.733,-0.764 5.988,-5.988 0.255,-5.224 -2.421,-5.479 -2.421,-5.479 0,0 -0.564,5.734 -4.334,9.793 C -1.634,-0.74 0,0 0,0"
             style="fill:#b584a1;fill-opacity:1;fill-rule:nonzero;stroke:none"
             id="path250" /></g><g
           id="g252"
           transform="translate(218.1935,357.238)"><path
             d="m 0,0 c 0.62,4.424 4.077,8.039 8.454,8.933 2.878,0.588 5.719,0.008 7.173,-4.173 2.449,-7.041 -2.495,-5.218 -0.023,-11.994 2.471,-6.776 5.996,-5.163 9.675,-9.792 3.679,-4.63 -2.146,-15.662 -12.56,-8.939 C 4.127,-20.419 -1.589,-11.345 0,0"
             style="fill:#862369;fill-opacity:1;fill-rule:nonzero;stroke:none"
             id="path254" /></g><g
           id="g256"
           transform="translate(238.5898,342.4673)"><path
             d="m 0,0 c 0,0 -5.777,-0.277 -6.966,4.816 -1.189,5.093 1.398,5.824 1.398,5.824 0,0 1.585,-5.539 6.022,-8.856 C 1.474,1.021 0,0 0,0"
             style="fill:#b584a1;fill-opacity:1;fill-rule:nonzero;stroke:none"
             id="path258" /></g></g></g></g></svg>
