<svg width="618" height="356" viewBox="0 0 618 356" fill="none" xmlns="http://www.w3.org/2000/svg">
<path d="M53.556 121.949C57.5188 114.875 54.9973 105.929 47.9242 101.966C40.8511 98.0036 31.9048 100.525 27.942 107.598C23.9793 114.671 26.5007 123.618 33.5738 127.58C40.6469 131.543 49.5933 129.022 53.556 121.949Z" fill="#F7941D"/>
<path d="M37.6833 98.5788C34.2399 99.3307 31.2099 101.361 29.2049 104.26C28.1944 103.498 27.3557 102.533 26.7436 101.425C26.1315 100.318 25.7598 99.0941 25.6526 97.8335C25.6465 97.7965 25.6321 97.7615 25.6106 97.7308C25.589 97.7002 25.5609 97.6748 25.5282 97.6565C25.4956 97.6382 25.4592 97.6275 25.4219 97.6251C25.3845 97.6227 25.3471 97.6288 25.3124 97.6428C23.5599 98.2543 23.3739 100.305 24.1613 101.743C25.1356 103.413 26.6727 104.68 28.4969 105.319C28.4187 105.458 28.3405 105.598 28.2623 105.737C28.2213 105.778 28.1926 105.83 28.1792 105.886C27.0767 106.617 26.1597 107.594 25.5011 108.742C24.8424 109.889 24.4603 111.174 24.385 112.494C24.3753 112.553 24.3825 112.613 24.4057 112.667C24.4289 112.721 24.4671 112.768 24.5158 112.801C24.5646 112.834 24.6219 112.853 24.6809 112.855C24.7399 112.857 24.7983 112.842 24.8491 112.812C27.2522 111.481 29.1673 109.418 30.3153 106.922C31.8569 109.305 34.267 110.992 37.0334 111.626C37.0881 111.636 37.1445 111.631 37.1969 111.612C37.2494 111.594 37.2961 111.562 37.3324 111.52C37.3688 111.478 37.3935 111.427 37.4042 111.372C37.4148 111.318 37.4111 111.261 37.3933 111.208C36.9863 109.849 36.3244 108.58 35.4427 107.468C35.0817 107.012 34.684 106.586 34.2536 106.194C33.4287 105.457 32.7545 105.228 33.8686 104.385C35.8799 102.841 37.3784 101.537 38.0598 98.9502C38.0648 98.8998 38.0584 98.8488 38.0412 98.8011C38.024 98.7535 37.9963 98.7102 37.9602 98.6746C37.9241 98.639 37.8805 98.6119 37.8326 98.5954C37.7847 98.5788 37.7337 98.5731 37.6833 98.5788Z" fill="#009444"/>
<path d="M349.337 302.255C349.337 302.255 353.397 331.538 377.414 324.141L378.381 322.904C378.381 322.904 381.796 298.554 349.337 302.255Z" fill="#009444"/>
<path d="M354.87 311.765C355.935 312.093 359.316 311.634 360.929 311.373L364.888 314.519C361.177 313.868 356.865 316.566 356.865 316.566C358.098 317.039 363.797 315.794 365.871 315.305L369.782 318.416C367.162 318.935 364.58 319.63 362.053 320.496C363.471 320.902 364.964 320.968 366.411 320.688C367.859 320.408 369.22 319.791 370.384 318.886L381.082 327.389C381.193 327.477 381.321 327.539 381.458 327.57C381.596 327.602 381.738 327.603 381.876 327.572C382.013 327.542 382.142 327.481 382.253 327.395C382.364 327.308 382.455 327.197 382.517 327.071C382.615 326.879 382.644 326.659 382.599 326.448C382.555 326.236 382.439 326.047 382.272 325.911C380.723 324.693 376.397 321.277 371.554 317.587C372.16 316.233 372.438 314.756 372.367 313.275C372.296 311.793 371.878 310.35 371.145 309.06C370.902 311.741 370.843 314.435 370.967 317.125L366.94 314.197C366.912 312.216 366.786 306.099 366.004 305.004C366.004 305.004 364.316 310.085 366.058 313.541C364.651 312.503 363.266 311.495 361.968 310.571C361.881 309.362 361.494 305.291 360.865 304.248C360.4 305.173 360.196 306.207 360.274 307.239C360.352 308.271 360.709 309.263 361.307 310.107C357.299 307.285 354.146 305.313 353.45 305.539L359.76 310.546C358.906 310.357 358.02 310.369 357.172 310.581C356.323 310.793 355.535 311.198 354.87 311.765Z" fill="#50B848"/>
<path d="M221.329 267.733C221.329 267.733 130.862 285.448 138.733 191.903L144.831 193.326C144.831 193.326 241.078 152.87 221.329 267.733Z" fill="#A6CE39"/>
<path d="M128.19 175C128.19 175 145.093 190.276 163.941 208.05C168.126 205.269 172.909 203.515 177.9 202.93C182.89 202.344 187.949 202.944 192.664 204.681C183.805 206.981 174.801 208.679 165.713 209.764C169.75 213.568 173.845 217.46 177.852 221.381C184.474 220.335 205.036 217.402 209.16 219.406C209.16 219.406 193.071 227.857 180.524 223.936C184.794 228.09 188.918 232.155 192.751 236.018C197.049 235.67 210.67 234.682 214.533 236.192C211.695 238.264 208.346 239.524 204.846 239.836C201.347 240.148 197.828 239.501 194.668 237.964C206.285 249.813 214.678 259.281 214.301 261.721L193.971 243.395C195.085 246.17 195.536 249.166 195.289 252.145C195.042 255.125 194.103 258.006 192.548 260.559C190.893 257.19 190.573 245.573 190.515 240.229L177.765 228.612C182.035 240.694 175.355 256.58 175.355 256.58C173.06 252.746 174.106 232.969 174.571 225.737L162.024 214.352C161.716 223.426 160.804 232.468 159.294 241.42C157.168 236.894 156.133 231.932 156.275 226.933C156.416 221.934 157.729 217.038 160.108 212.639L120 179.56L128.19 175Z" fill="#50B848"/>
<path d="M276.736 325.86C277.704 325.179 278.584 324.38 279.357 323.481C281.238 321.311 282.453 318.636 282.854 315.782C283.255 312.927 282.825 310.017 281.615 307.405C280.405 304.793 278.469 302.593 276.041 301.071C273.614 299.55 270.8 298.774 267.943 298.837C267.699 297.044 266.82 295.401 265.468 294.211C265.018 293.838 264.53 293.513 264.012 293.242C263.799 291.164 263.154 289.154 262.119 287.344C261.083 285.534 259.68 283.965 258.003 282.74C256.325 281.515 254.409 280.66 252.382 280.233C250.354 279.805 248.26 279.814 246.236 280.26C245.684 279.13 244.864 278.156 243.849 277.424C242.833 276.692 241.654 276.224 240.416 276.063C239.178 275.902 237.92 276.051 236.754 276.499C235.587 276.947 234.549 277.679 233.73 278.629C232.952 279.542 232.403 280.63 232.129 281.802C228.397 280.853 224.445 281.418 221.121 283.376C217.798 285.334 215.368 288.528 214.353 292.273C213.218 292.304 212.104 292.592 211.095 293.117C210.086 293.641 209.207 294.388 208.523 295.303C207.839 296.217 207.369 297.276 207.146 298.399C206.924 299.522 206.955 300.681 207.238 301.79C207.521 302.9 208.048 303.93 208.78 304.806C209.512 305.681 210.43 306.379 211.466 306.848C212.502 307.316 213.629 307.543 214.764 307.511C215.899 307.48 217.013 307.19 218.022 306.665C218.298 306.944 218.575 307.223 218.866 307.488C221.143 309.496 223.981 310.742 226.99 311.056C234.269 322.379 222.375 350.254 222.375 350.254L237.588 353C240.747 336.845 249.948 324.215 256.922 323.231C257.418 323.825 257.953 324.384 258.523 324.905C259.587 325.819 260.767 326.584 262.032 327.182C261.883 328.318 261.991 329.474 262.345 330.563C262.7 331.652 263.293 332.647 264.08 333.473C264.868 334.299 265.83 334.936 266.895 335.336C267.96 335.736 269.1 335.89 270.232 335.784C271.363 335.679 272.457 335.319 273.431 334.729C274.406 334.139 275.236 333.336 275.861 332.379C276.486 331.421 276.889 330.334 277.04 329.198C277.192 328.062 277.088 326.906 276.736 325.816V325.86ZM236.948 308.545C237.961 307.839 238.885 307.011 239.699 306.078C240.801 306.866 241.97 307.554 243.193 308.134C239.757 314.008 236.409 321.704 236.409 321.704C237.548 317.411 237.732 312.918 236.948 308.545ZM243.63 322.056L250.662 310.307C250.679 311.28 250.959 312.229 251.472 313.052C251.985 313.875 252.712 314.541 253.573 314.978C250.099 317.1 246.776 319.465 243.63 322.056Z" fill="#A6CE39"/>
<g clip-path="url(#clip0)">
<path d="M384.849 85.2388C386.392 85.0296 387.811 84.2808 388.855 83.1252C390.489 81.2856 390.893 78.6508 391.511 76.2574C389.508 76.329 387.541 76.823 385.742 77.707C383.942 78.5911 382.35 79.8453 381.068 81.3875L381.724 77.9721C382.322 77.1391 383.081 76.4348 383.957 75.9014C384.832 75.3679 385.806 75.0162 386.821 74.867C388.361 74.6492 389.777 73.9019 390.826 72.7534C392.459 70.906 392.863 68.2712 393.473 65.8796C391.477 65.958 389.52 66.4543 387.728 67.3365C385.936 68.2186 384.349 69.4668 383.069 71.0005L383.841 67.1515C385.27 66.3642 388.042 64.5193 388.553 61.8432C389.243 58.2204 385.956 52.0873 385.956 52.0873C385.956 52.0873 380.637 56.5643 379.94 60.1969C379.452 62.7182 381.123 65.3132 382.181 66.6549L381.476 70.3226C380.826 68.5102 379.815 66.8486 378.504 65.4387C377.193 64.0288 375.609 62.8998 373.848 62.1203C373.533 64.5682 372.937 67.1642 373.773 69.4873C374.397 71.1265 375.631 72.4604 377.217 73.209C378.579 73.9083 379.668 75.0417 380.313 76.4298L379.45 80.6738C378.802 78.8602 377.792 77.1976 376.48 75.7874C375.169 74.3772 373.584 73.2489 371.822 72.4715C371.507 74.9194 370.911 77.5154 371.746 79.8306C372.371 81.4712 373.605 82.8073 375.191 83.5601C376.551 84.2599 377.641 85.3886 378.293 86.7713L377.477 91.1122C376.826 89.2997 375.814 87.6382 374.501 86.2286C373.189 84.819 371.603 83.6906 369.842 82.9118C369.535 85.3578 368.931 87.9557 369.767 90.2787C370.394 91.9182 371.631 93.2514 373.219 93.9986C374.575 94.7053 375.662 95.8366 376.314 97.2194L375.488 101.513C374.837 99.7014 373.825 98.0404 372.514 96.6306C371.203 95.2208 369.62 94.0915 367.86 93.3108C367.545 95.7587 366.95 98.3547 367.786 100.678C368.408 102.318 369.642 103.652 371.229 104.399C372.589 105.101 373.678 106.234 374.325 107.62L373.498 111.914C372.851 110.1 371.841 108.438 370.529 107.028C369.218 105.617 367.633 104.489 365.871 103.712C365.556 106.16 364.96 108.756 365.794 111.071C366.419 112.711 367.654 114.047 369.24 114.8C370.599 115.5 371.689 116.629 372.341 118.011L365.944 151.132L367.631 151.456L373.945 118.554L374.471 118.599C375.652 117.399 377.189 116.613 378.853 116.356C380.396 116.146 381.814 115.397 382.858 114.243C384.493 112.403 377.653 109.442 375.104 112.498L375.759 109.082C376.357 108.249 377.116 107.545 377.992 107.012C378.867 106.478 379.842 106.127 380.856 105.977C382.394 105.761 383.808 105.014 384.853 103.866C386.494 102.016 386.898 99.3816 387.508 96.99C385.515 97.0699 383.56 97.5674 381.771 98.4502C379.982 99.3331 378.398 100.582 377.122 102.115L377.778 98.6998C378.374 97.8652 379.133 97.1594 380.008 96.6245C380.884 96.0897 381.858 95.7367 382.873 95.5868C384.41 95.3691 385.824 94.6223 386.87 93.4751C388.503 91.6276 388.907 88.9929 389.527 86.6073C387.53 86.6822 385.572 87.177 383.779 88.0594C381.987 88.9417 380.4 90.1918 379.123 91.7283L379.771 88.3147C380.371 87.491 381.129 86.7949 382.001 86.2668C382.873 85.7388 383.841 85.3893 384.849 85.2388Z" fill="#F7941D"/>
<path d="M303.307 72.5326C308.235 63.5951 303.275 34.0556 299.716 35.7669C291.247 39.8426 294.548 52.6828 293.541 54.7926C291.09 49.5458 282.202 30.8968 279.782 37.0288C277.651 42.5045 280.907 53.968 283.473 57.3777C281.739 57.2802 273.568 43.8885 269.926 53.0353C267.335 59.5392 290.632 77.7056 296.516 77.433C297.281 77.3642 302.699 73.6367 303.307 72.5326Z" fill="#50B848"/>
<path d="M367.128 146.589C362.164 136.542 357.201 126.503 352.372 116.391C347.756 106.737 341.649 97.1033 335.175 87.4965C326.331 74.3932 312.755 59.3943 298.19 73.0679C283.288 87.0438 302.893 105.732 312.532 115.844C319.937 123.643 327.922 130.869 336.419 137.462C343.5 142.942 351.161 148.446 359.658 151.497C359.911 151.696 370.729 157.458 370.747 157.463C371.697 157.691 368.013 148.37 367.128 146.589Z" fill="#F7941D"/>
<path d="M333.667 128.796C333.667 128.796 334.748 116.33 343.951 106.811C357.986 92.2799 375.626 109.155 396.722 102.425C405.314 99.6747 416.78 101.376 415.44 115.123C413.661 133.298 338.314 157.013 333.667 128.796Z" fill="#A6CE39"/>
<path d="M226.468 193.12C237.064 193.61 247.976 191.154 258.209 189.319C274.161 186.462 290.065 184.006 305.884 180.465C313.031 178.862 320.128 177.047 327.345 175.818C333.459 174.779 339.633 173.924 345.619 172.225C351.162 170.653 356.752 168.355 360.143 163.477C363.315 158.907 365.375 153.771 368.139 148.947C364.388 143.934 361.33 141.053 354.195 138.434C345.919 135.365 351.323 126.981 344.561 121.12C342.005 118.904 336.269 120.322 333.153 119.024C322.531 114.612 326.686 109.017 322.148 104.369C315.146 97.1515 304.921 97.0409 294.783 99.4677C290.408 100.521 285.691 106.237 281.595 105.481C276.156 104.48 273.697 102.217 267.963 104.182C261.119 106.52 256.809 110.44 255.729 116.619C244.26 114.005 232.647 116.591 229.076 127.839C227.651 132.454 228.745 137.184 228.017 141.87C227.241 147.206 222.332 149.612 218.285 152.516C210.808 157.899 201.566 175.233 204.952 184.666C208.136 193.447 220.383 187.136 226.468 193.12Z" fill="#50B848"/>
<path d="M321.98 135.908C307.49 139.773 305.539 118.69 296.377 118.258C286.223 117.774 269.924 129.59 268.137 138.026C267.97 138.812 271.484 140.25 271.75 139.499C273.386 134.827 277.707 129.551 281.419 126.027C287.552 120.216 300.711 119.399 304.379 128.725C306.002 132.834 310.277 136.704 314.652 138.666C319.6 140.885 324.64 136.132 329.523 135.659C332.467 135.316 335.443 135.918 338.022 137.38C340.6 138.842 342.645 141.086 343.862 143.788C346.287 149.282 344.234 154.274 341.312 158.986C341.297 159.014 341.291 159.046 341.296 159.078C341.301 159.109 341.317 159.138 341.34 159.16C341.363 159.182 341.392 159.196 341.424 159.199C341.455 159.203 341.487 159.196 341.515 159.18C347.67 154.908 349.167 144.422 344.676 138.725C338.766 131.23 329.915 133.8 321.98 135.908Z" fill="#A6CE39"/>
<path d="M333.602 149.457L337.766 148.677C336.028 146.786 333.901 145.294 331.53 144.306C327.185 142.395 320.127 145.281 315.559 145.681C309.143 146.276 304.936 144.857 301.657 139.154C300.808 137.442 299.868 135.777 298.843 134.165C294.672 128.486 286.052 128.17 283.455 135.514C283.172 136.302 284.34 136.97 284.795 136.209C286.562 133.251 295.147 133.234 297.257 135.354C298.501 136.603 299.096 138.458 299.982 139.956C300.864 141.727 302.003 143.358 303.361 144.797C307.535 148.699 312.822 147.817 318.057 147.288C323.942 146.658 329.801 146.632 333.602 149.457Z" fill="#A6CE39"/>
<path d="M284.329 117.523C278.172 111.871 270.142 107.067 265.413 115.427C263.404 118.989 263.849 122.64 260.052 124.971C255.78 127.545 253.768 125.095 249.417 125.246C248.062 125.329 246.739 125.687 245.528 126.3C244.317 126.913 243.244 127.767 242.375 128.809L243.589 130.039C244.392 129.251 245.344 128.633 246.39 128.22C247.436 127.807 248.554 127.608 249.679 127.635C251.862 127.661 254.041 127.857 256.194 128.222C258.576 128.501 260.773 129.056 262.684 127.551C264.45 126.138 264.965 123.046 265.864 121.078C266.478 119.781 267.266 117.083 268.4 115.882C273.984 110.032 279.22 114.967 283.222 118.626C283.894 119.234 285.058 118.193 284.329 117.523Z" fill="#A6CE39"/>
<path d="M329.743 131.364C330.176 129.709 330.154 127.967 329.681 126.323C329.207 124.679 328.298 123.192 327.051 122.021C325.614 120.692 323.985 120.438 322.267 119.581C317.698 117.315 315.801 111.874 312.908 108.274C306.058 99.7343 293.146 106.905 286.035 111.821C285.597 112.122 285.928 113.947 288.252 112.97C292.025 111.325 295.475 108.858 299.504 107.927C307.31 106.122 310.984 110.297 314.673 116.229C315.614 117.893 316.995 119.265 318.664 120.198C319.316 120.579 320.128 120.64 320.787 121.011C323.959 122.769 328.51 127.04 328.263 131.142C328.211 131.96 329.565 132.211 329.743 131.364Z" fill="#A6CE39"/>
<path d="M268.875 206.785C291.812 215.6 337.822 220.452 349.874 191.455C362.148 161.909 332.479 150.315 310.301 145.643C296.925 142.83 283.61 140.926 271.09 135.134C254.851 127.627 241.175 101.921 222.872 101.436C219.407 99.745 202.789 98.4631 200.157 116.254C202.198 155.546 233.164 193.092 268.875 206.785Z" fill="#872368"/>
<path d="M206.119 101.405C202.842 98.6915 200.696 94.0802 200.189 90.128C199.716 86.3589 201.908 82.2563 206.109 82.4642C206.192 82.4709 206.272 82.4961 206.344 82.5379C206.416 82.5797 206.478 82.6371 206.525 82.7059C206.572 82.7747 206.603 82.8531 206.616 82.9353C206.629 83.0176 206.623 83.1017 206.599 83.1815C205.723 85.9185 205.435 88.8093 205.753 91.6652C206.071 94.5211 206.989 97.2776 208.445 99.7546C215.159 95.4534 235.045 100.091 234.679 100.591C231.764 104.545 225.437 102.038 221.315 103.323C226.639 103.969 231.886 109.525 232.889 110.954C234.304 113.052 224.777 110.537 218.055 109.666C218.373 110.437 218.649 111.224 218.882 112.025C219.756 115.121 220.039 118.355 219.716 121.557C219.704 121.682 219.66 121.802 219.588 121.905C219.516 122.009 219.419 122.092 219.306 122.147C219.193 122.202 219.068 122.228 218.942 122.221C218.817 122.214 218.695 122.175 218.589 122.108C214.983 119.519 212.134 116.015 210.336 111.957C209.578 116.044 208.433 120.287 206.898 120.833C204.847 121.556 204.345 114.389 204.477 109.575C200.758 111.954 196.172 121.868 196.291 117.281C196.568 111.329 205.836 101.62 206.119 101.405Z" fill="#009444"/>
<path d="M258.2 53.1551C257.725 50.9742 256.56 49.0042 254.879 47.5358C253.198 46.0675 251.088 45.1787 248.863 45.0006C246.638 44.8226 244.414 45.3647 242.52 46.547C240.626 47.7293 239.163 49.4891 238.346 51.5665C237.122 51.2397 235.82 51.3694 234.684 51.9314C234.326 52.1088 233.989 52.3261 233.68 52.579C232.278 52.1589 230.803 52.0394 229.351 52.2284C227.9 52.4173 226.505 52.9105 225.257 53.6755C224.009 54.4406 222.937 55.4604 222.111 56.6682C221.284 57.876 220.722 59.2446 220.461 60.6845C219.754 60.7293 219.062 60.9117 218.425 61.2216C217.599 61.6196 216.889 62.225 216.367 62.9787C215.844 63.7324 215.525 64.6087 215.442 65.5221C215.359 66.4355 215.513 67.3549 215.891 68.1906C216.269 69.0263 216.857 69.7499 217.598 70.2907C215.967 72.4645 215.254 75.191 215.611 77.8846C215.968 80.5783 217.368 83.0245 219.509 84.698C219.229 85.4441 219.12 86.2434 219.189 87.0372C219.259 87.8309 219.506 88.599 219.911 89.2849C220.317 89.9707 220.871 90.557 221.533 91.0005C222.195 91.4441 222.948 91.7336 223.737 91.8478C224.526 91.9621 225.33 91.8982 226.091 91.6608C226.851 91.4233 227.549 91.0185 228.133 90.4759C228.717 89.9334 229.171 89.2669 229.464 88.5256C229.756 87.7842 229.878 86.9868 229.822 86.192C230.081 86.0906 230.34 85.9892 230.577 85.8678C232.491 84.9244 234.068 83.4145 235.093 81.5434C244.407 79.8301 259.132 95.1615 259.132 95.1615L265.071 85.9985C255.455 79.5432 249.864 70.164 251.159 65.3467C251.681 65.1869 252.191 64.9886 252.684 64.7535C253.567 64.3127 254.385 63.7518 255.114 63.087C255.807 63.4878 256.58 63.7278 257.378 63.7894C258.176 63.851 258.978 63.7326 259.724 63.4429C260.469 63.1533 261.141 62.6997 261.688 62.1158C262.235 61.5319 262.644 60.8326 262.884 60.0695C263.125 59.3064 263.191 58.4991 263.077 57.7071C262.964 56.9151 262.674 56.1588 262.229 55.4939C261.784 54.8291 261.195 54.2728 260.506 53.8661C259.817 53.4593 259.045 53.2126 258.248 53.1441L258.2 53.1551ZM236.142 74.3664C235.964 73.5164 235.682 72.6918 235.3 71.9117C236.108 71.4104 236.871 70.8394 237.58 70.2053C240.461 74.0406 244.492 78.2908 244.492 78.2908C242.331 76.382 239.123 75.1553 236.142 74.3664ZM246.692 73.6879L241.07 65.9353C241.697 66.1898 242.38 66.269 243.048 66.1643C243.716 66.0596 244.343 65.775 244.862 65.341C245.278 68.1624 245.895 70.9505 246.708 73.6842L246.692 73.6879Z" fill="#A6CE39"/>
<path d="M174.725 122.732C174.725 122.732 169.668 148.101 195.939 145.972L195.542 144.254C195.542 144.254 207.022 117.275 174.725 122.732Z" fill="#A6CE39"/>
<path d="M200.672 148.948C200.672 148.948 196.398 144.189 191.426 138.885C192.215 137.716 192.714 136.375 192.883 134.974C193.051 133.574 192.885 132.153 192.396 130.83C191.743 133.311 191.26 135.834 190.952 138.38C189.861 137.254 188.765 136.104 187.675 134.986C187.976 133.122 188.82 127.363 188.26 126.197C188.26 126.197 185.871 130.702 186.961 134.229C185.796 133.037 184.663 131.87 183.582 130.791C183.686 129.588 183.974 125.768 183.556 124.677C182.97 125.469 182.611 126.407 182.519 127.388C182.427 128.37 182.605 129.358 183.033 130.246C179.724 126.966 177.071 124.615 176.38 124.716L181.512 130.423C180.734 130.107 179.894 129.977 179.057 130.042C178.22 130.108 177.409 130.366 176.69 130.799C177.63 131.271 180.892 131.372 182.392 131.39L185.62 134.971C182.228 133.77 177.766 135.632 177.766 135.632C178.844 136.272 184.397 136.001 186.427 135.872L189.603 139.407C187.06 139.484 184.526 139.731 182.016 140.148C183.283 140.752 184.675 141.049 186.079 141.013C187.482 140.977 188.858 140.61 190.092 139.941L199.345 151.223L200.672 148.948Z" fill="#50B848"/>
<path d="M394.891 34.8652C394.891 34.8652 393.51 14.522 376.638 18.4311L375.911 19.2386C375.911 19.2386 372.365 35.8045 394.891 34.8652Z" fill="#A6CE39"/>
<path d="M391.561 28.0442C390.85 27.7685 388.493 27.923 387.402 28.0175L384.829 25.6558C387.35 26.2854 390.411 24.6478 390.411 24.6478C389.589 24.2564 385.604 24.8373 384.154 25.0727L381.614 22.745C383.443 22.5138 385.253 22.159 387.034 21.683C386.078 21.336 385.054 21.2189 384.045 21.3411C383.036 21.4634 382.069 21.8216 381.224 22.3867L374.278 16.0199C374.208 15.9525 374.123 15.9019 374.03 15.872C373.937 15.8421 373.838 15.8336 373.741 15.8472C373.645 15.8608 373.552 15.8961 373.471 15.9504C373.39 16.0048 373.322 16.0768 373.273 16.1611C373.199 16.2889 373.171 16.4376 373.193 16.5832C373.215 16.7289 373.285 16.863 373.392 16.964C374.392 17.8788 377.201 20.435 380.361 23.2174C379.879 24.1119 379.613 25.1075 379.587 26.1235C379.561 27.1396 379.774 28.1475 380.21 29.0657C380.508 27.2317 380.682 25.3797 380.731 23.5223C381.576 24.2654 382.44 25.0207 383.3 25.7602C383.215 27.117 383.01 31.3333 383.493 32.127C383.493 32.127 384.898 28.721 383.865 26.2276C384.785 27.0113 385.691 27.7654 386.544 28.4734C386.548 29.3528 386.606 32.1214 386.982 32.8817C387.349 32.268 387.542 31.566 387.54 30.8509C387.539 30.1359 387.343 29.4347 386.973 28.8225C389.586 30.9592 391.665 32.4799 392.15 32.3511L388.059 28.5964C388.645 28.7875 389.268 28.8371 389.877 28.7411C390.485 28.6451 391.063 28.4063 391.561 28.0442Z" fill="#50B848"/>
<path d="M326.187 64.3197C326.187 64.3197 346.036 59.7803 334.759 42.1901C334.631 41.9887 334.548 41.7613 334.518 41.5242C334.487 41.2872 334.51 41.0463 334.584 40.8189L335.849 37.2043C335.903 37.0602 335.927 36.9069 335.921 36.7533C335.915 36.5998 335.879 36.4489 335.814 36.3095C335.749 36.17 335.658 36.0448 335.544 35.9409C335.431 35.837 335.298 35.7566 335.154 35.7042C335.006 35.653 334.849 35.6325 334.693 35.6441C334.536 35.6557 334.384 35.6992 334.245 35.7717C334.107 35.8442 333.984 35.9444 333.885 36.0659C333.787 36.1875 333.714 36.328 333.671 36.4787L332.668 40.2236C332.621 40.4014 332.523 40.5617 332.386 40.6847C332.25 40.8078 332.08 40.8884 331.898 40.9166C328.319 41.4949 310.815 45.2594 326.187 64.3197Z" fill="#50B848"/>
<path d="M331.855 47.0887L333.39 41.3689C333.39 41.3689 332.493 41.4766 330.809 46.658C329.627 46.5415 328.436 46.7126 327.335 47.1565C326.234 47.6005 325.257 48.3041 324.487 49.2074C326.589 48.6625 328.649 47.9697 330.653 47.1341C330.256 48.3636 329.851 49.6283 329.453 50.8912C328.084 51.3989 323.409 53.1688 322.792 54.0922C322.792 54.0922 327.16 53.9792 329.232 51.6567C328.813 53.0075 328.414 54.3371 328.048 55.5927C327.183 55.9837 324.228 57.3562 323.604 58.1067C324.428 58.2103 325.265 58.0833 326.022 57.7398C326.778 57.3963 327.425 56.8498 327.889 56.161C326.831 59.8853 326.169 62.804 326.535 63.2757L328.567 57.1172C328.633 57.8342 328.871 58.5246 329.261 59.1299C329.651 59.7351 330.182 60.2373 330.808 60.5937C330.765 59.6901 329.449 57.1956 328.884 56.1551L330.177 52.227C330.555 55.2622 333.862 57.8529 333.862 57.8529C333.897 56.7818 331.285 52.6352 330.456 51.382L331.705 47.5885C332.82 49.4636 334.067 51.2567 335.437 52.9542C335.361 51.7593 334.995 50.6009 334.371 49.579C333.747 48.5571 332.883 47.7024 331.855 47.0887Z" fill="#009444"/>
<path d="M280.273 89.634C282.546 89.1084 283.963 86.8399 283.438 84.5672C282.912 82.2944 280.644 80.8781 278.37 81.4036C276.097 81.9292 274.68 84.1976 275.206 86.4704C275.731 88.7431 278 90.1595 280.273 89.634Z" fill="#50B848"/>
<path d="M183.373 83.1036C185.646 82.578 187.063 80.3095 186.537 78.0368C186.012 75.764 183.743 74.3477 181.47 74.8732C179.197 75.3988 177.78 77.6673 178.305 79.94C178.831 82.2127 181.1 83.6291 183.373 83.1036Z" fill="#A6CE39"/>
<path d="M357.651 38.6664C360.739 37.9526 362.663 34.8714 361.949 31.7845C361.236 28.6976 358.154 26.7738 355.067 27.4877C351.979 28.2015 350.055 31.2826 350.769 34.3695C351.482 37.4564 354.564 39.3802 357.651 38.6664Z" fill="#A6CE39"/>
<path d="M402.253 59.0162C403.929 58.6286 404.974 56.9555 404.587 55.2793C404.199 53.603 402.526 52.5584 400.849 52.946C399.173 53.3336 398.128 55.0067 398.515 56.683C398.903 58.3592 400.576 59.4039 402.253 59.0162Z" fill="#009444"/>
<path d="M318.354 31.1254C320.031 30.7377 321.076 29.0646 320.688 27.3884C320.301 25.7121 318.627 24.6675 316.951 25.0551C315.274 25.4427 314.229 27.1158 314.617 28.7921C315.004 30.4683 316.678 31.513 318.354 31.1254Z" fill="#872368"/>
<path d="M244.19 98.1843C244.302 100.79 245.239 103.292 246.864 105.331C249.393 108.185 253.813 104.165 251.221 101.359C249.901 99.9284 247.725 98.6709 244.19 98.1843Z" fill="#F7941D"/>
<path d="M175.284 104.523C176.238 105.204 177.322 105.681 178.469 105.925C179.615 106.168 180.8 106.173 181.949 105.939C181.926 104.711 181.616 103.505 181.043 102.419C180.47 101.333 179.651 100.396 178.65 99.6838C175.57 97.6055 172.278 102.336 175.284 104.523Z" fill="#ED1C24"/>
<path d="M368.183 44.8769C367.734 45.9576 367.512 47.119 367.531 48.2889C367.55 49.4589 367.81 50.6124 368.293 51.6779C369.486 51.3818 370.592 50.8103 371.523 50.0094C372.454 49.2086 373.185 48.2005 373.656 47.0662C374.99 43.602 369.644 41.4581 368.183 44.8769Z" fill="#F7941D"/>
<path d="M300.766 91.2908C300.766 91.2908 309.215 83.823 311.301 84.437C313.387 85.0511 298.699 95.2818 300.766 91.2908Z" fill="#872368"/>
<path d="M319.459 93.9621C319.459 93.9621 327.91 86.5022 329.988 87.1181C332.065 87.7339 317.391 97.9531 319.459 93.9621Z" fill="#872368"/>
<path d="M326.861 114.657C328.699 112.297 334.768 108.153 336.418 108.644C337.844 109.062 330.887 113.245 327.859 115.78C327.641 115.947 326.759 114.755 326.861 114.657Z" fill="#872368"/>
<path d="M235.276 191.516C249.953 193.421 269.839 192.593 287.013 180.002C288.725 178.744 290.071 177.053 290.914 175.103C291.757 173.153 292.066 171.014 291.809 168.905C291.553 166.797 290.739 164.794 289.453 163.103C288.167 161.412 286.454 160.094 284.49 159.284C275.549 158.801 265.529 163.103 257.909 158.42C248.287 152.514 234.776 149.833 224.659 158.674C212.471 169.332 219.219 189.431 235.276 191.516Z" fill="#009444"/>
<path d="M352.34 129.296C352.34 129.296 359.755 124.326 371.05 113.468C382.345 102.61 405.463 66.0057 423.712 70.8554C441.961 75.7052 392.245 119.098 392.245 119.098C392.245 119.098 377.018 136.048 366.513 136.816C356.008 137.583 352.34 129.296 352.34 129.296Z" fill="#50B848"/>
<path d="M414.771 90.6368C418.751 89.7166 421.232 85.7446 420.312 81.7651C419.392 77.7857 415.42 75.3056 411.439 76.2259C407.459 77.1461 404.978 81.1181 405.898 85.0976C406.818 89.077 410.791 91.5571 414.771 90.6368Z" fill="#A6CE39"/>
<path d="M403.598 100.944C407.164 100.119 409.387 96.5598 408.563 92.9939C407.738 89.4281 404.179 87.2058 400.612 88.0304C397.046 88.855 394.823 92.4141 395.647 95.98C396.472 99.5458 400.031 101.768 403.598 100.944Z" fill="#A6CE39"/>
<path d="M393.562 113.62C397.691 112.666 400.264 108.546 399.309 104.418C398.355 100.291 394.235 97.7185 390.107 98.6729C385.978 99.6274 383.405 103.747 384.359 107.875C385.314 112.002 389.434 114.574 393.562 113.62Z" fill="#A6CE39"/>
<path d="M381.653 123.939C385.363 123.081 387.675 119.379 386.818 115.669C385.96 111.96 382.257 109.648 378.547 110.506C374.837 111.364 372.524 115.066 373.382 118.776C374.239 122.485 377.942 124.797 381.653 123.939Z" fill="#A6CE39"/>
<path d="M369.57 134.697C373.285 133.838 375.6 130.131 374.742 126.417C373.883 122.703 370.176 120.389 366.461 121.248C362.746 122.107 360.431 125.813 361.29 129.527C362.148 133.241 365.856 135.556 369.57 134.697Z" fill="#A6CE39"/>
<path d="M439.764 66.3804C438.205 65.767 436.546 65.4494 434.871 65.4438C436.02 63.2265 436.492 60.7203 436.228 58.237C435.877 55.1374 434.391 52.7321 432.036 51.4578C430.851 50.757 429.5 50.3842 428.123 50.3776C428.007 50.1969 427.892 50.0241 427.775 49.8768C425.684 47.1212 422.771 46.8812 419.949 46.6368C419.102 46.5668 418.302 46.5193 417.527 46.4741C412.475 46.1804 408.443 45.95 406.257 39.9444C406.211 39.8247 406.14 39.7156 406.051 39.6235C405.961 39.5314 405.854 39.4582 405.735 39.4081C405.617 39.3581 405.49 39.3323 405.361 39.3322C405.233 39.3321 405.106 39.3577 404.987 39.4076C404.736 39.5201 404.537 39.7229 404.429 39.9756C404.322 40.2284 404.313 40.5124 404.405 40.7712C407.03 47.9544 412.048 48.2475 417.364 48.5714C418.123 48.6202 418.904 48.6556 419.684 48.7244C422.232 48.9659 424.428 49.1226 426.011 50.9407C425.35 51.2861 424.771 51.7683 424.311 52.3552C422.798 54.2912 422.497 57.1927 423.65 58.695C424.435 59.7178 425.71 59.8798 427.072 59.1247C427.638 58.8064 428.126 58.3669 428.502 57.8378C428.878 57.3086 429.133 56.7029 429.247 56.064C429.473 54.901 429.418 53.7007 429.086 52.5635C429.803 52.71 430.493 52.9679 431.131 53.328C432.048 53.8705 432.817 54.631 433.37 55.542C433.922 56.453 434.242 57.4863 434.299 58.5502C434.574 61.052 433.92 63.5678 432.461 65.6189C429.766 66.1332 427.207 67.2028 424.947 68.7597C424.927 68.7442 424.909 68.726 424.893 68.7057C424.785 68.8471 421.121 66.7624 413.389 67.379C411.831 67.4986 411.768 69.9215 413.224 70.5067C415.368 71.373 418.033 72.1936 419.617 72.1098L416.723 72.9614C416.563 73.2055 416.462 73.4841 416.43 73.7744C416.398 74.0647 416.435 74.3585 416.537 74.6319C416.64 74.9053 416.806 75.1505 417.022 75.3474C417.238 75.5444 417.497 75.6876 417.779 75.7653C419.475 76.2036 423.944 76.6735 425.547 75.3397C425.547 75.3397 423.834 83.6669 427.931 84.7543C432.028 85.8417 428.44 83.1499 428.954 80.3071C429.414 77.4746 429.254 74.5763 428.485 71.8117C431.364 70.216 434.733 69.3375 438.115 70.6732C438.39 70.7701 438.682 70.8115 438.973 70.7951C439.264 70.7788 439.549 70.7049 439.812 70.5778C440.074 70.4507 440.309 70.2729 440.503 70.0547C440.696 69.8364 440.844 69.582 440.939 69.3062C441.161 68.7614 441.163 68.1515 440.944 67.6054C440.725 67.0594 440.302 66.6201 439.764 66.3804ZM427.277 55.664C427.223 56.0009 427.093 56.3212 426.897 56.6008C426.701 56.8804 426.445 57.1123 426.147 57.279C425.41 57.682 425.261 57.4341 425.192 57.3504C424.737 56.7496 424.795 54.9507 425.806 53.6457C426.116 53.239 426.525 52.9185 426.994 52.7148C427.344 53.6565 427.441 54.6731 427.277 55.664Z" fill="#009444"/>
<path d="M355.146 111.398C366.904 108.68 374.232 96.9462 371.514 85.1907C368.797 73.4351 357.062 66.109 345.304 68.8274C333.546 71.5458 326.218 83.2793 328.936 95.0348C331.653 106.79 343.388 114.116 355.146 111.398Z" fill="#ED1C24"/>
<path d="M335.652 70.411C339.948 67.4024 345.229 66.1429 350.421 66.8886C350.614 65.0134 350.408 63.1187 349.817 61.3288C349.226 59.5389 348.262 57.8944 346.99 56.5035C346.952 56.4628 346.923 56.414 346.907 56.3607C346.891 56.3073 346.887 56.251 346.896 56.196C346.905 56.1409 346.926 56.0887 346.959 56.0433C346.991 55.9978 347.033 55.9604 347.082 55.934C349.524 54.6386 351.958 56.5091 352.707 58.8856C353.56 61.6314 353.399 64.5922 352.252 67.2292L352.938 67.3945C353.028 67.4149 353.109 67.463 353.169 67.532C355.084 67.0648 357.081 67.0513 359.002 67.4926C360.922 67.9339 362.713 68.8177 364.232 70.0737C364.305 70.1211 364.364 70.1889 364.399 70.2688C364.435 70.3486 364.447 70.4372 364.434 70.5238C364.421 70.6104 364.382 70.6912 364.324 70.7566C364.266 70.8219 364.19 70.8689 364.105 70.8919C360.224 72.1743 356.035 72.1825 352.149 70.9154C353.194 75.0057 352.599 79.3424 350.491 83.0004C350.447 83.0718 350.385 83.1305 350.311 83.1707C350.237 83.211 350.154 83.2313 350.07 83.2298C349.986 83.2283 349.903 83.2051 349.831 83.1622C349.759 83.1194 349.699 83.0585 349.657 82.9856C348.589 81.1633 347.872 79.1574 347.542 77.0715C347.414 76.2136 347.355 75.3468 347.366 74.4795C347.38 72.8153 347.829 71.8811 345.783 72.2295C342.051 72.868 339.119 73.1889 335.592 71.2637C335.52 71.2152 335.462 71.1487 335.424 71.0708C335.387 70.9929 335.37 70.9064 335.376 70.82C335.382 70.7336 335.411 70.6503 335.459 70.5785C335.508 70.5067 335.574 70.4489 335.652 70.411Z" fill="#50B848"/>
<path d="M240.124 158.562C240.698 157.116 240.748 155.515 240.266 154.036C239.475 151.728 237.376 150.054 235.625 148.333C234.711 150.108 234.181 152.055 234.069 154.048C233.958 156.042 234.267 158.036 234.977 159.902L232.329 157.649C231.902 156.718 231.665 155.711 231.632 154.688C231.599 153.664 231.772 152.644 232.139 151.688C232.713 150.242 232.763 148.641 232.281 147.162C231.489 144.854 229.391 143.18 227.639 141.459C226.716 143.232 226.178 145.179 226.06 147.175C225.941 149.17 226.245 151.167 226.952 153.037L223.972 150.495C223.978 148.833 223.754 145.563 221.679 143.775C218.874 141.376 211.947 141.2 211.947 141.2C211.947 141.2 213.213 148.041 216.027 150.439C217.983 152.112 221.059 151.941 222.752 151.683L225.596 154.106C223.696 153.773 221.747 153.829 219.869 154.272C217.991 154.715 216.222 155.535 214.671 156.682C216.672 158.154 218.602 159.925 221.036 160.392C222.769 160.66 224.54 160.251 225.98 159.249C227.262 158.414 228.785 158.027 230.31 158.149L233.64 160.983C231.74 160.65 229.791 160.706 227.913 161.149C226.035 161.592 224.266 162.412 222.715 163.559C224.716 165.031 226.646 166.802 229.088 167.268C230.821 167.535 232.591 167.126 234.032 166.125C235.314 165.289 236.837 164.902 238.362 165.024L241.684 167.86C239.785 167.526 237.838 167.582 235.961 168.024C234.084 168.467 232.317 169.287 230.767 170.434C232.768 171.906 234.69 173.679 237.132 174.145C238.865 174.412 240.636 174.003 242.076 173.001C243.358 172.166 244.881 171.779 246.406 171.901L249.736 174.735C247.836 174.402 245.887 174.458 244.009 174.901C242.131 175.344 240.362 176.164 238.811 177.311C240.812 178.783 242.734 180.556 245.176 181.021C246.909 181.289 248.68 180.88 250.12 179.878C251.402 179.043 252.925 178.656 254.45 178.778L257.78 181.612C255.88 181.279 253.931 181.335 252.053 181.778C250.175 182.221 248.406 183.04 246.855 184.188C248.856 185.66 250.795 187.471 253.228 187.897C254.961 188.164 256.732 187.755 258.172 186.754C259.451 185.921 260.97 185.532 262.493 185.647L288.227 207.601L289.345 206.296L263.861 184.558L264.165 184.114C263.704 182.495 263.78 180.769 264.382 179.197C264.955 177.754 265.006 176.156 264.525 174.679C263.734 172.371 257.769 176.823 259.171 180.551L256.524 178.298C256.067 177.369 255.803 176.358 255.748 175.324C255.693 174.29 255.849 173.256 256.205 172.284C256.778 170.841 256.829 169.243 256.349 167.767C255.557 165.458 253.457 163.776 251.705 162.055C250.782 163.828 250.244 165.776 250.126 167.771C250.007 169.766 250.311 171.764 251.018 173.633L248.371 171.38C247.942 170.45 247.704 169.443 247.671 168.419C247.639 167.395 247.812 166.375 248.181 165.42C248.754 163.976 248.804 162.378 248.324 160.902C247.533 158.593 245.433 156.911 243.681 155.19C242.761 156.964 242.225 158.912 242.106 160.906C241.988 162.901 242.29 164.898 242.994 166.768L240.354 164.513C239.92 163.587 239.675 162.583 239.636 161.561C239.596 160.539 239.763 159.519 240.124 158.562Z" fill="#F7941D"/>
<path d="M210.399 166.622C210.436 165.068 209.932 163.549 208.973 162.326C207.417 160.41 204.884 159.584 202.625 158.578C202.375 160.561 202.544 162.575 203.121 164.488C203.698 166.402 204.67 168.173 205.974 169.688L202.713 168.482C201.991 167.756 201.421 166.893 201.038 165.943C200.654 164.993 200.464 163.977 200.48 162.952C200.524 161.397 200.019 159.877 199.054 158.656C197.5 156.748 194.965 155.914 192.715 154.915C192.461 156.896 192.628 158.909 193.203 160.822C193.778 162.735 194.75 164.506 196.055 166.018L192.416 164.651C191.87 163.116 190.534 160.103 187.952 159.138C184.491 157.854 177.898 160.093 177.898 160.093C177.898 160.093 181.45 166.081 184.91 167.358C187.327 168.252 190.159 167.033 191.654 166.205L195.161 167.504C193.261 167.845 191.45 168.569 189.84 169.632C188.229 170.696 186.852 172.076 185.793 173.69C188.149 174.399 190.619 175.414 193.041 174.97C194.761 174.621 196.28 173.621 197.28 172.18C198.199 170.958 199.496 170.075 200.969 169.666L205.079 171.207C203.18 171.55 201.371 172.275 199.76 173.338C198.15 174.401 196.772 175.781 195.711 177.393C198.076 178.1 200.545 179.115 202.969 178.679C204.688 178.326 206.205 177.327 207.208 175.889C208.126 174.666 209.423 173.783 210.897 173.375L215.008 174.916C213.108 175.257 211.297 175.981 209.687 177.045C208.076 178.108 206.699 179.489 205.639 181.102C208.004 181.809 210.465 182.826 212.896 182.38C214.616 182.031 216.134 181.032 217.135 179.59C218.05 178.369 219.344 177.486 220.815 177.078L224.926 178.619C223.027 178.963 221.218 179.689 219.608 180.752C217.998 181.815 216.62 183.194 215.558 184.805C217.922 185.512 220.384 186.529 222.816 186.091C224.533 185.742 226.05 184.743 227.047 183.303C227.967 182.083 229.263 181.199 230.735 180.789L234.846 182.33C232.946 182.67 231.136 183.394 229.525 184.458C227.914 185.521 226.537 186.902 225.478 188.515C227.835 189.225 230.304 190.24 232.727 189.796C234.447 189.447 235.965 188.447 236.966 187.006C237.887 185.787 239.183 184.904 240.654 184.492L272.388 196.256L272.988 194.647L232.514 179.68C231.793 178.955 231.225 178.092 230.843 177.143C230.461 176.195 230.273 175.179 230.29 174.157C230.328 172.602 229.821 171.083 228.857 169.862C227.309 167.944 224.776 167.118 222.518 166.121C222.264 168.102 222.431 170.116 223.008 172.029C223.584 173.942 224.558 175.711 225.866 177.222L222.605 176.016C221.881 175.291 221.31 174.428 220.927 173.478C220.543 172.529 220.354 171.511 220.371 170.487C220.408 168.936 219.905 167.42 218.948 166.199C217.392 164.283 214.857 163.449 212.599 162.451C212.347 164.433 212.514 166.446 213.091 168.358C213.668 170.271 214.641 172.041 215.947 173.553L212.686 172.347C211.927 171.605 211.331 170.712 210.938 169.726C210.544 168.74 210.36 167.683 210.399 166.622Z" fill="#F7941D"/>
<path d="M419.655 138.349L418.455 105.349C418.455 105.349 291.258 181.695 196.593 177.612C196.593 177.612 202.563 184.537 208.265 196.697C198.087 193.702 182.202 192.541 182.094 214.458C181.977 236.692 209.249 237.562 226.18 235.957C240.557 268.393 252.713 290.971 258.463 314.515C258.463 314.515 334.626 332.916 436.529 269.534L425.276 183.066C437.21 176.985 452.271 173.503 456.703 155.811C462.61 132.213 435.685 124.004 419.655 138.349ZM194.338 209.285C196.131 204.536 205.938 207.724 213.456 207.905C216.025 213.448 216.919 215.409 219.907 222.01C190.659 224.81 192.033 215.449 194.362 209.28L194.338 209.285ZM423.918 172.376L421.06 149.526C426.951 145.938 436.085 137.664 441.153 149.415C445.794 160.185 433.877 167.956 423.918 172.376Z" fill="#FFD400"/>
<path d="M311.379 124.44C311.197 126.21 310.476 127.881 309.314 129.229C308.153 130.577 306.606 131.537 304.882 131.98C302.575 132.563 300.261 132.218 298.925 128.881C296.675 123.28 300.743 124.566 298.493 119.181C296.243 113.796 293.429 115.244 290.302 111.632C287.174 108.02 291.447 98.9101 300.149 103.924C307.267 108.092 312.235 115.207 311.379 124.44Z" fill="#872368"/>
<path d="M294.328 113.276C294.328 113.276 298.993 112.829 300.153 116.912C301.313 120.996 299.244 121.674 299.244 121.674C298.221 118.908 296.415 116.5 294.045 114.745C293.178 114.156 294.328 113.276 294.328 113.276Z" fill="#B685A1"/>
<path d="M262.674 105.812C262.536 104.037 262.945 102.263 263.847 100.728C264.749 99.1935 266.1 97.9723 267.717 97.2295C269.881 96.2393 272.228 96.1867 274.131 99.2098C277.339 104.282 273.119 103.779 276.318 108.67C279.517 113.561 281.99 111.644 285.727 114.625C289.465 117.606 286.894 127.361 277.453 123.962C269.653 121.157 263.489 115.049 262.674 105.812Z" fill="#872368"/>
<path d="M281.452 113.736C281.452 113.736 276.946 115.011 275.056 111.22C273.167 107.43 275.098 106.369 275.098 106.369C276.599 108.905 278.803 110.951 281.443 112.26C282.426 112.664 281.452 113.736 281.452 113.736Z" fill="#B685A1"/>
<path d="M262.15 259.405C261.717 259.451 260.062 259.911 259.866 259.742C259.261 259.168 258.759 257.896 259.019 257.229C259.969 255.033 263.927 254.305 265.9 253.385C268.463 252.449 271.095 251.495 273.578 250.804C274.474 250.555 280.585 248.485 281.21 249.129C282.582 251.125 281.732 253.144 281.529 255.355C281.284 256.612 279.299 256.42 278.345 256.463C277.115 256.582 275.863 257.153 274.652 257.341C272.506 257.64 269.997 257.966 268.016 258.591C267.533 258.725 267.062 258.634 266.579 258.768C265.889 258.96 265.464 259.301 264.912 259.454C264.292 259.627 262.303 259.956 262.15 259.405C262.246 259.75 261.579 259.489 262.15 259.405ZM317.802 253.221C321.136 253.186 325.503 251.526 328.653 252.433C329.929 252.747 328.976 255.464 328.244 256.039C326.612 257.384 324.229 257.898 322.229 258.454C320.003 258.999 317.846 259.524 315.688 260.049C313.964 260.529 311.022 262.238 309.424 261.568C306.853 262.208 304.355 262.308 302.102 263.826C300.62 264.907 301.206 265.412 299.171 265.309C297.156 265.275 296.696 264.957 295.133 263.609C293.002 261.824 295.73 261.214 297.508 260.126C298.741 259.485 300.711 259.087 301.622 258.09C301.522 256.929 299.346 254.711 298.863 253.508C295.278 244.623 293.648 234.75 293.087 225.247C290.888 226.156 288.218 229.647 286.406 231.414C285.555 232.096 283.916 234.483 282.667 234.533C279.805 234.66 282.379 232.162 282.934 231.487C285.758 228.548 288.991 226.015 292.067 223.451C294.975 221.082 292.591 217.584 298.335 218.737C304.707 220.011 313.582 226.014 311.829 233.336C311.159 236.271 312.849 239.145 313.735 241.796C315.103 245.65 316.64 249.309 317.802 253.221C317.419 251.842 318.342 253.294 317.802 253.221ZM345.321 219.419C341.172 219.459 340.606 224.371 337.897 226.387C336.028 227.947 334.101 229.299 332.387 226.878C331.579 225.84 329.054 225.576 329.341 223.936C329.789 221.806 329.286 219.196 329.194 216.993C329.109 215.085 328.04 212.039 331.404 213.184C333.454 213.877 344.12 208.684 344.825 206.407C345.568 204.269 338.926 196.68 345.873 200.024C349.567 201.82 353.322 200.628 351.618 206.525C350.469 210.41 345.427 211.515 342.657 213.845C340.857 215.386 338.573 215.723 336.627 217.007C335.363 217.804 334.769 217.004 334.52 218.782C334.413 220 334.375 221.199 334.701 222.372C336.996 220.471 338.183 218.061 341.053 216.891C344.267 215.626 347.099 216.994 350.202 217.468C354.808 218.268 365.308 223.968 363.949 229.769C363.367 232.754 364.513 234.738 362.625 237.566C361.234 239.513 357.935 241.544 357.33 243.644C355.994 247.656 350.091 255.018 345.397 254.168C342.588 253.686 340.17 252.204 337.293 251.74C333.875 251.205 332.553 250.458 332.472 246.691C332.425 243.584 333.271 240.748 334.746 238.035C335.045 237.507 336.247 234.349 337.317 236.058C338.259 237.579 339.344 238.54 339.724 240.441C340.142 242.479 339.76 247.786 342.645 248.544C345.913 249.344 346.759 242.497 346.87 240.757C347.267 237.378 346.937 234.052 347.109 230.661C347.388 227.389 347.682 222.032 345.321 219.419C346.142 220.232 343.984 219.42 345.321 219.419ZM369.137 191.7C372.539 190.754 375.491 191.394 377.992 193.621C380.48 195.802 382.402 199.33 383.757 204.203C385.111 209.077 385.322 213.129 384.387 216.361C383.486 219.533 381.266 221.612 377.725 222.596C374.461 223.503 371.578 222.844 369.077 220.617C366.609 218.331 364.698 214.751 363.343 209.878C361.988 205.004 361.745 201.011 362.613 197.897C363.468 194.737 365.643 192.671 369.137 191.7ZM400.845 183.628L387.224 240.461L381.913 241.937L395.535 185.104L400.845 183.628ZM370.325 195.975C368.578 196.461 367.553 197.761 367.249 199.877C366.979 201.933 367.355 204.8 368.378 208.478C369.4 212.156 370.564 214.829 371.87 216.497C373.221 218.152 374.771 218.737 376.518 218.251C380.058 217.267 380.793 213.051 378.722 205.603C376.665 198.2 373.866 194.991 370.325 195.975ZM404.757 203.046C408.114 202.113 411.042 202.76 413.544 204.987C416.078 207.155 418.023 210.676 419.377 215.549C420.732 220.423 420.942 224.475 420.008 227.707C419.107 230.88 416.886 232.958 413.346 233.942C410.082 234.849 407.199 234.19 404.698 231.963C402.23 229.677 400.318 226.097 398.964 221.224C397.609 216.35 397.366 212.357 398.233 209.243C399.089 206.083 401.263 204.017 404.757 203.046ZM405.965 207.391C404.218 207.876 403.186 209.154 402.87 211.223C402.6 213.279 402.976 216.146 403.998 219.824C405.033 223.549 406.204 226.244 407.509 227.912C408.848 229.521 410.391 230.083 412.138 229.597C415.679 228.613 416.413 224.397 414.343 216.949C412.298 209.593 409.505 206.406 405.965 207.391Z" fill="#872368"/>
</g>
<path d="M91.6273 157.421C96.419 152.988 100.872 148.202 104.951 143.104C112.29 134.086 126.015 105.038 139.904 106.963C150.401 108.424 134.246 129.638 125.747 139.885C123.131 143.051 120.659 146.32 118.293 149.673C115.361 153.824 110.524 159.568 105.682 160.557C98.0152 162.078 91.6273 157.421 91.6273 157.421Z" fill="#A6CE39"/>
<path d="M130.991 122.219C133.761 123.455 137.008 122.213 138.244 119.444C139.481 116.674 138.239 113.427 135.469 112.191C132.7 110.954 129.453 112.196 128.216 114.966C126.98 117.735 128.222 120.982 130.991 122.219Z" fill="#50B848"/>
<path d="M124.11 130.831C126.59 131.938 129.497 130.825 130.604 128.346C131.711 125.867 130.598 122.96 128.119 121.853C125.64 120.746 122.733 121.858 121.626 124.337C120.519 126.816 121.631 129.724 124.11 130.831Z" fill="#50B848"/>
<path d="M117.281 141.059C120.151 142.341 123.517 141.053 124.799 138.183C126.08 135.313 124.792 131.947 121.922 130.665C119.052 129.383 115.686 130.671 114.404 133.541C113.122 136.412 114.41 139.778 117.281 141.059Z" fill="#50B848"/>
<path d="M109.876 149.752C112.457 150.905 115.482 149.747 116.634 147.167C117.787 144.586 116.629 141.561 114.049 140.409C111.468 139.256 108.443 140.414 107.291 142.994C106.138 145.575 107.296 148.6 109.876 149.752Z" fill="#50B848"/>
<path d="M101.936 158.769C104.521 159.924 107.552 158.764 108.706 156.179C109.86 153.595 108.7 150.564 106.116 149.41C103.531 148.256 100.5 149.415 99.3461 152C98.192 154.584 99.3516 157.615 101.936 158.769Z" fill="#50B848"/>
<path d="M151.329 102.242C150.119 101.931 148.863 101.846 147.623 101.991C148.276 100.254 148.399 98.3625 147.978 96.5554C147.792 95.5454 147.359 94.597 146.719 93.7945C146.078 92.992 145.248 92.3604 144.304 91.9558C143.367 91.5474 142.339 91.3944 141.324 91.5125C141.23 91.3956 141.13 91.284 141.024 91.1783C139.234 89.329 137.045 89.4013 134.961 89.4924C134.33 89.5161 133.742 89.5496 133.163 89.5866C129.403 89.8173 126.42 90.0218 124.277 85.8195C124.235 85.7318 124.176 85.6537 124.102 85.59C124.029 85.5264 123.943 85.4786 123.85 85.4497C123.757 85.4208 123.659 85.4113 123.563 85.422C123.466 85.4326 123.373 85.4632 123.288 85.5116C123.113 85.6164 122.983 85.7844 122.928 85.9812C122.872 86.1781 122.893 86.3889 122.987 86.5705C125.565 91.6355 129.293 91.3906 133.231 91.1444C133.791 91.1082 134.371 91.0711 134.951 91.0536C136.898 90.9685 138.477 90.919 139.793 92.1178C139.338 92.4327 138.957 92.842 138.675 93.3178C137.732 94.8729 137.776 97.0404 138.761 98.043C139.102 98.3723 139.557 98.5571 140.031 98.5589C140.505 98.5607 140.961 98.3794 141.305 98.0528C141.693 97.7689 142.013 97.4027 142.243 96.9805C142.473 96.5583 142.606 96.0905 142.634 95.6106C142.695 94.7309 142.545 93.8495 142.198 93.0389C142.741 93.0796 143.273 93.2079 143.775 93.4187C144.499 93.7359 145.133 94.2269 145.622 94.8481C146.111 95.4692 146.438 96.2014 146.576 96.9796C147.011 98.8089 146.756 100.734 145.861 102.388C143.921 103.007 142.132 104.026 140.611 105.38L140.563 105.358C137.726 104.712 134.779 104.729 131.95 105.407C130.813 105.644 130.985 107.439 132.106 107.73C133.675 108.222 135.321 108.426 136.963 108.333L134.911 109.23C134.815 109.424 134.767 109.638 134.77 109.855C134.773 110.071 134.827 110.284 134.927 110.475C135.027 110.667 135.171 110.832 135.348 110.958C135.524 111.084 135.727 111.166 135.941 111.198C137.236 111.376 140.57 111.308 141.625 110.185C141.625 110.185 141.111 116.466 144.228 116.904C147.345 117.341 144.463 115.672 144.58 113.529C144.667 111.399 144.289 109.276 143.473 107.307C145.451 105.87 147.848 104.927 150.469 105.6C150.68 105.646 150.899 105.649 151.112 105.611C151.325 105.572 151.528 105.491 151.71 105.374C151.892 105.257 152.048 105.105 152.171 104.927C152.295 104.748 152.381 104.548 152.427 104.336C152.554 103.913 152.51 103.457 152.305 103.065C152.099 102.674 151.749 102.379 151.329 102.242ZM141.161 95.4683C141.148 95.7214 141.08 95.9686 140.962 96.1928C140.844 96.417 140.678 96.6127 140.476 96.7663C139.984 97.1194 139.833 96.966 139.776 96.9022C139.54 96.4671 139.426 95.9757 139.449 95.481C139.471 94.9863 139.628 94.5071 139.903 94.0952C140.096 93.7687 140.369 93.4963 140.696 93.3036C141.039 93.9715 141.199 94.7183 141.161 95.4683Z" fill="#50B848"/>
<path d="M464.183 238.146C466.425 238.208 468.619 237.487 470.386 236.106C473.179 233.869 474.398 230.201 475.856 226.949C472.99 226.571 470.077 226.799 467.306 227.62C464.534 228.44 461.966 229.833 459.767 231.71L461.527 226.992C462.578 225.949 463.827 225.128 465.201 224.577C466.575 224.026 468.046 223.757 469.526 223.785C471.769 223.853 473.964 223.131 475.729 221.745C478.522 219.508 479.741 215.841 481.199 212.589C478.335 212.218 475.425 212.453 472.658 213.28C469.891 214.106 467.328 215.506 465.137 217.387L467.12 212.072C469.341 211.295 473.758 209.337 475.135 205.647C477.006 200.63 473.77 191.07 473.77 191.07C473.77 191.07 465.067 196.164 463.2 201.168C461.895 204.667 463.642 208.775 464.82 210.942L462.927 216.018C462.458 213.266 461.434 210.639 459.918 208.296C458.401 205.953 456.424 203.943 454.106 202.388C453.062 205.808 451.573 209.361 452.203 212.889C452.7 215.38 454.14 217.584 456.221 219.04C457.987 220.375 459.265 222.252 459.86 224.384L457.633 230.356C457.152 227.603 456.114 224.977 454.585 222.638C453.055 220.299 451.064 218.296 448.735 216.751C447.691 220.171 446.214 223.729 446.832 227.252C447.333 229.742 448.771 231.944 450.85 233.404C452.615 234.739 453.894 236.616 454.489 238.748L452.262 244.719C451.777 241.968 450.738 239.345 449.207 237.008C447.677 234.672 445.687 232.671 443.359 231.127C442.315 234.547 440.838 238.105 441.456 241.628C441.957 244.118 443.396 246.32 445.474 247.779C447.242 249.112 448.522 250.99 449.114 253.123L446.886 259.095C446.401 256.344 445.362 253.72 443.832 251.384C442.301 249.047 440.312 247.046 437.984 245.502C436.951 248.927 435.463 252.48 436.08 256.003C436.582 258.493 438.02 260.695 440.099 262.155C441.867 263.487 443.146 265.365 443.738 267.499L441.511 273.47C441.026 270.721 439.988 268.1 438.46 265.764C436.931 263.428 434.945 261.427 432.62 259.882C431.576 263.302 430.027 266.833 430.705 270.379C431.206 272.868 432.644 275.071 434.723 276.53C436.495 277.859 437.775 279.739 438.362 281.874L421.17 327.746L423.559 328.637L439.233 286.797L440.744 282.749C442.581 281.523 444.774 280.944 446.977 281.101C449.501 281.358 452.026 280.634 454.03 279.079C456.816 276.826 458.018 273.165 459.469 269.897C456.711 269.54 453.91 269.747 451.234 270.506C448.559 271.264 446.065 272.558 443.905 274.309L445.464 270.129C446.516 269.088 447.766 268.267 449.139 267.717C450.513 267.166 451.983 266.896 453.463 266.922C455.705 266.982 457.898 266.261 459.666 264.882C462.448 262.641 463.666 258.973 465.124 255.721C462.266 255.325 459.357 255.533 456.584 256.331C453.812 257.129 451.237 258.501 449.028 260.356L450.788 255.639C451.839 254.597 453.089 253.777 454.463 253.226C455.836 252.676 457.306 252.406 458.786 252.432C461.028 252.492 463.221 251.771 464.989 250.392C467.771 248.15 468.989 244.483 470.447 241.231C467.585 240.864 464.677 241.102 461.913 241.929C459.148 242.756 456.588 244.154 454.398 246.033L456.157 241.315C457.215 240.278 458.471 239.462 459.849 238.918C461.228 238.374 462.701 238.111 464.183 238.146Z" fill="#F7941D"/>
<path d="M479.158 106.137C479.158 106.137 462.384 145.464 506.157 147.961C506.657 147.984 507.144 148.12 507.583 148.36C508.021 148.6 508.399 148.938 508.688 149.346L513.304 155.963C513.664 156.482 514.213 156.839 514.834 156.957C515.454 157.076 516.096 156.946 516.622 156.596C516.908 156.412 517.152 156.17 517.338 155.885C517.524 155.601 517.648 155.28 517.701 154.944C517.755 154.608 517.736 154.265 517.647 153.936C517.559 153.608 517.401 153.302 517.186 153.039L512.056 146.73C511.814 146.431 511.665 146.068 511.625 145.685C511.586 145.303 511.658 144.917 511.834 144.575C515.271 137.872 530.438 103.572 479.158 106.137Z" fill="#50B848"/>
<path d="M501.421 136.983L509.252 146.644C509.252 146.644 510.158 144.934 503.438 135.735C505.087 133.872 506.259 131.637 506.854 129.222C507.45 126.807 507.451 124.283 506.858 121.868C505.188 126.102 503.823 130.451 502.771 134.88C501.181 132.691 499.523 130.451 497.881 128.228C498.702 125.27 501.455 115.165 500.719 113.01C500.719 113.01 495.504 120.551 496.906 126.929C495.196 124.552 493.367 122.227 491.674 120.089C492.084 118.123 493.384 111.42 492.888 109.437C491.699 110.711 490.885 112.29 490.538 113.998C490.191 115.706 490.324 117.477 490.922 119.115C485.895 112.737 481.757 108 480.508 108.052L488.459 119.081C487.157 118.315 485.69 117.874 484.181 117.794C482.673 117.714 481.167 117.996 479.79 118.619C481.38 119.645 487.228 120.5 489.708 120.825L494.837 127.852C489.229 124.757 480.748 127.168 480.748 127.168C482.458 128.553 492.717 129.203 495.932 129.374L500.839 136.214C496.293 135.781 491.722 135.673 487.16 135.889C489.271 137.212 491.671 138.003 494.155 138.193C496.639 138.384 499.133 137.969 501.421 136.983Z" fill="#009444"/>
<path d="M557.702 335.091C575.949 327.581 605.549 305.043 596.596 281.436C587.46 257.384 563.726 267.003 548.161 276.442C538.798 282.174 529.949 288.415 519.434 291.936C505.804 296.495 483.614 289.021 472.705 298.835C469.761 299.761 459.331 308.168 467.602 320.035C490.43 341.903 529.259 346.78 557.702 335.091Z" fill="#A6CE39"/>
<path d="M462.839 308.078C459.318 308.164 455.882 306.985 453.155 304.755C450.793 302.828 449.781 299.195 452.387 297.021C452.439 296.977 452.5 296.945 452.567 296.929C452.633 296.913 452.702 296.912 452.769 296.927C452.835 296.942 452.898 296.972 452.951 297.016C453.003 297.059 453.046 297.114 453.074 297.176C454.071 299.26 455.498 301.109 457.261 302.602C459.023 304.095 461.082 305.199 463.301 305.841C464.848 299.627 479.04 291.369 479.102 291.854C479.578 295.783 474.491 297.799 472.834 300.813C476.311 298.262 482.463 298.586 483.822 298.899C485.797 299.332 478.834 303.074 474.434 306.318C475.047 306.595 475.642 306.907 476.218 307.253C478.459 308.57 480.428 310.303 482.019 312.357C482.086 312.434 482.131 312.527 482.149 312.628C482.168 312.728 482.159 312.831 482.123 312.927C482.087 313.023 482.027 313.107 481.947 313.171C481.868 313.234 481.773 313.276 481.672 313.29C478.135 313.767 474.534 313.289 471.243 311.907C473.064 314.757 474.736 317.829 474.128 318.989C473.327 320.555 469.088 316.637 466.508 313.758C465.565 317.146 468.428 325.514 466.014 322.747C462.748 319.137 462.797 308.359 462.839 308.078Z" fill="#009444"/>
<path d="M76.7619 298.397C82.6355 304.531 107.331 307.925 106.861 304.681C105.732 296.938 94.7052 296.362 93.2824 295.053C98.0388 294.401 115.09 291.954 110.813 288.528C106.993 285.475 97.0697 285.217 93.7351 286.406C94.2347 285.061 106.918 281.873 100.569 276.728C96.0376 273.052 75.8197 287.047 74.5837 291.786C74.4157 292.405 76.0336 297.633 76.7619 298.397Z" fill="#009444"/>
<path d="M2.07034 330.68C11.2815 329.236 20.4926 327.792 29.7206 326.459C38.9386 324.956 48.0359 322.789 56.9415 319.975C69.5557 316.219 84.8393 309.155 77.5982 294.186C70.2179 278.874 50.4672 289.769 40.0548 294.946C32.02 298.894 24.2941 303.442 16.9428 308.551C10.8223 312.771 4.55822 317.526 0.03255 323.524C-0.193811 323.665 -7.45982 330.827 -7.47223 330.852C-7.87673 331.552 0.434628 330.936 2.07034 330.68Z" fill="#F7941D"/>
<path d="M62.4933 291.714C62.4933 291.714 66.3154 300.276 65.3113 301.785C64.3073 303.293 59.8342 289.086 62.4933 291.714Z" fill="#872368"/>
<path d="M55.7174 305.898C55.7174 305.898 59.5489 314.457 58.5449 315.966C57.5408 317.474 53.0645 303.257 55.7174 305.898Z" fill="#872368"/>
<path d="M37.4738 306.599C38.8878 308.65 40.6666 314.5 39.8809 315.69C39.0952 316.88 37.5989 310.13 36.3307 307.119C35.9205 306.202 36.9388 305.873 37.4738 306.599Z" fill="#872368"/>
<path d="M24.9235 317.121C26.3375 319.173 28.1163 325.023 27.3212 326.216C26.6194 327.25 25.0391 320.656 23.7805 317.641C23.3891 316.719 24.4074 316.389 24.9235 317.121Z" fill="#872368"/>
<path d="M11.3742 315.975C12.785 318.017 13.9394 322.051 13.1537 323.241C12.3681 324.432 11.5058 319.525 10.2279 316.486C9.87406 315.518 10.8392 315.25 11.3742 315.975Z" fill="#872368"/>
<path d="M559.253 198.503C559.253 198.503 515.364 206.193 527.799 241.971L529.714 243.361C529.714 243.361 566.575 247.194 559.253 198.503Z" fill="#009444"/>
<path d="M545.226 207.347C544.79 208.969 545.663 214.038 546.143 216.454L541.617 222.586C542.399 216.962 538.103 210.611 538.103 210.611C537.456 212.494 539.638 221.011 540.487 224.109L536.011 230.167C535.089 226.249 533.903 222.397 532.463 218.638C531.927 220.794 531.909 223.047 532.408 225.212C532.907 227.378 533.91 229.394 535.336 231.099L523.104 247.671C522.978 247.842 522.892 248.038 522.851 248.247C522.811 248.455 522.817 248.67 522.87 248.876C522.924 249.081 523.022 249.272 523.159 249.435C523.296 249.598 523.467 249.728 523.66 249.815C523.955 249.952 524.288 249.984 524.604 249.905C524.919 249.827 525.199 249.642 525.395 249.383C527.145 246.985 532.058 240.285 537.356 232.792C539.427 233.631 541.667 233.971 543.895 233.784C546.122 233.597 548.274 232.889 550.177 231.717C546.126 231.495 542.064 231.55 538.02 231.883L542.213 225.659C545.196 225.51 554.403 224.991 556.009 223.755C556.009 223.755 548.266 221.485 543.153 224.296C544.642 222.121 546.085 219.98 547.407 217.976C549.223 217.779 555.335 216.977 556.871 215.973C555.453 215.323 553.885 215.071 552.335 215.244C550.784 215.416 549.31 216.008 548.07 216.954C552.105 210.766 554.906 205.911 554.527 204.874L547.326 214.648C547.564 213.352 547.498 212.018 547.134 210.751C546.769 209.484 546.117 208.319 545.226 207.347Z" fill="#50B848"/>
<path d="M606.059 137.224C608.143 137.879 609.976 139.159 611.31 140.889C612.644 142.62 613.414 144.718 613.517 146.901C613.643 149.813 612.637 152.511 608.31 153.292C601.044 154.623 603.583 150.035 596.549 151.408C589.515 152.782 590.563 156.487 585.448 159.379C580.332 162.271 570.425 154.851 578.628 145.676C585.401 138.104 595.186 133.904 606.059 137.224Z" fill="#872368"/>
<path d="M588.427 154.94C588.427 154.94 589.041 149.236 594.218 148.85C599.395 148.464 599.713 151.128 599.713 151.128C596.144 151.687 592.815 153.272 590.129 155.688C589.225 156.536 588.427 154.94 588.427 154.94Z" fill="#B685A1"/>
<path d="M53.5785 239.991C66.956 249.901 96.1374 261.461 109.289 244.705C122.683 227.622 105.39 214.669 91.7882 207.539C83.5663 203.273 75.2017 199.601 68.0754 193.539C58.8413 185.68 54.5702 166.393 42.7259 162.79C40.774 161.066 30.1552 157.196 25.1875 168.342C19.339 194.363 32.7386 224.539 53.5785 239.991Z" fill="#872368"/>
<path d="M31.7485 159.691C30.1522 157.184 29.5066 154.189 29.9284 151.247C30.2916 148.7 32.475 146.386 35.1807 147.321C35.2354 147.34 35.285 147.37 35.3258 147.411C35.3665 147.452 35.3972 147.502 35.4154 147.556C35.4336 147.611 35.4388 147.669 35.4306 147.726C35.4225 147.783 35.4012 147.838 35.3684 147.885C34.2981 149.514 33.5842 151.35 33.2736 153.275C32.9629 155.199 33.0625 157.167 33.5659 159.05C38.7288 157.459 50.8798 164.112 50.5569 164.368C47.926 166.425 44.2524 163.628 41.3528 163.745C44.7115 165.145 47.1582 169.731 47.5247 170.848C48.0728 172.464 42.3344 169.065 38.0734 167.3C38.1404 167.863 38.1747 168.429 38.1758 168.996C38.2006 171.189 37.8072 173.366 37.0166 175.411C36.9903 175.493 36.9424 175.566 36.8779 175.623C36.8135 175.68 36.7348 175.719 36.6503 175.735C36.5658 175.751 36.4786 175.743 36.3978 175.714C36.317 175.684 36.2457 175.634 36.1913 175.567C34.3054 173.219 33.0813 170.41 32.6458 167.431C31.3802 169.988 29.8896 172.534 28.787 172.601C27.3068 172.705 28.2893 167.935 29.2449 164.817C26.3863 165.612 21.5888 171.327 22.5359 168.378C23.7205 164.444 31.5278 159.783 31.7485 159.691Z" fill="#009444"/>
<path d="M185.154 343.669C182.393 338.107 179.223 332.758 175.671 327.666C169.405 318.545 146.579 298.237 152.067 286.087C155.565 278.329 166.825 291.685 174.496 302.352C178.839 308.386 184.639 316.238 187.16 319.836C189.681 323.434 192.118 327.973 191.784 331.674C191.115 339.078 185.154 343.669 185.154 343.669Z" fill="#009444"/>
<path d="M163.595 298.311C165.466 296.116 165.204 292.819 163.009 290.948C160.814 289.077 157.518 289.34 155.647 291.535C153.776 293.73 154.038 297.026 156.233 298.897C158.428 300.768 161.724 300.505 163.595 298.311Z" fill="#50B848"/>
<path d="M169.612 306.892C171.287 304.927 171.052 301.976 169.087 300.301C167.122 298.626 164.171 298.861 162.496 300.826C160.821 302.791 161.056 305.742 163.021 307.417C164.986 309.092 167.937 308.857 169.612 306.892Z" fill="#50B848"/>
<path d="M177.106 315.862C179.046 313.587 178.773 310.171 176.498 308.231C174.223 306.292 170.807 306.564 168.868 308.839C166.928 311.114 167.2 314.531 169.475 316.47C171.75 318.409 175.167 318.137 177.106 315.862Z" fill="#50B848"/>
<path d="M183.046 324.956C184.789 322.911 184.545 319.84 182.5 318.096C180.455 316.353 177.383 316.597 175.64 318.643C173.897 320.688 174.141 323.759 176.186 325.502C178.231 327.246 181.303 327.001 183.046 324.956Z" fill="#50B848"/>
<path d="M189.155 334.618C190.901 332.57 190.656 329.493 188.607 327.747C186.559 326.001 183.482 326.246 181.736 328.294C179.99 330.343 180.235 333.419 182.283 335.165C184.332 336.912 187.408 336.667 189.155 334.618Z" fill="#50B848"/>
<path d="M150.824 274.396C150.21 275.412 149.793 276.534 149.594 277.705C148.183 276.652 146.495 276.034 144.737 275.928C143.765 275.829 142.784 275.97 141.88 276.339C140.975 276.707 140.175 277.291 139.549 278.04C138.926 278.786 138.51 279.684 138.345 280.641L137.959 280.825C135.798 281.967 135.27 283.979 134.795 285.904L134.405 287.576C133.607 291.068 132.992 293.833 128.583 294.66C128.492 294.677 128.405 294.713 128.327 294.764C128.25 294.815 128.184 294.882 128.133 294.96C128.082 295.037 128.047 295.125 128.031 295.216C128.015 295.307 128.017 295.401 128.038 295.492C128.088 295.679 128.207 295.841 128.371 295.944C128.535 296.048 128.732 296.086 128.923 296.05C134.23 295.052 135.006 291.585 135.844 287.932C135.961 287.411 136.083 286.872 136.216 286.332C136.661 284.533 137.045 283.073 138.492 282.194C138.652 282.696 138.921 283.156 139.281 283.542C140.453 284.824 142.437 285.36 143.615 284.731C144.008 284.509 144.3 284.144 144.431 283.712C144.562 283.28 144.522 282.815 144.318 282.412C144.159 281.982 143.908 281.593 143.583 281.27C143.258 280.948 142.866 280.7 142.435 280.545C141.65 280.25 140.804 280.15 139.972 280.253C140.161 279.772 140.422 279.323 140.748 278.921C141.231 278.346 141.848 277.899 142.544 277.619C143.241 277.339 143.995 277.235 144.742 277.315C146.528 277.406 148.217 278.156 149.484 279.419C149.532 281.354 149.982 283.259 150.805 285.011L150.773 285.049C149.422 287.464 148.647 290.157 148.507 292.921C148.413 294.028 150.091 294.347 150.668 293.401C151.536 292.099 152.162 290.651 152.515 289.126L152.778 291.246C152.929 291.387 153.111 291.489 153.309 291.546C153.508 291.602 153.717 291.611 153.92 291.571C154.122 291.53 154.312 291.443 154.474 291.314C154.636 291.186 154.765 291.022 154.85 290.834C155.36 289.699 156.223 286.667 155.45 285.376C155.45 285.376 161.049 287.524 162.284 284.797C163.519 282.07 161.218 284.258 159.3 283.582C157.381 282.926 155.342 282.701 153.326 282.923C152.54 280.728 152.327 278.281 153.646 276.083C153.744 275.902 153.806 275.703 153.828 275.499C153.849 275.294 153.831 275.087 153.772 274.89C153.714 274.692 153.617 274.508 153.488 274.348C153.358 274.188 153.199 274.055 153.018 273.957C152.668 273.727 152.241 273.644 151.831 273.726C151.42 273.809 151.059 274.049 150.824 274.396ZM141.916 281.856C142.146 281.932 142.355 282.059 142.528 282.228C142.702 282.396 142.835 282.602 142.917 282.829C143.106 283.361 142.921 283.464 142.859 283.498C142.398 283.596 141.919 283.568 141.473 283.416C141.028 283.264 140.631 282.994 140.326 282.635C140.082 282.373 139.909 282.053 139.823 281.705C140.522 281.569 141.244 281.621 141.916 281.856Z" fill="#50B848"/>
<defs>
<clipPath id="clip0">
<rect width="285.933" height="283.394" fill="white" transform="translate(146.738 64.4082) rotate(-13.0179)"/>
</clipPath>
</defs>
</svg>
